SplineFontDB: 3.2
FontName: NVCharter-Italic
FullName: NV Charter Italic
FamilyName: NV Charter
Weight: Normal
Copyright: Copyright (c) 1989-1992, Bitstream Inc., Cambridge, MA.\nCopyright (c) 2009, 2010, 2011, 2012 Andrey V. Panov \nCopyright (c) 2013-2024 Michael Sharpe\nCopyright (c) 2025 Nico Verbruggen\n\nXCharter is an extension of Bitstream Charter, whose original license is reproduced below, as required under the terms of that license. The extension provides small caps, oldstyle figures and superior figures in all four styles, accompanied by LaTeX font support files.\n\nNV Charter is based on XCharter, but contains some manual tweaks and adjustments to metrics for an improved digital reading experience.\n\n---\n\nYou are hereby granted permission under all Bitstream propriety rights\nto use, copy, modify, sublicense, sell, and redistribute the 4 Bitstream\nCharter (r) Type 1 outline fonts and the 4 Courier Type 1 outline fonts\nfor any purpose and without restriction; provided, that this notice is\nleft intact on all copies of such fonts and that Bitstream's trademark\nis acknowledged as shown below on all unmodified copies of the 4 Charter\nType 1 fonts.\n\nBITSTREAM CHARTER is a registered trademark of Bitstream Inc.
Version: 1.3
ItalicAngle: -11
UnderlinePosition: -107
UnderlineWidth: 61
Ascent: 800
Descent: 200
InvalidEm: 0
sfntRevision: 0x00014ccd
LayerCount: 2
Layer: 0 0 "Back" 1
Layer: 1 0 "Fore" 0
XUID: [1021 782 532578852 11779355]
StyleMap: 0x0001
FSType: 0
OS2Version: 4
OS2_WeightWidthSlopeOnly: 0
OS2_UseTypoMetrics: 1
CreationTime: 1136849748
ModificationTime: 1759846043
PfmFamily: 17
TTFWeight: 400
TTFWidth: 5
LineGap: 90
VLineGap: 0
Panose: 2 0 5 3 0 0 0 0 0 0
OS2TypoAscent: 800
OS2TypoAOffset: 0
OS2TypoDescent: -200
OS2TypoDOffset: 0
OS2TypoLinegap: 90
OS2WinAscent: 980
OS2WinAOffset: 0
OS2WinDescent: 236
OS2WinDOffset: 0
HheadAscent: 980
HheadAOffset: 0
HheadDescent: -236
HheadDOffset: 0
OS2SubXSize: 650
OS2SubYSize: 700
OS2SubXOff: 26

StartChar: .notdef
Encoding: 65536 -1 0
Width: 500
GlyphClass: 1
Flags: MW
HStem: 0 50<100 400 100 450> 483 50<100 400 100 100>
VStem: 50 50<50 50 50 483> 400 50<50 483 483 483>
LayerCount: 2
Fore
SplineSet
50 0 m 1
 50 533 l 1
 450 533 l 1
 450 0 l 1
 50 0 l 1
100 50 m 1
 400 50 l 1
 400 483 l 1
 100 483 l 1
 100 50 l 1
EndSplineSet
EndChar

StartChar: exclam
Encoding: 33 33 2
Width: 338
GlyphClass: 2
Flags: MW
HStem: -9 114<105 136> 663 20G<209 250>
VStem: 64 114<32 63.5> 158 122<553 652>
LayerCount: 2
Fore
SplineSet
263 553 m 2xd0
 162 171 l 1
 113 171 l 1
 158 553 l 2
 168 639 182 683 236 683 c 0
 264 683 280 666 280 638 c 0
 280 623 274 594 263 553 c 2xd0
120 105 m 0
 152 105 178 79 178 48 c 0
 178 16 152 -9 120 -9 c 0
 90 -9 64 16 64 48 c 0xe0
 64 79 90 105 120 105 c 0
EndSplineSet
Substitution2: "'ss05' Style Set 5 lookup 18 subtable" exclam.up
EndChar

StartChar: quotedbl
Encoding: 34 34 3
Width: 331
GlyphClass: 2
Flags: MW
HStem: 422 292<77 93 77 77 238 238 238 253>
VStem: 44 83<662.5 681 662.5 681> 204 83<662.5 680.5>
LayerCount: 2
Fore
SplineSet
93 422 m 1
 77 422 l 1
 46 645 l 2
 45 652 44 659 44 665 c 0
 44 697 59 714 85 714 c 0
 111 714 127 697 127 665 c 0
 127 660 126 653 125 645 c 2
 93 422 l 1
253 422 m 1
 238 422 l 1
 206 645 l 2
 205 652 204 658 204 664 c 0
 204 697 220 714 246 714 c 0
 272 714 287 697 287 665 c 0
 287 660 287 653 286 645 c 2
 253 422 l 1
EndSplineSet
EndChar

StartChar: numbersign
Encoding: 35 35 4
Width: 745
GlyphClass: 2
Flags: MW
HStem: 230 47<64 208 64 223 274 409 64 256 476 639> 423 47<113 271 113 287 338 474 113 323 541 680>
LayerCount: 2
Fore
SplineSet
370 710 m 1
 417 692 l 1
 338 470 l 1
 492 470 l 1
 572 709 l 1
 619 692 l 1
 541 470 l 1
 680 470 l 1
 680 423 l 1
 525 423 l 1
 476 277 l 1
 639 277 l 1
 639 230 l 1
 460 230 l 1
 376 -23 l 1
 329 -7 l 1
 409 230 l 1
 256 230 l 1
 173 -23 l 1
 126 -7 l 1
 208 230 l 1
 64 230 l 1
 64 277 l 1
 223 277 l 1
 271 423 l 1
 113 423 l 1
 113 470 l 1
 287 470 l 1
 370 710 l 1
323 423 m 1
 274 277 l 1
 423 277 l 1
 474 423 l 1
 323 423 l 1
EndSplineSet
EndChar

StartChar: dollar
Encoding: 36 36 5
Width: 556
GlyphClass: 2
Flags: MW
HStem: 0 46<195 204 204 237> 627 45<357 366>
VStem: 53 52<197 197> 108 83<474 522> 175 42<-102 -102> 338 41<743 743> 380 88<151.5 207> 438 45<496 496>
LayerCount: 2
Fore
SplineSet
338 743 m 1xf4
 379 743 l 1
 366 672 l 1
 411 671 460 661 514 642 c 1
 483 496 l 1
 438 496 l 1xf5
 443 592 l 1
 431 609 l 1
 407 620 382 626 357 627 c 1
 309 375 l 1
 417 336 468 284 468 206 c 0
 468 97 383 17 237 0 c 1
 217 -102 l 1
 175 -102 l 1xee
 195 0 l 1
 126 3 69 18 21 44 c 1
 53 197 l 1
 105 197 l 1
 95 85 l 1
 104 73 l 1
 139 56 172 47 204 46 c 1
 254 306 l 1
 155 351 108 401 108 472 c 0
 108 572 194 660 324 669 c 1
 338 743 l 1xf4
315 626 m 1
 237 611 191 560 191 498 c 0
 191 450 216 418 270 395 c 1
 315 626 l 1
294 287 m 1
 248 47 l 1
 334 63 380 113 380 181 c 0xe6
 380 233 353 264 294 287 c 1
EndSplineSet
Substitution2: "'smcp' Lowercase to Small Capitals in Latin lookup 4 subtable" dollar.sc
EndChar

StartChar: percent
Encoding: 37 37 6
Width: 852
GlyphClass: 2
Flags: MW
HStem: -12 36<591.5 627 591.5 633.5> 0 21G<116 177 116 116> 264 36<154.5 190 154.5 196.5> 372 35<659.5 694.5> 647 36<222.5 257.5> 651 20G<673 734 734 734>
VStem: 50 68<359.5 420 358 437.5> 116 61<0 0> 294 71<525.5 586 508.5 587.5> 487 68<84.5 145 83 162.5> 673 61<671 671> 731 71<250.5 311 233.5 312.5>
LayerCount: 2
Fore
SplineSet
247 683 m 0x3ac0
 320 683 365 630 365 542 c 0
 365 475 346 407 314 355 c 0
 277 295 226 264 167 264 c 0
 94 264 50 315 50 404 c 0
 50 471 69 541 100 592 c 0
 137 652 189 683 247 683 c 0x3ac0
673 671 m 1x75e0
 734 671 l 1
 177 0 l 1
 116 0 l 1
 673 671 l 1x75e0
239 647 m 0x3ac0
 206 647 179 623 157 574 c 0
 133 521 118 452 118 388 c 0
 118 328 135 300 174 300 c 0
 206 300 233 323 255 372 c 0
 278 422 294 493 294 558 c 0
 294 617 276 647 239 647 c 0x3ac0
684 407 m 0
 757 407 802 355 802 267 c 0
 802 200 783 132 751 80 c 0
 714 20 663 -12 604 -12 c 0xb0d0
 531 -12 487 40 487 129 c 0
 487 196 506 265 537 316 c 0
 574 376 626 407 684 407 c 0
676 372 m 0
 643 372 616 348 594 299 c 0
 570 246 555 177 555 113 c 0
 555 53 572 24 611 24 c 0
 643 24 670 48 692 97 c 0
 715 147 731 218 731 283 c 0
 731 342 713 372 676 372 c 0
EndSplineSet
EndChar

StartChar: ampersand
Encoding: 38 38 7
Width: 704
GlyphClass: 2
Flags: MW
HStem: -11 59<203 229> -4 45 318 42<469 469 665 665> 639 45<297 356.5>
VStem: 20 90<143.5 195> 137 75<503 549> 416 82<511 574.5>
LayerCount: 2
Fore
SplineSet
665 360 m 1xbe
 665 318 l 1
 594 309 l 1
 551 228 508 167 468 128 c 1
 509 67 555 41 620 41 c 2
 631 41 l 1
 631 1 l 1
 560 -3 l 2
 548 -4 540 -4 535 -4 c 0x7e
 485 -4 456 20 411 74 c 1
 343 17 267 -11 191 -11 c 0
 89 -11 20 58 20 152 c 0
 20 238 76 307 192 366 c 1
 156 417 137 459 137 499 c 0
 137 599 225 684 352 684 c 0
 442 684 498 630 498 553 c 0
 498 469 428 401 294 360 c 1
 443 162 l 1
 470 186 498 230 530 292 c 1
 518 308 l 1
 469 318 l 1
 469 360 l 1
 665 360 l 1xbe
387 105 m 1
 215 335 l 1
 144 291 110 246 110 182 c 0
 110 105 165 48 241 48 c 0xbe
 290 48 340 67 387 105 c 1
271 387 m 1
 368 422 416 473 416 546 c 0
 416 603 382 639 331 639 c 0
 263 639 212 589 212 524 c 0
 212 482 232 438 271 387 c 1
EndSplineSet
EndChar

StartChar: quotesingle
Encoding: 39 39 8
Width: 170
GlyphClass: 2
Flags: MW
HStem: 422 292<77 93 77 77>
VStem: 44 83<662.5 680.5>
LayerCount: 2
Fore
SplineSet
93 422 m 1
 77 422 l 1
 45 645 l 2
 44 652 44 658 44 664 c 0
 44 697 59 714 85 714 c 0
 111 714 127 697 127 665 c 0
 127 660 126 653 125 645 c 2
 93 422 l 1
EndSplineSet
EndChar

StartChar: parenleft
Encoding: 40 40 9
Width: 419
GlyphClass: 2
Flags: MW
HStem: -142 42<294 302> 676 42<451 459>
VStem: 79 82<57.5 156.5 55.5 180>
LayerCount: 2
Fore
SplineSet
459 718 m 1
 451 676 l 1
 398 668 348 641 310 598 c 0
 266 549 236 492 216 425 c 0
 177 295 161 192 161 121 c 0
 161 -10 211 -86 302 -100 c 1
 294 -142 l 1
 167 -132 79 -22 79 137 c 0
 79 223 98 325 138 437 c 0
 165 512 207 574 267 629 c 0
 324 682 391 713 459 718 c 1
EndSplineSet
Substitution2: "'ss05' Style Set 5 lookup 18 subtable" parenleft.up
Substitution2: "'sups' Superscript lookup 13 subtable" uni207D
Substitution2: "'subs' Subscript lookup 12 subtable" uni208D
EndChar

StartChar: parenright
Encoding: 41 41 10
Width: 419
GlyphClass: 2
Flags: MW
HStem: -142 42<-66 -58> 676 42<91 99>
VStem: 231 82<429.5 521.5 338.5 524>
LayerCount: 2
Fore
SplineSet
99 718 m 1
 226 707 313 598 313 445 c 0
 313 232 243 55 126 -53 c 0
 67 -107 0 -138 -66 -142 c 1
 -58 -100 l 1
 -5 -93 45 -65 83 -22 c 0
 130 30 162 94 183 171 c 0
 218 299 231 398 231 461 c 0
 231 587 180 663 91 676 c 1
 99 718 l 1
EndSplineSet
Substitution2: "'ss05' Style Set 5 lookup 18 subtable" parenright.up
Substitution2: "'sups' Superscript lookup 13 subtable" uni207E
Substitution2: "'subs' Subscript lookup 12 subtable" uni208E
EndChar

StartChar: asterisk
Encoding: 42 42 11
Width: 500
GlyphClass: 2
Flags: MW
HStem: 507 82
VStem: 307 62<338 364>
LayerCount: 2
Fore
SplineSet
323 718 m 1
 351 657 l 1
 295 532 l 1
 281 532 l 1
 272 657 l 1
 323 718 l 1
426 589 m 1
 492 571 l 1
 436 515 l 1
 306 507 l 1
 304 520 l 1
 426 589 l 1
295 491 m 1
 379 410 l 1
 369 338 l 1
 307 364 l 1
 283 484 l 1
 295 491 l 1
264 491 m 1
 273 484 l 1
 203 363 l 1
 131 338 l 1
 148 410 l 1
 264 491 l 1
172 589 m 1
 267 519 l 1
 261 507 l 1
 133 515 l 1
 99 571 l 1
 172 589 l 1
EndSplineSet
EndChar

StartChar: plus
Encoding: 43 43 12
Width: 833
GlyphClass: 2
Flags: MW
HStem: 0 21G<388 446 388 388> 270 57<124 388 124 388 446 709>
VStem: 388 58<0 270 0 270 327 596>
LayerCount: 2
Fore
SplineSet
388 596 m 1
 446 596 l 1
 446 327 l 1
 709 327 l 1
 709 270 l 1
 446 270 l 1
 446 0 l 1
 388 0 l 1
 388 270 l 1
 124 270 l 1
 124 327 l 1
 388 327 l 1
 388 596 l 1
EndSplineSet
Substitution2: "'sups' Superscript lookup 13 subtable" uni207A
Substitution2: "'subs' Subscript lookup 12 subtable" uni208A
EndChar

StartChar: comma
Encoding: 44 44 13
Width: 278
GlyphClass: 2
Flags: MW
HStem: -169 33<-57 -51> 7 99<64 86 22 104.5>
VStem: 13 135<30.5 56.5>
LayerCount: 2
Fore
SplineSet
-57 -169 m 1
 -51 -136 l 1
 29 -121 75 -72 86 7 c 1
 22 7 l 1
 16 16 13 25 13 36 c 0
 13 77 44 106 84 106 c 0
 125 106 148 81 148 38 c 0
 148 -55 65 -154 -57 -169 c 1
EndSplineSet
EndChar

StartChar: hyphen
Encoding: 45 45 14
Width: 319
GlyphClass: 2
Flags: MW
HStem: 207 67<36 247 23 260>
VStem: 23 237<207 274>
LayerCount: 2
Fore
SplineSet
36 274 m 1
 260 274 l 1
 247 207 l 1
 23 207 l 1
 36 274 l 1
EndSplineSet
Substitution2: "'sups' Superscript lookup 13 subtable" uni207B
Substitution2: "'subs' Subscript lookup 12 subtable" uni208B
EndChar

StartChar: period
Encoding: 46 46 15
Width: 278
GlyphClass: 2
Flags: MW
HStem: -5 119<69 101.5>
VStem: 26 119<37.5 70.5>
LayerCount: 2
Fore
SplineSet
85 114 m 0
 118 114 145 87 145 54 c 0
 145 21 118 -5 85 -5 c 0
 53 -5 26 21 26 54 c 0
 26 87 52 114 85 114 c 0
EndSplineSet
EndChar

StartChar: slash
Encoding: 47 47 16
Width: 481
GlyphClass: 2
Flags: MW
HStem: 651 20G<464 525 525 525>
VStem: -111 61<-93 -93> 464 61<671 671>
LayerCount: 2
Fore
SplineSet
464 671 m 1
 525 671 l 1
 -50 -93 l 1
 -111 -93 l 1
 464 671 l 1
EndSplineSet
EndChar

StartChar: zero
Encoding: 48 48 17
Width: 556
GlyphClass: 2
Flags: MW
HStem: -12 48<187 250.5 187 257.5> 636 47<304.5 368.5>
VStem: 27 92<142.5 215.5 142.5 270.5> 436 92<457 529>
LayerCount: 2
Fore
SplineSet
344 683 m 0
 457 683 528 600 528 458 c 0
 528 342 496 227 444 140 c 0
 385 41 304 -12 211 -12 c 0
 98 -12 27 72 27 213 c 0
 27 328 59 444 111 532 c 0
 170 631 251 683 344 683 c 0
335 636 m 0
 274 636 227 594 187 510 c 0
 168 470 150 412 135 336 c 0
 124 281 119 235 119 196 c 0
 119 89 152 36 222 36 c 0
 279 36 328 77 368 161 c 0
 387 201 405 261 420 336 c 0
 431 392 436 438 436 476 c 0
 436 582 402 636 335 636 c 0
EndSplineSet
Substitution2: "'ss05' Style Set 5 lookup 18 subtable" zero.up
Substitution2: "'onum' Oldstyle Figures lookup 16 subtable" zero.tosf
Substitution2: "'pnum' Proportional Numbers lookup 15 subtable" zero.lf
Substitution2: "'sups' Superscript lookup 13 subtable" uni2070
Substitution2: "'subs' Subscript lookup 12 subtable" uni2080
Substitution2: "'numr' Numerators lookup 11 subtable" zero.numerator
Substitution2: "'dnom' Denominators lookup 10 subtable" zero.denominator
EndChar

StartChar: one
Encoding: 49 49 18
Width: 556
GlyphClass: 2
Flags: MW
HStem: 0 43<82 381 82 82> 576 41<147 147> 663 20G<380 404 404 404>
VStem: 82 322
LayerCount: 2
Fore
SplineSet
380 683 m 1
 404 683 l 1
 285 62 l 1
 294 47 l 1
 381 42 l 1
 381 0 l 1
 82 0 l 1
 82 43 l 1
 186 49 l 1
 202 66 l 1
 302 585 l 1
 292 595 l 1
 147 576 l 1
 147 617 l 1
 380 683 l 1
EndSplineSet
Substitution2: "'ss05' Style Set 5 lookup 18 subtable" one.up
Substitution2: "'onum' Oldstyle Figures lookup 16 subtable" one.tosf
Substitution2: "'pnum' Proportional Numbers lookup 15 subtable" one.lf
Substitution2: "'sups' Superscript lookup 13 subtable" one.superior
Substitution2: "'subs' Subscript lookup 12 subtable" uni2081
Substitution2: "'numr' Numerators lookup 11 subtable" one.numerator
Substitution2: "'dnom' Denominators lookup 10 subtable" one.denominator
EndChar

StartChar: two
Encoding: 50 50 19
Width: 556
GlyphClass: 2
Flags: MW
HStem: 0 79<112 413 112 461> 486 21G<153.5 176> 632 51<324 365>
VStem: 101 95 419 98
LayerCount: 2
Fore
SplineSet
112 79 m 1
 413 79 l 1
 447 164 l 1
 492 164 l 1
 461 0 l 1
 -2 0 l 1
 10 63 l 1
 286 256 439 372 439 523 c 0
 439 592 400 632 330 632 c 0
 299 632 269 624 236 608 c 1
 216 501 l 1
 200 491 184 486 168 486 c 0
 139 486 121 503 121 526 c 0
 121 553 135 583 164 610 c 0
 212 654 286 683 362 683 c 0
 474 683 537 627 537 533 c 0
 537 389 388 269 112 79 c 1
EndSplineSet
Substitution2: "'ss05' Style Set 5 lookup 18 subtable" two.up
Substitution2: "'onum' Oldstyle Figures lookup 16 subtable" two.tosf
Substitution2: "'pnum' Proportional Numbers lookup 15 subtable" two.lf
Substitution2: "'sups' Superscript lookup 13 subtable" two.superior
Substitution2: "'subs' Subscript lookup 12 subtable" uni2082
Substitution2: "'numr' Numerators lookup 11 subtable" two.numerator
Substitution2: "'dnom' Denominators lookup 10 subtable" two.denominator
EndChar

StartChar: three
Encoding: 51 51 20
Width: 556
GlyphClass: 2
Flags: MW
HStem: -11 47<190.5 229> 324 51<262 301 240 310> 636 47<302.5 353.5>
VStem: 1 90 103 91 377 95 415 97
LayerCount: 2
Fore
SplineSet
335 357 m 1xfa
 433 353 488 303 488 227 c 0
 488 160 449 91 381 44 c 0
 329 9 263 -11 195 -11 c 0
 89 -11 17 37 17 97 c 0
 17 131 38 153 72 153 c 0
 82 153 94 151 107 146 c 1
 122 60 l 1
 148 44 175 36 206 36 c 0
 314 36 393 115 393 215 c 0xfc
 393 283 349 324 271 324 c 0
 253 324 233 322 211 320 c 1
 219 376 l 1
 228 375 236 375 244 375 c 0
 358 375 431 444 431 529 c 0
 431 595 388 636 319 636 c 0
 286 636 255 625 224 604 c 1
 210 508 l 1
 190 501 175 496 163 496 c 0
 138 496 119 515 119 543 c 0
 119 609 219 683 357 683 c 0
 465 683 528 629 528 546 c 0
 528 461 460 388 335 357 c 1xfa
EndSplineSet
Substitution2: "'ss05' Style Set 5 lookup 18 subtable" three.up
Substitution2: "'onum' Oldstyle Figures lookup 16 subtable" three.tosf
Substitution2: "'pnum' Proportional Numbers lookup 15 subtable" three.lf
Substitution2: "'sups' Superscript lookup 13 subtable" three.superior
Substitution2: "'subs' Subscript lookup 12 subtable" uni2083
Substitution2: "'numr' Numerators lookup 11 subtable" three.numerator
Substitution2: "'dnom' Denominators lookup 10 subtable" three.denominator
EndChar

StartChar: four
Encoding: 52 52 21
Width: 556
GlyphClass: 2
Flags: MW
HStem: 194 65<32 32 107 342 20 32 432 531> 657 20G<453 512 512 512>
VStem: 278 77
LayerCount: 2
Fore
SplineSet
453 677 m 1
 512 677 l 1
 432 259 l 1
 544 259 l 1
 531 194 l 1
 419 194 l 1
 375 -37 l 1
 298 -37 l 1
 342 194 l 1
 20 194 l 1
 32 259 l 1
 453 677 l 1
414 568 m 1
 107 259 l 1
 355 259 l 1
 414 568 l 1
EndSplineSet
Substitution2: "'ss05' Style Set 5 lookup 18 subtable" four.up
Substitution2: "'onum' Oldstyle Figures lookup 16 subtable" four.tosf
Substitution2: "'pnum' Proportional Numbers lookup 15 subtable" four.lf
Substitution2: "'sups' Superscript lookup 13 subtable" uni2074
Substitution2: "'subs' Subscript lookup 12 subtable" uni2084
Substitution2: "'numr' Numerators lookup 11 subtable" four.numerator
Substitution2: "'dnom' Denominators lookup 10 subtable" four.denominator
EndChar

StartChar: five
Encoding: 53 53 22
Width: 556
GlyphClass: 2
Flags: MW
HStem: -13 47<181.5 212> 352 56<204 353> 595 76<224 515 224 224>
VStem: 377 90
LayerCount: 2
Fore
SplineSet
179 671 m 1
 529 671 l 1
 515 595 l 1
 224 595 l 1
 183 391 l 1
 224 402 261 408 295 408 c 0
 411 408 477 346 477 247 c 0
 477 181 443 110 382 60 c 0
 324 12 252 -13 172 -13 c 0
 69 -13 13 26 13 79 c 0
 13 112 38 137 71 137 c 0
 78 137 87 136 96 134 c 1
 122 49 l 1
 144 39 168 34 195 34 c 0
 300 34 387 121 387 223 c 0
 387 309 328 352 209 352 c 0
 199 352 168 350 113 346 c 1
 179 671 l 1
EndSplineSet
Substitution2: "'ss05' Style Set 5 lookup 18 subtable" five.up
Substitution2: "'onum' Oldstyle Figures lookup 16 subtable" five.tosf
Substitution2: "'pnum' Proportional Numbers lookup 15 subtable" five.lf
Substitution2: "'sups' Superscript lookup 13 subtable" uni2075
Substitution2: "'subs' Subscript lookup 12 subtable" uni2085
Substitution2: "'numr' Numerators lookup 11 subtable" five.numerator
Substitution2: "'dnom' Denominators lookup 10 subtable" five.denominator
EndChar

StartChar: six
Encoding: 54 54 23
Width: 556
GlyphClass: 2
Flags: MW
HStem: -12 46<222.5 305.5 222.5 326> 390 60<318.5 345.5> 665 51<508 510>
VStem: 32 90 411 90
LayerCount: 2
Fore
SplineSet
508 716 m 1
 510 665 l 1
 340 648 215 545 174 387 c 1
 232 430 291 450 346 450 c 0
 451 450 521 381 521 268 c 0
 521 117 403 -12 249 -12 c 0
 131 -12 52 73 52 217 c 0
 52 360 112 495 223 595 c 0
 296 661 391 701 508 716 c 1
161 336 m 1
 148 296 142 254 142 208 c 0
 142 97 186 34 259 34 c 0
 352 34 431 123 431 247 c 0
 431 341 388 390 303 390 c 0
 253 390 203 371 161 336 c 1
EndSplineSet
Substitution2: "'ss05' Style Set 5 lookup 18 subtable" six.up
Substitution2: "'onum' Oldstyle Figures lookup 16 subtable" six.tosf
Substitution2: "'pnum' Proportional Numbers lookup 15 subtable" six.lf
Substitution2: "'sups' Superscript lookup 13 subtable" uni2076
Substitution2: "'subs' Subscript lookup 12 subtable" uni2086
Substitution2: "'numr' Numerators lookup 11 subtable" six.numerator
Substitution2: "'dnom' Denominators lookup 10 subtable" six.denominator
EndChar

StartChar: seven
Encoding: 55 55 24
Width: 556
GlyphClass: 2
Flags: MW
HStem: 595 76<183 492 183 183>
LayerCount: 2
Fore
SplineSet
135 671 m 1
 596 671 l 1
 588 631 l 1
 132 -15 l 1
 128 -37 l 1
 45 -37 l 1
 492 595 l 1
 183 595 l 1
 150 504 l 1
 103 504 l 1
 135 671 l 1
EndSplineSet
Substitution2: "'ss05' Style Set 5 lookup 18 subtable" seven.up
Substitution2: "'onum' Oldstyle Figures lookup 16 subtable" seven.tosf
Substitution2: "'pnum' Proportional Numbers lookup 15 subtable" seven.lf
Substitution2: "'sups' Superscript lookup 13 subtable" uni2077
Substitution2: "'subs' Subscript lookup 12 subtable" uni2087
Substitution2: "'numr' Numerators lookup 11 subtable" seven.numerator
Substitution2: "'dnom' Denominators lookup 10 subtable" seven.denominator
EndChar

StartChar: eight
Encoding: 56 56 25
Width: 556
GlyphClass: 2
Flags: MW
HStem: -17 49<208.5 297 208.5 311.5> 640 44<302.5 374.5>
VStem: 18 84 105 84 402 90 438 79
LayerCount: 2
Fore
SplineSet
335 369 m 1xf4
 406 402 448 466 448 535 c 0
 448 600 408 640 341 640 c 0
 264 640 199 581 199 499 c 0
 199 443 243 408 335 369 c 1xf4
375 353 m 1
 462 311 502 273 502 205 c 0xf8
 502 86 390 -17 233 -17 c 0
 102 -17 28 48 28 141 c 0
 28 225 86 299 198 350 c 1
 141 379 115 418 115 477 c 0
 115 592 218 684 356 684 c 0
 462 684 527 627 527 541 c 0
 527 459 475 392 375 353 c 1
232 328 m 1
 151 282 112 232 112 159 c 0
 112 82 167 32 250 32 c 0
 344 32 412 99 412 180 c 0
 412 251 353 273 232 328 c 1
EndSplineSet
Substitution2: "'ss05' Style Set 5 lookup 18 subtable" eight.up
Substitution2: "'onum' Oldstyle Figures lookup 16 subtable" eight.tosf
Substitution2: "'pnum' Proportional Numbers lookup 15 subtable" eight.lf
Substitution2: "'sups' Superscript lookup 13 subtable" uni2078
Substitution2: "'subs' Subscript lookup 12 subtable" uni2088
Substitution2: "'numr' Numerators lookup 11 subtable" eight.numerator
Substitution2: "'dnom' Denominators lookup 10 subtable" eight.denominator
EndChar

StartChar: nine
Encoding: 57 57 26
Width: 556
GlyphClass: 2
Flags: MW
HStem: 225 56<232 249.5> 639 44<296 352>
VStem: 46 92 432 90
LayerCount: 2
Fore
SplineSet
418 344 m 1
 430 394 437 439 437 479 c 0
 437 584 391 639 313 639 c 0
 224 639 143 544 143 425 c 0
 143 336 193 281 271 281 c 0
 322 281 371 302 418 344 c 1
51 -56 m 1
 33 -14 l 1
 203 48 321 141 396 280 c 1
 331 244 274 225 225 225 c 0
 123 225 51 297 51 405 c 0
 51 485 88 565 151 618 c 0
 203 661 263 683 329 683 c 0
 456 683 527 609 527 477 c 0
 527 248 358 45 51 -56 c 1
EndSplineSet
Substitution2: "'ss05' Style Set 5 lookup 18 subtable" nine.up
Substitution2: "'onum' Oldstyle Figures lookup 16 subtable" nine.tosf
Substitution2: "'pnum' Proportional Numbers lookup 15 subtable" nine.lf
Substitution2: "'sups' Superscript lookup 13 subtable" uni2079
Substitution2: "'subs' Subscript lookup 12 subtable" uni2089
Substitution2: "'numr' Numerators lookup 11 subtable" nine.numerator
Substitution2: "'dnom' Denominators lookup 10 subtable" nine.denominator
EndChar

StartChar: colon
Encoding: 58 58 27
Width: 319
GlyphClass: 2
Flags: MW
HStem: -5 119<90 122.5> 358 119<159 191.5>
VStem: 47 119<37.5 70.5> 116 118<401.5 434.5>
LayerCount: 2
Fore
SplineSet
175 477 m 0xd0
 208 477 234 451 234 418 c 0
 234 385 208 358 175 358 c 0
 143 358 116 385 116 418 c 0
 116 451 142 477 175 477 c 0xd0
106 114 m 0
 139 114 166 87 166 54 c 0
 166 21 139 -5 106 -5 c 0
 74 -5 47 21 47 54 c 0xe0
 47 87 73 114 106 114 c 0
EndSplineSet
Substitution2: "'ss05' Style Set 5 lookup 18 subtable" colon.up
EndChar

StartChar: semicolon
Encoding: 59 59 28
Width: 319
GlyphClass: 2
Flags: MW
HStem: -169 33<-32 -26> 7 99<89 111 47 129.5> 358 119<159 191.5>
VStem: 38 135<30.5 56.5> 116 118<401.5 434.5>
LayerCount: 2
Fore
SplineSet
175 477 m 0xe8
 208 477 234 451 234 418 c 0
 234 385 208 358 175 358 c 0
 143 358 116 385 116 418 c 0
 116 451 142 477 175 477 c 0xe8
-32 -169 m 1
 -26 -136 l 1
 54 -121 100 -72 111 7 c 1
 47 7 l 1
 41 16 38 25 38 36 c 0
 38 77 69 106 109 106 c 0
 150 106 173 81 173 38 c 0xf0
 173 -55 90 -154 -32 -169 c 1
EndSplineSet
Substitution2: "'ss05' Style Set 5 lookup 18 subtable" semicolon.up
EndChar

StartChar: less
Encoding: 60 60 29
Width: 833
GlyphClass: 2
Flags: W
LayerCount: 2
Fore
SplineSet
704 559 m 1
 704 497 l 1
 216 298 l 1
 704 100 l 1
 704 37 l 1
 129 273 l 1
 129 323 l 1
 704 559 l 1
EndSplineSet
EndChar

StartChar: equal
Encoding: 61 61 30
Width: 833
GlyphClass: 2
Flags: MW
HStem: 176 57<124 709 124 709> 363 57<124 709 124 709>
LayerCount: 2
Fore
SplineSet
124 420 m 1
 709 420 l 1
 709 363 l 1
 124 363 l 1
 124 420 l 1
124 233 m 1
 709 233 l 1
 709 176 l 1
 124 176 l 1
 124 233 l 1
EndSplineSet
Substitution2: "'sups' Superscript lookup 13 subtable" uni207C
Substitution2: "'subs' Subscript lookup 12 subtable" uni208C
EndChar

StartChar: greater
Encoding: 62 62 31
Width: 833
GlyphClass: 2
Flags: W
LayerCount: 2
Fore
SplineSet
129 559 m 1
 704 323 l 1
 704 273 l 1
 129 37 l 1
 129 100 l 1
 617 298 l 1
 129 497 l 1
 129 559 l 1
EndSplineSet
EndChar

StartChar: question
Encoding: 63 63 32
Width: 486
GlyphClass: 2
Flags: MW
HStem: -9 114<136 167> 637 46<232 235 232 232>
VStem: 94 114<32 63.5> 143 52<171 171> 353 92<486.5 566.5>
LayerCount: 2
Fore
SplineSet
218 288 m 1xd8
 195 171 l 1
 143 171 l 1
 171 317 l 1
 290 359 353 436 353 532 c 0
 353 601 312 637 235 637 c 2
 232 637 l 1
 172 538 l 1
 166 537 160 537 154 537 c 0
 121 537 103 552 103 576 c 0
 103 633 170 683 269 683 c 0
 381 683 445 628 445 540 c 0
 445 433 369 347 218 288 c 1xd8
151 105 m 0
 183 105 208 79 208 48 c 0
 208 16 183 -9 151 -9 c 0
 121 -9 94 16 94 48 c 0xe8
 94 79 121 105 151 105 c 0
EndSplineSet
Substitution2: "'ss05' Style Set 5 lookup 18 subtable" question.up
EndChar

StartChar: at
Encoding: 64 64 33
Width: 942
GlyphClass: 2
Flags: MW
HStem: -153 49<421 524> 56 55<654.5 657> 56 62<421.5 427> 452 40<493.5 534.5> 649 43<487.5 626.5>
VStem: 76 71<187 312.5> 280 85<192.5 248.5> 551 74<132 159.5 141 159.5> 825 46<336 455>
LayerCount: 2
Fore
SplineSet
553 450 m 1xbf80
 546 451 538 452 531 452 c 0
 439 452 365 359 365 229 c 0
 365 156 395 118 448 118 c 0
 484 118 518 140 553 184 c 1
 594 394 l 1
 553 450 l 1xbf80
551 141 m 1
 497 85 450 56 404 56 c 0xbf80
 333 56 280 119 280 217 c 0
 280 280 300 339 336 388 c 0
 385 454 458 492 529 492 c 0
 561 492 593 483 627 465 c 1
 645 488 l 1
 699 488 l 1
 686 455 680 419 672 381 c 2
 633 209 l 2
 627 183 625 165 625 154 c 0
 625 128 642 111 667 111 c 0
 693 111 726 128 755 163 c 0
 799 215 825 293 825 377 c 0
 825 533 711 649 542 649 c 0
 433 649 342 615 271 549 c 0
 188 472 147 376 147 258 c 0
 147 39 290 -104 504 -104 c 0
 593 -104 683 -80 767 -31 c 1
 781 -65 l 1
 675 -124 571 -153 477 -153 c 0
 365 -153 265 -114 188 -40 c 0
 114 31 76 128 76 246 c 0
 76 379 125 490 221 578 c 0
 300 650 413 692 528 692 c 0
 740 692 871 564 871 373 c 0
 871 299 852 233 815 176 c 0
 765 99 689 56 625 56 c 0xdf80
 577 56 551 81 551 132 c 2
 551 141 l 1
EndSplineSet
EndChar

StartChar: A
Encoding: 65 65 34
Width: 606
GlyphClass: 2
Flags: MW
HStem: 0 38<-79 119 -79 -79> 248 43<182 391 182 400 157 391> 657 20G<345 411 411 411>
AnchorPoint: "Anchor-3" 486 0 basechar 0
AnchorPoint: "Anchor-2" 249 0 basechar 0
AnchorPoint: "Anchor-1" 379 682 basechar 0
LayerCount: 2
Fore
SplineSet
345 677 m 1
 411 677 l 1
 518 61 l 1
 535 43 l 1
 584 38 l 1
 584 0 l 1
 365 0 l 1
 365 38 l 1
 424 43 l 1
 431 57 l 1
 400 248 l 1
 157 248 l 1
 50 57 l 1
 58 43 l 1
 119 38 l 1
 119 0 l 1
 -79 0 l 1
 -79 38 l 1
 -24 44 l 1
 345 677 l 1
345 579 m 1
 182 291 l 1
 391 291 l 1
 345 579 l 1
EndSplineSet
Substitution2: "'c2sc' Capitals to Small Capitals in Latin lookup 6 subtable" a.sc
Position2: "'cpsp' Capital Spacing in Latin lookup 2 subtable" dx=7 dy=0 dh=14 dv=0
EndChar

StartChar: B
Encoding: 66 66 35
Width: 588
GlyphClass: 2
Flags: MW
HStem: 0 41<192.5 222> 327 39<259 311 243.5 321.5> 632 39<295.5 341 341 350>
VStem: 426 98<158 255> 444 99<498.5 569>
AnchorPoint: "Anchor-2" 202 0 basechar 0
AnchorPoint: "Anchor-1" 334 682 basechar 0
LayerCount: 2
Fore
SplineSet
84 671 m 1xf0
 341 671 l 2
 476 671 543 633 543 546 c 0xe8
 543 451 482 385 366 356 c 1
 470 351 524 305 524 223 c 0
 524 73 424 0 222 0 c 2
 -28 0 l 1
 -28 38 l 1
 35 44 l 1
 52 58 l 1
 158 613 l 1
 148 628 l 1
 84 633 l 1
 84 671 l 1xf0
199 369 m 1
 221 367 237 366 250 366 c 0
 372 366 444 434 444 536 c 0
 444 602 398 632 302 632 c 0
 289 632 271 631 247 629 c 1
 199 369 l 1
137 44 m 1
 160 42 182 41 203 41 c 0
 351 41 426 100 426 216 c 0xf0
 426 294 375 327 268 327 c 0
 250 327 224 325 191 322 c 1
 137 44 l 1
EndSplineSet
Substitution2: "'c2sc' Capitals to Small Capitals in Latin lookup 6 subtable" b.sc
Position2: "'cpsp' Capital Spacing in Latin lookup 2 subtable" dx=7 dy=0 dh=14 dv=0
EndChar

StartChar: C
Encoding: 67 67 36
Width: 604
GlyphClass: 2
Flags: MW
HStem: -12 47<278 341> 636 47<405 456.5>
VStem: 41 95<184 318.5 184 330> 552 42<495 591>
AnchorPoint: "Anchor-2" 312 0 basechar 0
AnchorPoint: "Anchor-1" 440 682 basechar 0
LayerCount: 2
Fore
SplineSet
622 649 m 1
 594 495 l 1
 552 495 l 1
 552 591 l 1
 544 610 l 1
 510 628 475 636 438 636 c 0
 372 636 310 612 261 568 c 0
 183 498 136 384 136 253 c 0
 136 115 212 35 344 35 c 0
 372 35 401 40 430 49 c 1
 449 66 l 1
 493 181 l 1
 536 181 l 1
 509 23 l 1
 440 0 372 -12 310 -12 c 0
 145 -12 41 96 41 265 c 0
 41 395 98 516 196 597 c 0
 265 653 349 683 441 683 c 0
 497 683 557 672 622 649 c 1
EndSplineSet
Substitution2: "'c2sc' Capitals to Small Capitals in Latin lookup 6 subtable" c.sc
Position2: "'cpsp' Capital Spacing in Latin lookup 2 subtable" dx=7 dy=0 dh=14 dv=0
EndChar

StartChar: D
Encoding: 68 68 37
Width: 671
GlyphClass: 2
Flags: MW
HStem: 0 38<-28 183 -28 -28> 0 47<140 183> 625 46<249 249 249 303> 633 38<84 311>
VStem: 526 97<374 493.5>
AnchorPoint: "Anchor-2" 234 0 basechar 0
AnchorPoint: "Anchor-1" 367 682 basechar 0
LayerCount: 2
Fore
SplineSet
84 671 m 1x98
 311 671 l 2
 516 671 623 581 623 416 c 0
 623 299 578 189 499 111 c 0
 420 33 320 0 183 0 c 2x68
 -28 0 l 1
 -28 38 l 1
 36 44 l 1
 52 58 l 1
 159 613 l 1
 149 628 l 1
 84 633 l 1
 84 671 l 1x98
249 625 m 1
 140 47 l 1
 195 47 l 2
 304 47 388 84 440 152 c 0
 491 219 526 322 526 426 c 0
 526 561 453 625 303 625 c 2
 249 625 l 1
EndSplineSet
Substitution2: "'c2sc' Capitals to Small Capitals in Latin lookup 6 subtable" d.sc
Position2: "'cpsp' Capital Spacing in Latin lookup 2 subtable" dx=7 dy=0 dh=14 dv=0
EndChar

StartChar: E
Encoding: 69 69 38
Width: 546
GlyphClass: 2
Flags: MW
HStem: 0 38<-24 460 -24 -24> 0 46<139 394 139 460> 325 47<202 346 193 354> 625 46<251 466 251 251> 633 38<88 553>
VStem: 354 41<239 239> 394 43<459 459> 477 48<525 610>
AnchorPoint: "Anchor-3" 209 0 basechar 0
AnchorPoint: "Anchor-2" 209 0 basechar 0
AnchorPoint: "Anchor-1" 342 682 basechar 0
LayerCount: 2
Fore
SplineSet
88 671 m 1xab
 553 671 l 1xab
 525 525 l 1
 477 525 l 1
 477 610 l 1
 466 625 l 1
 251 625 l 1
 202 372 l 1
 354 372 l 1x35
 372 386 l 1
 394 459 l 1
 437 459 l 1x33
 395 239 l 1
 354 239 l 1x35
 358 311 l 1
 346 325 l 1
 193 325 l 1
 139 46 l 1
 394 46 l 1x73
 412 62 l 1
 446 163 l 1
 492 163 l 1
 460 0 l 1
 -24 0 l 1
 -24 38 l 1
 39 44 l 1
 56 58 l 1
 163 613 l 1
 152 628 l 1
 88 633 l 1
 88 671 l 1xab
EndSplineSet
Substitution2: "'c2sc' Capitals to Small Capitals in Latin lookup 6 subtable" e.sc
Position2: "'cpsp' Capital Spacing in Latin lookup 2 subtable" dx=7 dy=0 dh=14 dv=0
EndChar

StartChar: F
Encoding: 70 70 39
Width: 509
GlyphClass: 2
Flags: MW
HStem: 0 40<-26 225> 315 46<199 331 190 340> 625 46<249 451 249 249> 633 38<86 540>
VStem: 339 43<228 228> 381 44<448 448> 461 48<514 609>
AnchorPoint: "Anchor-2" 183 0 basechar 0
AnchorPoint: "Anchor-1" 315 682 basechar 0
LayerCount: 2
Fore
SplineSet
86 671 m 1xda
 540 671 l 1xda
 509 514 l 1
 461 514 l 1
 461 609 l 1
 451 625 l 1
 249 625 l 1
 199 361 l 1
 340 361 l 1
 358 376 l 1
 381 448 l 1
 425 448 l 1xe6
 382 228 l 1
 339 228 l 1
 343 300 l 1
 331 315 l 1
 190 315 l 1
 141 60 l 1
 155 45 l 1
 225 40 l 1
 225 0 l 1
 -26 0 l 1
 -26 38 l 1
 37 43 l 1
 53 57 l 1
 160 613 l 1
 150 627 l 1
 86 633 l 1
 86 671 l 1xda
EndSplineSet
Substitution2: "'c2sc' Capitals to Small Capitals in Latin lookup 6 subtable" f.sc
Position2: "'cpsp' Capital Spacing in Latin lookup 2 subtable" dx=7 dy=0 dh=14 dv=0
EndChar

StartChar: G
Encoding: 71 71 40
Width: 664
GlyphClass: 2
Flags: MW
HStem: -12 49<277 339.5> 283 39<404 650 404 650> 635 49<417 467.5>
VStem: 39 97<187.5 317.5 187.5 330.5> 557 53<495 495>
AnchorPoint: "Anchor-2" 314 0 basechar 0
AnchorPoint: "Anchor-1" 458 682 basechar 0
LayerCount: 2
Fore
SplineSet
639 654 m 1
 610 495 l 1
 557 495 l 1
 560 589 l 1
 551 610 l 1
 519 626 485 635 450 635 c 0
 384 635 320 610 267 565 c 0
 186 496 136 383 136 252 c 0
 136 123 218 37 336 37 c 0
 363 37 398 42 441 51 c 1
 479 264 l 1
 469 278 l 1
 404 283 l 1
 404 322 l 1
 650 322 l 1
 650 283 l 1
 586 278 l 1
 570 264 l 1
 523 23 l 1
 438 -1 367 -12 312 -12 c 0
 147 -12 39 99 39 266 c 0
 39 395 98 516 201 596 c 0
 275 653 363 684 459 684 c 0
 532 684 593 672 639 654 c 1
EndSplineSet
Substitution2: "'c2sc' Capitals to Small Capitals in Latin lookup 6 subtable" g.sc
Position2: "'cpsp' Capital Spacing in Latin lookup 2 subtable" dx=7 dy=0 dh=14 dv=0
EndChar

StartChar: H
Encoding: 72 72 41
Width: 712
GlyphClass: 2
Flags: MW
HStem: 0 38<-28 215 -28 -28> 328 46<200 516 191 526> 633 38<84 328 84 328>
AnchorPoint: "Anchor-2" 290 0 basechar 0
AnchorPoint: "Anchor-1" 422 682 basechar 0
LayerCount: 2
Fore
SplineSet
84 671 m 1
 328 671 l 1
 328 633 l 1
 262 628 l 1
 247 613 l 1
 200 374 l 1
 526 374 l 1
 573 613 l 1
 561 628 l 1
 497 633 l 1
 497 671 l 1
 741 671 l 1
 741 633 l 1
 675 628 l 1
 659 613 l 1
 553 58 l 1
 563 44 l 1
 627 38 l 1
 627 0 l 1
 385 0 l 1
 385 38 l 1
 450 44 l 1
 465 58 l 1
 516 328 l 1
 191 328 l 1
 139 58 l 1
 151 44 l 1
 215 38 l 1
 215 0 l 1
 -28 0 l 1
 -28 38 l 1
 36 44 l 1
 52 58 l 1
 159 613 l 1
 149 628 l 1
 84 633 l 1
 84 671 l 1
EndSplineSet
Substitution2: "'c2sc' Capitals to Small Capitals in Latin lookup 6 subtable" h.sc
Position2: "'cpsp' Capital Spacing in Latin lookup 2 subtable" dx=7 dy=0 dh=14 dv=0
EndChar

StartChar: I
Encoding: 73 73 42
Width: 312
GlyphClass: 2
Flags: MW
HStem: 0 38<-23 221 -23 -23> 633 38<89 333 89 333>
AnchorPoint: "Anchor-3" 90 0 basechar 0
AnchorPoint: "Anchor-2" 88 0 basechar 0
AnchorPoint: "Anchor-1" 221 682 basechar 0
LayerCount: 2
Fore
SplineSet
89 671 m 1
 333 671 l 1
 333 633 l 1
 267 628 l 1
 251 613 l 1
 144 58 l 1
 156 44 l 1
 221 38 l 1
 221 0 l 1
 -23 0 l 1
 -23 38 l 1
 41 44 l 1
 57 58 l 1
 164 613 l 1
 153 628 l 1
 89 633 l 1
 89 671 l 1
EndSplineSet
Substitution2: "'c2sc' Capitals to Small Capitals in Latin lookup 6 subtable" i.sc
Position2: "'cpsp' Capital Spacing in Latin lookup 2 subtable" dx=7 dy=0 dh=14 dv=0
EndChar

StartChar: J
Encoding: 74 74 43
Width: 447
GlyphClass: 2
Flags: MW
HStem: -12 48<83.5 134.5 83.5 157> 633 38<228 471 228 471>
VStem: -9 50<53 180>
AnchorPoint: "Anchor-2" 152 0 basechar 0
AnchorPoint: "Anchor-1" 360 682 basechar 0
LayerCount: 2
Fore
SplineSet
228 671 m 1
 471 671 l 1
 471 633 l 1
 406 628 l 1
 390 613 l 1
 323 256 l 2
 288 69 233 -12 81 -12 c 0
 33 -12 -8 -4 -42 12 c 1
 -9 180 l 1
 41 180 l 1
 41 53 l 1
 53 40 l 1
 67 37 79 36 88 36 c 0
 181 36 205 108 233 252 c 2
 303 613 l 1
 292 628 l 1
 228 633 l 1
 228 671 l 1
EndSplineSet
Substitution2: "'c2sc' Capitals to Small Capitals in Latin lookup 6 subtable" j.sc
Position2: "'cpsp' Capital Spacing in Latin lookup 2 subtable" dx=7 dy=0 dh=14 dv=0
EndChar

StartChar: K
Encoding: 75 75 44
Width: 625
GlyphClass: 2
Flags: MW
HStem: 0 38<-30 214 -30 -30> 298 42<190 219 190 252 182 219> 633 38<82 325 82 325>
AnchorPoint: "Anchor-2" 263 0 basechar 0
AnchorPoint: "Anchor-1" 395 682 basechar 0
LayerCount: 2
Fore
SplineSet
82 671 m 1
 325 671 l 1
 325 633 l 1
 260 628 l 1
 244 613 l 1
 190 340 l 1
 219 340 l 1
 494 611 l 1
 488 627 l 1
 418 632 l 1
 418 671 l 1
 660 671 l 1
 660 631 l 1
 577 625 l 1
 314 368 l 1
 456 92 l 2
 477 51 494 38 554 38 c 2
 574 38 l 1
 574 0 l 1
 528 -3 497 -4 484 -4 c 0
 413 -4 398 10 368 69 c 2
 252 298 l 1
 182 298 l 1
 136 58 l 1
 149 44 l 1
 214 38 l 1
 214 0 l 1
 -30 0 l 1
 -30 38 l 1
 34 44 l 1
 50 58 l 1
 157 613 l 1
 146 628 l 1
 82 633 l 1
 82 671 l 1
EndSplineSet
Substitution2: "'c2sc' Capitals to Small Capitals in Latin lookup 6 subtable" k.sc
Position2: "'cpsp' Capital Spacing in Latin lookup 2 subtable" dx=7 dy=0 dh=14 dv=0
EndChar

StartChar: L
Encoding: 76 76 45
Width: 498
GlyphClass: 2
Flags: MW
HStem: 0 38<-28 418 -28 -28> 0 46<136 348 136 418> 633 38<84 327 84 327>
VStem: 405 48<182 182>
AnchorPoint: "Anchor-2" 186 0 basechar 0
AnchorPoint: "Anchor-1" 318 682 basechar 0
LayerCount: 2
Fore
SplineSet
84 671 m 1xb0
 327 671 l 1
 327 633 l 1
 262 628 l 1
 246 613 l 1
 136 46 l 1
 348 46 l 1x70
 366 62 l 1
 405 182 l 1
 453 182 l 1
 418 0 l 1
 -28 0 l 1
 -28 38 l 1
 36 43 l 1
 52 58 l 1
 159 613 l 1
 149 628 l 1
 84 633 l 1
 84 671 l 1xb0
EndSplineSet
Substitution2: "'c2sc' Capitals to Small Capitals in Latin lookup 6 subtable" l.sc
Position2: "'cpsp' Capital Spacing in Latin lookup 2 subtable" dx=7 dy=0 dh=14 dv=0
EndChar

StartChar: M
Encoding: 77 77 46
Width: 839
GlyphClass: 2
Flags: MW
HStem: 0 38<-27 181 -27 -27> 633 38<84 288>
AnchorPoint: "Anchor-2" 354 0 basechar 0
AnchorPoint: "Anchor-1" 486 682 basechar 0
LayerCount: 2
Fore
SplineSet
84 671 m 1
 288 671 l 1
 288 644 l 1
 379 135 l 1
 659 640 l 1
 659 671 l 1
 867 671 l 1
 867 633 l 1
 804 628 l 1
 788 613 l 1
 682 58 l 1
 692 44 l 1
 756 38 l 1
 756 0 l 1
 519 0 l 1
 519 38 l 1
 591 44 l 1
 601 58 l 1
 708 619 l 1
 363 0 l 1
 319 0 l 1
 211 616 l 1
 107 58 l 1
 122 44 l 1
 181 38 l 1
 181 0 l 1
 -27 0 l 1
 -27 38 l 1
 36 44 l 1
 52 58 l 1
 158 613 l 1
 147 628 l 1
 84 633 l 1
 84 671 l 1
EndSplineSet
Substitution2: "'c2sc' Capitals to Small Capitals in Latin lookup 6 subtable" m.sc
Position2: "'cpsp' Capital Spacing in Latin lookup 2 subtable" dx=7 dy=0 dh=14 dv=0
EndChar

StartChar: N
Encoding: 78 78 47
Width: 683
GlyphClass: 2
Flags: MW
HStem: 0 38<-31 180 -31 -31> 633 38<81 253>
AnchorPoint: "Anchor-2" 279 0 basechar 0
AnchorPoint: "Anchor-1" 411 682 basechar 0
LayerCount: 2
Fore
SplineSet
81 671 m 1
 253 671 l 1
 253 646 l 1
 492 139 l 1
 584 613 l 1
 574 628 l 1
 510 633 l 1
 510 671 l 1
 720 671 l 1
 720 633 l 1
 656 628 l 1
 640 613 l 1
 523 0 l 1
 465 0 l 1
 202 556 l 1
 105 58 l 1
 116 44 l 1
 180 38 l 1
 180 0 l 1
 -31 0 l 1
 -31 38 l 1
 33 44 l 1
 49 58 l 1
 156 613 l 1
 146 628 l 1
 81 633 l 1
 81 671 l 1
EndSplineSet
Substitution2: "'c2sc' Capitals to Small Capitals in Latin lookup 6 subtable" n.sc
Position2: "'cpsp' Capital Spacing in Latin lookup 2 subtable" dx=7 dy=0 dh=14 dv=0
EndChar

StartChar: O
Encoding: 79 79 48
Width: 708
GlyphClass: 2
Flags: MW
HStem: -12 48<258.5 344.5 258.5 357> 636 46<364 436.5 354 450>
VStem: 41 96<186 302 186 311> 571 98<369.5 464 364 487>
AnchorPoint: "Anchor-3" 307 0 basechar 0
AnchorPoint: "Anchor-2" 307 0 basechar 0
AnchorPoint: "Anchor-1" 405 682 basechar 0
LayerCount: 2
Fore
SplineSet
405 682 m 0
 468 682 522 665 562 636 c 0
 630 586 669 508 669 420 c 0
 669 308 636 206 577 129 c 0
 508 39 409 -12 305 -12 c 0
 150 -12 41 100 41 259 c 0
 41 363 74 461 135 541 c 0
 203 631 303 682 405 682 c 0
571 419 m 0
 571 555 502 636 398 636 c 0
 330 636 267 598 216 523 c 0
 167 451 137 351 137 253 c 0
 137 119 207 36 310 36 c 0
 379 36 441 74 492 149 c 0
 540 220 571 320 571 419 c 0
EndSplineSet
Substitution2: "'c2sc' Capitals to Small Capitals in Latin lookup 6 subtable" o.sc
Position2: "'cpsp' Capital Spacing in Latin lookup 2 subtable" dx=7 dy=0 dh=14 dv=0
EndChar

StartChar: P
Encoding: 80 80 49
Width: 542
GlyphClass: 2
Flags: MW
HStem: 0 38<-28 209 -28 -28> 252 47<230.5 297.5 219.5 332> 628 43<148 148 282.5 297 297 324 84 344>
VStem: 450 93<437 542.5>
AnchorPoint: "Anchor-2" 183 0 basechar 0
AnchorPoint: "Anchor-1" 316 682 basechar 0
LayerCount: 2
Fore
SplineSet
84 671 m 1
 297 671 l 2
 351 671 400 670 447 653 c 0
 505 632 543 577 543 513 c 0
 543 361 426 252 238 252 c 0
 223 252 203 253 176 254 c 1
 138 58 l 1
 145 44 l 1
 209 38 l 1
 209 0 l 1
 -28 0 l 1
 -28 38 l 1
 36 44 l 1
 52 58 l 1
 159 613 l 1
 148 628 l 1
 84 633 l 1
 84 671 l 1
248 626 m 1
 185 301 l 1
 199 300 213 299 226 299 c 0
 369 299 450 373 450 497 c 0
 450 588 399 628 289 628 c 0
 276 628 262 627 248 626 c 1
EndSplineSet
Substitution2: "'c2sc' Capitals to Small Capitals in Latin lookup 6 subtable" p.sc
Position2: "'cpsp' Capital Spacing in Latin lookup 2 subtable" dx=7 dy=0 dh=14 dv=0
EndChar

StartChar: Q
Encoding: 81 81 50
Width: 708
GlyphClass: 2
Flags: MW
HStem: -160 54<558.5 563.5> -12 48<258.5 310> 636 46<364.5 437.5 355 451>
VStem: 40 96<187.5 301.5 187.5 310> 571 98<369.5 463 329.5 486.5>
AnchorPoint: "Anchor-2" 247 -218 basechar 0
AnchorPoint: "Anchor-1" 407 682 basechar 0
LayerCount: 2
Fore
SplineSet
700 -80 m 1
 700 -114 l 1
 639 -143 587 -160 540 -160 c 0
 456 -160 406 -113 360 -8 c 1
 337 -11 318 -12 302 -12 c 0
 153 -12 40 102 40 258 c 0
 40 362 74 461 135 541 c 0
 204 631 303 682 407 682 c 0
 468 682 521 665 562 635 c 0
 629 586 669 507 669 419 c 0
 669 240 588 95 448 19 c 1
 494 -69 523 -106 594 -106 c 0
 616 -106 654 -99 700 -80 c 1
136 253 m 0
 136 122 207 36 310 36 c 0
 379 36 441 74 492 149 c 0
 540 220 571 320 571 419 c 0
 571 554 503 636 399 636 c 0
 330 636 268 598 216 523 c 0
 167 452 136 350 136 253 c 0
EndSplineSet
Substitution2: "'c2sc' Capitals to Small Capitals in Latin lookup 6 subtable" q.sc
Position2: "'cpsp' Capital Spacing in Latin lookup 2 subtable" dx=7 dy=0 dh=14 dv=0
EndChar

StartChar: R
Encoding: 82 82 51
Width: 602
GlyphClass: 2
Flags: MW
HStem: 0 38<-29 215 -29 -29> 299 45<232 253.5> 626 45<283.5 329 329 342.5> 633 38<76 329>
VStem: 445 95<474 550>
AnchorPoint: "Anchor-2" 183 0 basechar 0
AnchorPoint: "Anchor-1" 316 682 basechar 0
LayerCount: 2
Fore
SplineSet
76 671 m 1xd8
 329 671 l 2xe8
 471 671 540 628 540 525 c 0
 540 423 469 345 341 317 c 1
 429 298 437 233 464 139 c 0
 485 63 504 38 581 38 c 2
 590 38 l 1
 590 1 l 1
 559 -3 536 -5 520 -5 c 0
 478 -5 447 4 428 20 c 0
 392 50 383 102 368 170 c 0
 355 228 349 268 298 291 c 0
 286 297 267 299 240 299 c 0
 224 299 206 298 185 297 c 1
 138 57 l 1
 150 43 l 1
 215 38 l 1
 215 0 l 1
 -29 0 l 1
 -29 38 l 1
 35 43 l 1
 51 57 l 1
 158 613 l 1
 147 627 l 1
 76 633 l 1
 76 671 l 1xd8
194 345 m 1
 207 344 219 344 231 344 c 0
 370 344 445 407 445 510 c 0
 445 590 395 626 290 626 c 0
 277 626 263 625 248 624 c 1
 194 345 l 1
EndSplineSet
Substitution2: "'c2sc' Capitals to Small Capitals in Latin lookup 6 subtable" r.sc
Position2: "'cpsp' Capital Spacing in Latin lookup 2 subtable" dx=7 dy=0 dh=14 dv=0
EndChar

StartChar: S
Encoding: 83 83 52
Width: 537
GlyphClass: 2
Flags: MW
HStem: -12 48<186.5 257 186.5 273> 637 45<293.5 354.5>
VStem: 42 52<193 193> 97 85<466.5 530> 376 88<141 214> 435 44<501 501>
AnchorPoint: "Anchor-2" 195 0 basechar 0
AnchorPoint: "Anchor-1" 344 682 basechar 0
LayerCount: 2
Fore
SplineSet
511 653 m 1xf8
 479 501 l 1
 435 501 l 1xf4
 439 600 l 1
 427 618 l 1
 398 631 369 637 340 637 c 0
 247 637 182 577 182 503 c 0
 182 430 230 411 314 372 c 0
 412 326 464 287 464 202 c 0
 464 80 353 -12 193 -12 c 0
 127 -12 65 3 9 34 c 1
 42 193 l 1
 94 193 l 1
 84 78 l 1
 94 65 l 1
 132 46 168 36 205 36 c 0
 309 36 376 94 376 182 c 0
 376 246 331 263 266 296 c 0
 161 350 97 389 97 470 c 0
 97 590 195 682 344 682 c 0
 401 682 457 673 511 653 c 1xf8
EndSplineSet
Substitution2: "'c2sc' Capitals to Small Capitals in Latin lookup 6 subtable" s.sc
Position2: "'cpsp' Capital Spacing in Latin lookup 2 subtable" dx=7 dy=0 dh=14 dv=0
EndChar

StartChar: T
Encoding: 84 84 53
Width: 565
GlyphClass: 2
Flags: MW
HStem: 0 38<101 345 101 101> 522 149<72 98 43 610 526 580 526 526> 630 41<147 288 147 147 377 519 377 377>
VStem: 526 54<522 522>
AnchorPoint: "Anchor-2" 211 0 basechar 0
AnchorPoint: "Anchor-1" 343 682 basechar 0
LayerCount: 2
Fore
SplineSet
72 671 m 1xd0
 610 671 l 1xb0
 580 522 l 1
 526 522 l 1xd0
 530 615 l 1
 519 630 l 1
 377 630 l 1
 267 58 l 1
 280 44 l 1
 345 38 l 1
 345 0 l 1
 101 0 l 1
 101 38 l 1
 165 44 l 1
 181 58 l 1
 288 630 l 1
 147 630 l 1xb0
 130 615 l 1
 98 522 l 1
 43 522 l 1
 72 671 l 1xd0
EndSplineSet
Substitution2: "'c2sc' Capitals to Small Capitals in Latin lookup 6 subtable" t.sc
Position2: "'cpsp' Capital Spacing in Latin lookup 2 subtable" dx=7 dy=0 dh=14 dv=0
EndChar

StartChar: U
Encoding: 85 85 54
Width: 664
GlyphClass: 2
Flags: MW
HStem: -11 61<251 313.5> 633 38<73 316 73 316>
VStem: 64 91<134 163.5>
AnchorPoint: "Anchor-3" 271 0 basechar 0
AnchorPoint: "Anchor-2" 271 0 basechar 0
AnchorPoint: "Anchor-1" 399 682 basechar 0
LayerCount: 2
Fore
SplineSet
73 671 m 1
 316 671 l 1
 316 633 l 1
 251 628 l 1
 235 613 l 1
 164 249 l 2
 158 218 155 192 155 174 c 0
 155 94 205 50 297 50 c 0
 421 50 475 114 501 249 c 2
 572 613 l 1
 560 628 l 1
 495 633 l 1
 495 671 l 1
 704 671 l 1
 704 633 l 1
 641 628 l 1
 624 613 l 1
 551 240 l 2
 538 174 527 116 477 64 c 0
 431 17 358 -11 269 -11 c 0
 136 -11 64 46 64 152 c 0
 64 175 69 204 76 240 c 2
 148 613 l 1
 137 628 l 1
 73 633 l 1
 73 671 l 1
EndSplineSet
Substitution2: "'c2sc' Capitals to Small Capitals in Latin lookup 6 subtable" u.sc
Position2: "'cpsp' Capital Spacing in Latin lookup 2 subtable" dx=7 dy=0 dh=14 dv=0
EndChar

StartChar: V
Encoding: 86 86 55
Width: 590
GlyphClass: 2
Flags: MW
HStem: -5 21G<191 253 191 191> 633 38<31 240 31 240>
AnchorPoint: "Anchor-2" 223 0 basechar 0
AnchorPoint: "Anchor-1" 354 682 basechar 0
LayerCount: 2
Fore
SplineSet
31 671 m 1
 240 671 l 1
 240 633 l 1
 184 628 l 1
 177 613 l 1
 256 92 l 1
 527 613 l 1
 519 628 l 1
 461 633 l 1
 461 671 l 1
 649 671 l 1
 649 633 l 1
 596 627 l 1
 253 -5 l 1
 191 -5 l 1
 94 610 l 1
 78 628 l 1
 31 633 l 1
 31 671 l 1
EndSplineSet
Substitution2: "'c2sc' Capitals to Small Capitals in Latin lookup 6 subtable" v.sc
Position2: "'cpsp' Capital Spacing in Latin lookup 2 subtable" dx=7 dy=0 dh=14 dv=0
EndChar

StartChar: W
Encoding: 87 87 56
Width: 898
GlyphClass: 2
Flags: MW
HStem: 0 21G<166 229 166 166 543 600 543 543> 633 38<51 265 51 265>
AnchorPoint: "Anchor-2" 382 0 basechar 0
AnchorPoint: "Anchor-1" 514 682 basechar 0
LayerCount: 2
Fore
SplineSet
51 671 m 1
 265 671 l 1
 265 633 l 1
 208 628 l 1
 201 613 l 1
 238 142 l 1
 486 671 l 1
 551 671 l 1
 607 135 l 1
 826 613 l 1
 818 628 l 1
 759 633 l 1
 759 671 l 1
 951 671 l 1
 951 633 l 1
 893 627 l 1
 600 0 l 1
 543 0 l 1
 484 549 l 1
 229 0 l 1
 166 0 l 1
 116 610 l 1
 99 628 l 1
 51 633 l 1
 51 671 l 1
EndSplineSet
Substitution2: "'c2sc' Capitals to Small Capitals in Latin lookup 6 subtable" w.sc
Position2: "'cpsp' Capital Spacing in Latin lookup 2 subtable" dx=7 dy=0 dh=14 dv=0
EndChar

StartChar: X
Encoding: 88 88 57
Width: 569
GlyphClass: 2
Flags: MW
HStem: 0 38<-83 144 -83 -83> 633 38<54 297 54 297>
AnchorPoint: "Anchor-2" 222 0 basechar 0
AnchorPoint: "Anchor-1" 354 682 basechar 0
LayerCount: 2
Fore
SplineSet
54 671 m 1
 297 671 l 1
 297 633 l 1
 231 628 l 1
 216 613 l 1
 305 406 l 1
 487 613 l 1
 481 628 l 1
 424 633 l 1
 424 671 l 1
 632 671 l 1
 632 633 l 1
 562 628 l 1
 328 360 l 1
 460 58 l 1
 470 44 l 1
 534 38 l 1
 534 0 l 1
 292 0 l 1
 292 38 l 1
 357 44 l 1
 373 58 l 1
 275 288 l 1
 69 58 l 1
 79 44 l 1
 144 38 l 1
 144 0 l 1
 -83 0 l 1
 -83 38 l 1
 -18 44 l 1
 -1 58 l 1
 248 340 l 1
 128 613 l 1
 118 628 l 1
 54 633 l 1
 54 671 l 1
EndSplineSet
Substitution2: "'c2sc' Capitals to Small Capitals in Latin lookup 6 subtable" x.sc
Position2: "'cpsp' Capital Spacing in Latin lookup 2 subtable" dx=7 dy=0 dh=14 dv=0
EndChar

StartChar: Y
Encoding: 89 89 58
Width: 562
GlyphClass: 2
Flags: MW
HStem: 0 38<97 340 97 97> 633 38<31 274 31 274>
AnchorPoint: "Anchor-2" 207 0 basechar 0
AnchorPoint: "Anchor-1" 339 682 basechar 0
LayerCount: 2
Fore
SplineSet
31 671 m 1
 274 671 l 1
 274 633 l 1
 209 628 l 1
 193 613 l 1
 283 330 l 1
 492 613 l 1
 482 628 l 1
 418 633 l 1
 418 671 l 1
 642 671 l 1
 642 633 l 1
 576 628 l 1
 560 613 l 1
 306 281 l 1
 262 58 l 1
 275 44 l 1
 340 38 l 1
 340 0 l 1
 97 0 l 1
 97 38 l 1
 160 44 l 1
 176 58 l 1
 218 272 l 1
 106 613 l 1
 96 628 l 1
 31 633 l 1
 31 671 l 1
EndSplineSet
Substitution2: "'c2sc' Capitals to Small Capitals in Latin lookup 6 subtable" y.sc
Position2: "'cpsp' Capital Spacing in Latin lookup 2 subtable" dx=7 dy=0 dh=14 dv=0
EndChar

StartChar: Z
Encoding: 90 90 59
Width: 556
GlyphClass: 2
Flags: MW
HStem: 0 49<90 376 90 445> 623 48<206 454 206 206>
AnchorPoint: "Anchor-2" 210 0 basechar 0
AnchorPoint: "Anchor-1" 342 682 basechar 0
LayerCount: 2
Fore
SplineSet
128 671 m 1
 572 671 l 1
 563 629 l 1
 90 49 l 1
 376 49 l 1
 390 62 l 1
 430 181 l 1
 479 181 l 1
 445 0 l 1
 -25 0 l 1
 -18 41 l 1
 454 623 l 1
 206 623 l 1
 184 610 l 1
 150 516 l 1
 98 516 l 1
 128 671 l 1
EndSplineSet
Substitution2: "'c2sc' Capitals to Small Capitals in Latin lookup 6 subtable" z.sc
Position2: "'cpsp' Capital Spacing in Latin lookup 2 subtable" dx=7 dy=0 dh=14 dv=0
EndChar

StartChar: bracketleft
Encoding: 91 91 60
Width: 421
GlyphClass: 2
Flags: MW
HStem: -133 43<136 286> 665 43<281 439 281 281>
LayerCount: 2
Fore
SplineSet
210 708 m 1
 447 708 l 1
 439 665 l 1
 281 665 l 1
 136 -90 l 1
 294 -90 l 1
 286 -133 l 1
 49 -133 l 1
 210 708 l 1
EndSplineSet
Substitution2: "'ss05' Style Set 5 lookup 18 subtable" bracketleft.up
EndChar

StartChar: backslash
Encoding: 92 92 61
Width: 481
GlyphClass: 2
Flags: MW
HStem: 651 20G<35 92 92 92>
LayerCount: 2
Fore
SplineSet
92 671 m 1
 488 -93 l 1
 432 -93 l 1
 35 671 l 1
 92 671 l 1
EndSplineSet
EndChar

StartChar: bracketright
Encoding: 93 93 62
Width: 421
GlyphClass: 2
Flags: MW
HStem: -133 43<-36 122 -36 193 -44 122> 665 43<117 267 109 354>
LayerCount: 2
Fore
SplineSet
117 708 m 1
 354 708 l 1
 193 -133 l 1
 -44 -133 l 1
 -36 -90 l 1
 122 -90 l 1
 267 665 l 1
 109 665 l 1
 117 708 l 1
EndSplineSet
Substitution2: "'ss05' Style Set 5 lookup 18 subtable" bracketright.up
EndChar

StartChar: asciicircum
Encoding: 94 94 63
Width: 1000
GlyphClass: 2
Flags: MW
HStem: 438 276<201 543 201 543 456 797 456 752>
LayerCount: 2
Fore
SplineSet
456 714 m 1
 543 714 l 1
 797 438 l 1
 752 438 l 1
 499 651 l 1
 245 438 l 1
 201 438 l 1
 456 714 l 1
EndSplineSet
EndChar

StartChar: underscore
Encoding: 95 95 64
Width: 500
GlyphClass: 2
Flags: MW
HStem: -236 58<0 500 0 500>
LayerCount: 2
Fore
SplineSet
0 -178 m 1
 500 -178 l 1
 500 -236 l 1
 0 -236 l 1
 0 -178 l 1
EndSplineSet
EndChar

StartChar: grave
Encoding: 96 96 65
Width: 500
GlyphClass: 2
Flags: MW
HStem: 546 190<181 340 181 290>
VStem: 181 159
LayerCount: 2
Fore
SplineSet
181 736 m 1
 280 736 l 1
 340 546 l 1
 290 546 l 1
 181 736 l 1
EndSplineSet
EndChar

StartChar: a
Encoding: 97 97 66
Width: 525
GlyphClass: 2
Flags: MW
HStem: -9 61<158 179> 443 39<250.5 303 303 314 250.5 317>
VStem: 17 83<132 199.5>
AnchorPoint: "Anchor-3" 367 0 basechar 0
AnchorPoint: "Anchor-2" 287 0 basechar 0
AnchorPoint: "Anchor-1" 299 483 basechar 0
LayerCount: 2
Fore
SplineSet
410 482 m 1
 462 482 l 1
 452 461 439 413 424 339 c 2
 388 162 l 2
 381 129 378 106 378 92 c 0
 378 60 395 46 432 46 c 0
 443 46 461 50 488 56 c 1
 488 26 l 1
 433 3 392 -9 365 -9 c 0
 323 -9 304 16 304 67 c 2
 304 75 l 1
 251 19 203 -9 155 -9 c 0
 70 -9 17 56 17 166 c 0
 17 233 35 295 69 351 c 0
 120 435 201 482 300 482 c 0
 328 482 359 475 390 460 c 1
 410 482 l 1
317 443 m 1
 303 443 l 2
 186 443 100 331 100 172 c 0
 100 92 129 52 187 52 c 0
 225 52 264 74 305 118 c 1
 357 382 l 1
 317 443 l 1
EndSplineSet
Substitution2: "'smcp' Lowercase to Small Capitals in Latin lookup 4 subtable" a.sc
EndChar

StartChar: b
Encoding: 98 98 67
Width: 507
GlyphClass: 2
Flags: MW
HStem: -9 41<182.5 215> 423 61<302 311.5> 681 25<55 55> 716 20G<207 240 240 240>
VStem: 370 82<271 339.5>
AnchorPoint: "Anchor-2" 207 0 basechar 0
AnchorPoint: "Anchor-1" 350 736 basechar 0
LayerCount: 2
Fore
SplineSet
207 736 m 1
 240 736 l 1
 231 708 223 678 217 644 c 2
 174 409 l 1
 233 459 282 484 322 484 c 0
 397 484 452 417 452 314 c 0
 452 228 425 148 374 86 c 0
 323 24 253 -9 177 -9 c 0
 124 -9 73 5 25 35 c 1
 142 665 l 1
 55 681 l 1
 55 706 l 1
 207 736 l 1
110 72 m 1
 137 45 166 32 199 32 c 0
 241 32 280 58 314 109 c 0
 346 157 370 232 370 301 c 0
 370 378 336 423 287 423 c 0
 251 423 215 403 167 370 c 1
 110 72 l 1
EndSplineSet
Substitution2: "'smcp' Lowercase to Small Capitals in Latin lookup 4 subtable" b.sc
EndChar

StartChar: c
Encoding: 99 99 68
Width: 394
GlyphClass: 2
Flags: MW
HStem: -10 60<163 192.5> 87 46<350 350> 436 49<203.5 304.5 246 249>
VStem: 15 79<142.5 216.5>
AnchorPoint: "Anchor-2" 165 0 basechar 0
AnchorPoint: "Anchor-1" 277 483 basechar 0
LayerCount: 2
Fore
SplineSet
307 360 m 1
 249 436 l 1
 244 436 l 2
 163 436 94 335 94 186 c 0
 94 99 132 50 194 50 c 0
 240 50 296 78 350 133 c 1
 350 87 l 1
 288 22 222 -10 163 -10 c 0
 75 -10 15 59 15 172 c 0
 15 261 45 340 98 398 c 0
 149 454 215 485 277 485 c 0
 332 485 370 453 370 415 c 0
 370 384 345 361 307 360 c 1
EndSplineSet
Substitution2: "'smcp' Lowercase to Small Capitals in Latin lookup 4 subtable" c.sc
EndChar

StartChar: d
Encoding: 100 100 69
Width: 523
GlyphClass: 2
Flags: MW
HStem: -9 57<162 178.5> -7 48<351 438.5> 447 39<253.5 292.5> 679 28<322 322> 716 20G<475 501 501 501>
VStem: 21 81<131.5 204> 307 81<39.5 89.5>
AnchorPoint: "Anchor-2" 237 0 basechar 0
AnchorPoint: "Anchor-1" 315 736 basechar 0
LayerCount: 2
Fore
SplineSet
475 736 m 1xbe
 501 736 l 1
 394 137 l 2
 390 115 388 96 388 83 c 0
 388 55 402 41 432 41 c 0
 445 41 467 45 497 52 c 1
 497 22 l 1
 442 2 400 -7 374 -7 c 0x7e
 328 -7 307 15 307 64 c 0
 307 70 307 77 308 84 c 1
 259 22 205 -9 152 -9 c 0
 72 -9 21 56 21 170 c 0
 21 238 38 300 70 351 c 0
 124 436 212 486 295 486 c 0
 322 486 348 481 375 469 c 1
 410 669 l 1
 322 679 l 1
 322 707 l 1
 475 736 l 1xbe
313 444 m 1
 304 445 296 447 289 447 c 0
 199 447 102 338 102 171 c 0
 102 92 136 48 188 48 c 0xbe
 225 48 271 76 316 133 c 1
 361 387 l 1
 313 444 l 1
EndSplineSet
Substitution2: "'smcp' Lowercase to Small Capitals in Latin lookup 4 subtable" d.sc
EndChar

StartChar: e
Encoding: 101 101 70
Width: 424
GlyphClass: 2
Flags: MW
HStem: -9 55<174 205> 81 47<366 366> 440 42<250.5 268.5>
VStem: 21 81<135.5 184 135.5 215> 306 72<354.5 401.5>
AnchorPoint: "Anchor-3" 174 0 basechar 0
AnchorPoint: "Anchor-2" 174 0 basechar 0
AnchorPoint: "Anchor-1" 275 483 basechar 0
LayerCount: 2
Fore
SplineSet
110 256 m 1
 235 263 306 323 306 386 c 0
 306 417 283 440 254 440 c 0
 196 440 139 377 110 256 c 1
105 222 m 1
 103 208 102 192 102 176 c 0
 102 95 142 46 206 46 c 0
 252 46 308 74 366 128 c 1
 366 81 l 1
 304 21 238 -9 172 -9 c 0
 78 -9 21 57 21 173 c 0
 21 257 54 341 110 400 c 0
 161 453 226 482 275 482 c 0
 338 482 378 443 378 383 c 0
 378 298 283 234 105 222 c 1
EndSplineSet
Substitution2: "'smcp' Lowercase to Small Capitals in Latin lookup 4 subtable" e.sc
EndChar

StartChar: f
Encoding: 102 102 71
Width: 292
GlyphClass: 2
Flags: MW
HStem: -216 93<-129 -73> 410 45<182 323 182 323 174 323> 712 20G<273.5 344>
AnchorPoint: "Anchor-2" -79 -218 basechar 0
AnchorPoint: "Anchor-1" 307 736 basechar 0
LayerCount: 2
Fore
SplineSet
354 621 m 1
 272 688 l 1
 234 663 204 585 182 455 c 1
 323 455 l 1
 323 410 l 1
 174 410 l 1
 134 126 l 2
 121 34 103 -41 59 -103 c 0
 6 -178 -49 -216 -97 -216 c 0
 -129 -216 -151 -195 -151 -163 c 0
 -151 -147 -143 -133 -129 -123 c 1
 -25 -150 l 1
 22 -101 39 -10 58 123 c 2
 100 410 l 1
 33 403 l 1
 34 436 l 1
 110 467 l 1
 143 639 227 732 320 732 c 0
 368 732 403 703 403 673 c 0
 403 647 385 627 354 621 c 1
EndSplineSet
Substitution2: "'smcp' Lowercase to Small Capitals in Latin lookup 4 subtable" f.sc
EndChar

StartChar: g
Encoding: 103 103 72
Width: 481
GlyphClass: 2
Flags: MW
HStem: -218 42<142 225.5 142 227> 160 34<197 223.5 174.5 249.5> 415 43<377 480 377 377> 446 37<214 260 189.5 264.5>
VStem: -31 78<-97 -53> 49 79<262.5 325 251 343.5> 101 61<68 108> 311 79<309.5 359.5 294 384.5> 322 77<-106 -76>
AnchorPoint: "Anchor-2" 158 -218 basechar 0
AnchorPoint: "Anchor-1" 254 483 basechar 0
LayerCount: 2
Fore
SplineSet
337 458 m 1xec
 480 458 l 1
 480 415 l 1
 377 415 l 1
 386 392 390 370 390 349 c 0xed
 390 239 301 160 198 160 c 0
 196 160 188 160 175 161 c 1
 166 144 162 127 162 108 c 2
 162 102 l 1
 321 30 l 2
 373 6 399 -26 399 -69 c 0
 399 -143 296 -218 158 -218 c 0
 41 -218 -31 -165 -31 -85 c 0
 -31 -21 12 19 102 54 c 1
 101 60 101 65 101 71 c 0xea80
 101 104 114 134 141 168 c 1
 81 192 49 236 49 289 c 0
 49 398 135 483 244 483 c 0xdc
 276 483 306 474 337 458 c 1xec
311 355 m 0
 311 414 286 446 243 446 c 0xdd
 185 446 128 372 128 278 c 0
 128 224 154 194 195 194 c 0
 252 194 311 264 311 355 c 0
139 34 m 1
 79 20 47 -14 47 -65 c 0
 47 -129 102 -176 182 -176 c 0
 269 -176 322 -134 322 -89 c 0xc880
 322 -63 304 -42 266 -25 c 2
 139 34 l 1
EndSplineSet
Substitution2: "'smcp' Lowercase to Small Capitals in Latin lookup 4 subtable" g.sc
EndChar

StartChar: h
Encoding: 104 104 73
Width: 551
GlyphClass: 2
Flags: MW
HStem: -6 49<360 456> 421 62<301.5 399> 678 25<66 66> 716 20G<223 254 254 254>
VStem: 23 85<0 0> 312 86<34 101.5> 372 85<350.5 427.5>
AnchorPoint: "Anchor-2" 202 0 basechar 0
AnchorPoint: "Anchor-1" 345 736 basechar 0
LayerCount: 2
Fore
SplineSet
223 736 m 1xfa
 254 736 l 1
 241 688 228 629 214 559 c 2
 181 388 l 1
 259 451 321 483 373 483 c 0
 425 483 457 452 457 403 c 0xfa
 457 378 451 349 443 313 c 2
 408 158 l 2
 402 131 398 110 398 93 c 0
 398 61 416 43 449 43 c 0
 463 43 482 46 505 52 c 1
 505 25 l 1
 452 4 411 -6 385 -6 c 0
 335 -6 312 13 312 55 c 0xfc
 312 68 314 86 319 108 c 2
 362 293 l 2
 369 322 372 344 372 357 c 0
 372 400 356 421 318 421 c 0
 285 421 232 395 170 339 c 1
 108 0 l 1
 23 0 l 1
 160 670 l 1
 66 678 l 1
 66 703 l 1
 223 736 l 1xfa
EndSplineSet
Substitution2: "'smcp' Lowercase to Small Capitals in Latin lookup 4 subtable" h.sc
EndChar

StartChar: i
Encoding: 105 105 74
Width: 287
GlyphClass: 2
Flags: MW
HStem: -7 51<91.5 189.5> 424 26<33 33> 462 20G<181 207 207 207> 596 108<186 215.5>
VStem: 49 83<37 86> 147 108<635 664.5 635 665>
AnchorPoint: "Anchor-3" 114 0 basechar 0
AnchorPoint: "Anchor-2" 73 0 basechar 0
AnchorPoint: "Anchor-1" 206 684 basechar 0
LayerCount: 2
Fore
SplineSet
201 704 m 0
 230 704 255 679 255 650 c 0
 255 620 230 596 201 596 c 0
 171 596 147 619 147 650 c 0
 147 680 171 704 201 704 c 0
181 482 m 1
 207 482 l 1
 135 108 l 2
 133 97 132 89 132 83 c 0
 132 57 149 44 180 44 c 0
 199 44 223 49 254 59 c 1
 254 28 l 1
 199 5 151 -7 113 -7 c 0
 70 -7 49 15 49 59 c 0
 49 71 51 89 55 111 c 2
 114 409 l 1
 33 424 l 1
 33 450 l 1
 181 482 l 1
EndSplineSet
Substitution2: "'smcp' Lowercase to Small Capitals in Latin lookup 4 subtable" i.sc
Substitution2: "'locl' Localized Forms in Latin lookup 2 subtable" i.TRK
EndChar

StartChar: j
Encoding: 106 106 75
Width: 269
GlyphClass: 2
Flags: MW
HStem: -216 93<-106 -51.5> 430 23<25 25> 462 20G<177 213 213 213> 593 108<180 209.5>
VStem: 141 108<632 662>
AnchorPoint: "Anchor-2" -48 -218 basechar 0
LayerCount: 2
Fore
SplineSet
195 701 m 0
 224 701 249 677 249 647 c 0
 249 617 224 593 195 593 c 0
 165 593 141 617 141 647 c 0
 141 677 165 701 195 701 c 0
177 482 m 1
 213 482 l 1
 157 126 l 2
 144 42 131 -34 81 -104 c 0
 28 -179 -28 -216 -75 -216 c 0
 -107 -216 -128 -195 -128 -163 c 0
 -128 -147 -120 -133 -106 -123 c 1
 -3 -150 l 1
 47 -96 61 -4 81 123 c 2
 126 418 l 1
 25 430 l 1
 25 453 l 1
 177 482 l 1
EndSplineSet
Substitution2: "'smcp' Lowercase to Small Capitals in Latin lookup 4 subtable" j.sc
EndChar

StartChar: k
Encoding: 107 107 76
Width: 514
GlyphClass: 2
Flags: MW
HStem: -5 48<356 448.5> 462 20G<407 435.5> 679 28<68 68> 716 20G<225 253 253 253>
VStem: 25 83<0 0>
AnchorPoint: "Anchor-2" 210 0 basechar 0
AnchorPoint: "Anchor-1" 353 736 basechar 0
LayerCount: 2
Fore
SplineSet
225 736 m 1
 253 736 l 1
 146 238 l 1
 331 429 l 2
 366 465 395 482 419 482 c 0
 452 482 476 460 476 431 c 0
 476 405 458 384 421 369 c 1
 385 408 l 1
 342 377 300 340 256 300 c 1
 332 128 372 43 441 43 c 0
 456 43 473 46 493 50 c 1
 493 22 l 1
 435 3 395 -5 376 -5 c 0
 336 -5 308 20 282 72 c 2
 197 244 l 1
 140 192 l 1
 108 0 l 1
 25 0 l 1
 160 674 l 1
 68 679 l 1
 68 707 l 1
 225 736 l 1
EndSplineSet
Substitution2: "'smcp' Lowercase to Small Capitals in Latin lookup 4 subtable" k.sc
EndChar

StartChar: l
Encoding: 108 108 77
Width: 275
GlyphClass: 2
Flags: MW
HStem: -9 49<83.5 178.5> 680 26<60 60> 716 20G<212 239 239 239>
VStem: 35 80<71.5 72>
AnchorPoint: "Anchor-2" 56 0 basechar 0
AnchorPoint: "Anchor-1" 199 736 basechar 0
LayerCount: 2
Fore
SplineSet
212 736 m 1
 239 736 l 1
 232 699 228 677 227 671 c 2
 126 168 l 2
 118 128 115 101 115 87 c 0
 115 56 134 40 170 40 c 0
 187 40 211 46 241 56 c 1
 241 25 l 1
 184 1 139 -9 108 -9 c 0
 59 -9 35 15 35 65 c 0
 35 79 41 118 53 180 c 2
 149 670 l 1
 60 680 l 1
 60 706 l 1
 212 736 l 1
EndSplineSet
Substitution2: "'smcp' Lowercase to Small Capitals in Latin lookup 4 subtable" l.sc
EndChar

StartChar: m
Encoding: 109 109 78
Width: 815
GlyphClass: 2
Flags: MW
HStem: -6 49<628 724> 421 61 424 26<33 33>
VStem: 32 84<0 0> 307 83<0 0> 580 86<33.5 101> 640 83<350 423.5>
AnchorPoint: "Anchor-2" 341 0 basechar 0
AnchorPoint: "Anchor-1" 435 483 basechar 0
LayerCount: 2
Fore
SplineSet
181 482 m 1xda
 206 482 l 1
 188 387 l 1
 266 451 330 482 377 482 c 0
 427 482 457 450 458 391 c 1
 531 452 593 482 641 482 c 0
 689 482 723 450 723 397 c 0xda
 723 375 719 347 711 313 c 2
 677 158 l 2
 671 131 666 109 666 93 c 0
 666 61 685 43 717 43 c 0
 731 43 750 46 773 52 c 1
 773 25 l 1
 720 5 680 -6 653 -6 c 0
 603 -6 580 13 580 54 c 0xdc
 580 66 583 85 588 108 c 2
 631 293 l 2
 638 322 640 343 640 357 c 0
 640 399 624 421 591 421 c 0
 553 421 501 394 455 340 c 1
 390 0 l 1
 307 0 l 1
 367 293 l 2
 373 325 376 348 376 362 c 0
 376 399 356 421 321 421 c 0xda
 295 421 242 396 179 339 c 1
 116 0 l 1
 32 0 l 1
 115 408 l 1
 33 424 l 1
 33 450 l 1xba
 181 482 l 1xda
EndSplineSet
Substitution2: "'smcp' Lowercase to Small Capitals in Latin lookup 4 subtable" m.sc
EndChar

StartChar: n
Encoding: 110 110 79
Width: 556
GlyphClass: 2
Flags: MW
HStem: -6 49<369.5 466> 420 62 424 25<33 33>
VStem: 32 85<0 0> 321 86<34 99.5> 381 85<350.5 426.5>
AnchorPoint: "Anchor-2" 211 0 basechar 0
AnchorPoint: "Anchor-1" 305 483 basechar 0
LayerCount: 2
Fore
SplineSet
181 482 m 1xd4
 206 482 l 1
 188 386 l 1
 267 449 329 482 382 482 c 0
 434 482 466 451 466 402 c 0xd4
 466 377 460 349 452 313 c 2
 418 158 l 2
 412 129 407 107 407 92 c 0
 407 60 426 43 459 43 c 0
 473 43 491 46 514 52 c 1
 514 24 l 1
 462 4 422 -6 394 -6 c 0
 345 -6 321 14 321 54 c 0xd8
 321 67 324 86 329 108 c 2
 372 293 l 2
 379 322 381 344 381 357 c 0
 381 401 365 420 327 420 c 0xd4
 293 420 240 394 179 338 c 1
 117 0 l 1
 32 0 l 1
 115 409 l 1
 33 424 l 1
 33 449 l 1xb4
 181 482 l 1xd4
EndSplineSet
Substitution2: "'smcp' Lowercase to Small Capitals in Latin lookup 4 subtable" n.sc
EndChar

StartChar: o
Encoding: 111 111 80
Width: 502
GlyphClass: 2
Flags: MW
HStem: -9 41<174 226.5> 444 39<245 296.5>
VStem: 22 85<132 221.5> 364 85<247.5 342.5>
AnchorPoint: "Anchor-3" 194 0 basechar 0
AnchorPoint: "Anchor-2" 194 0 basechar 0
AnchorPoint: "Anchor-1" 278 483 basechar 0
LayerCount: 2
Fore
SplineSet
279 483 m 0
 383 483 449 408 449 287 c 0
 449 208 420 132 368 72 c 0
 321 18 261 -9 192 -9 c 0
 89 -9 22 65 22 181 c 0
 22 262 52 343 102 400 c 0
 150 454 211 483 279 483 c 0
266 444 m 0
 180 444 107 335 107 180 c 0
 107 84 144 32 204 32 c 0
 289 32 364 141 364 293 c 0
 364 392 327 444 266 444 c 0
EndSplineSet
Substitution2: "'smcp' Lowercase to Small Capitals in Latin lookup 4 subtable" o.sc
EndChar

StartChar: p
Encoding: 112 112 81
Width: 516
GlyphClass: 2
Flags: MW
HStem: -218 30<-69 171 -69 -69> -4 44<191 220> 427 25<27 27> 430 52<312.5 315>
VStem: 378 83<266 345.5>
AnchorPoint: "Anchor-2" 174 -218 basechar 0
AnchorPoint: "Anchor-1" 311 483 basechar 0
LayerCount: 2
Fore
SplineSet
169 482 m 1xd8
 195 482 l 1
 183 421 l 1
 241 462 291 482 334 482 c 0xd8
 413 482 461 421 461 308 c 0
 461 221 433 148 376 85 c 0
 325 29 254 -4 186 -4 c 0
 160 -4 134 3 109 15 c 1
 76 -171 l 1
 171 -188 l 1
 171 -218 l 1
 -69 -218 l 1
 -69 -188 l 1
 -10 -176 l 1
 0 -165 l 1
 105 417 l 1
 27 427 l 1
 27 452 l 1xe8
 169 482 l 1xd8
119 67 m 1
 149 49 177 40 205 40 c 0
 249 40 286 60 317 101 c 0
 350 145 378 226 378 306 c 0
 378 385 342 430 288 430 c 0
 258 430 221 412 176 377 c 1
 119 67 l 1
EndSplineSet
Substitution2: "'smcp' Lowercase to Small Capitals in Latin lookup 4 subtable" p.sc
EndChar

StartChar: q
Encoding: 113 113 82
Width: 512
GlyphClass: 2
Flags: MW
HStem: -218 32<197 443 197 197> -6 58<170.5 183.5> 445 42<271.5 297.5>
VStem: 25 81<131 210 131 211>
AnchorPoint: "Anchor-2" 134 -218 basechar 0
AnchorPoint: "Anchor-1" 271 483 basechar 0
LayerCount: 2
Fore
SplineSet
414 487 m 1
 462 487 l 1
 457 467 453 452 451 439 c 2
 347 -169 l 1
 443 -186 l 1
 443 -218 l 1
 197 -218 l 1
 197 -186 l 1
 258 -174 l 1
 269 -162 l 1
 309 69 l 1
 256 19 207 -6 160 -6 c 0
 78 -6 25 60 25 172 c 0
 25 250 48 319 91 375 c 0
 145 446 222 487 293 487 c 0
 322 487 354 477 388 462 c 1
 414 487 l 1
314 444 m 1
 307 445 301 445 294 445 c 0
 249 445 209 424 173 381 c 0
 136 336 106 253 106 167 c 0
 106 95 142 52 199 52 c 0
 237 52 275 72 316 112 c 1
 364 383 l 1
 314 444 l 1
EndSplineSet
Substitution2: "'smcp' Lowercase to Small Capitals in Latin lookup 4 subtable" q.sc
EndChar

StartChar: r
Encoding: 114 114 83
Width: 398
GlyphClass: 2
Flags: MW
HStem: 0 21G<28 112 28 28> 365 117<325 332 325 325> 424 25<29 29>
VStem: 28 84<0 0>
AnchorPoint: "Anchor-2" 70 0 basechar 0
LayerCount: 2
Fore
SplineSet
177 482 m 1xd0
 197 482 l 1
 165 345 l 1
 229 436 293 482 343 482 c 0
 377 482 399 460 399 430 c 0
 399 392 373 365 332 365 c 2
 325 365 l 1xd0
 299 419 l 1
 201 381 169 327 153 235 c 2
 112 0 l 1
 28 0 l 1
 111 409 l 1
 29 424 l 1
 29 449 l 1xb0
 177 482 l 1xd0
EndSplineSet
Substitution2: "'smcp' Lowercase to Small Capitals in Latin lookup 4 subtable" r.sc
EndChar

StartChar: s
Encoding: 115 115 84
Width: 370
GlyphClass: 2
Flags: MW
HStem: -9 36<116.5 160.5 116.5 170.5> 437 45<183 198.5>
VStem: 59 64<352 372> 223 76<101.5 131>
AnchorPoint: "Anchor-2" 118 0 basechar 0
AnchorPoint: "Anchor-1" 231 483 basechar 0
LayerCount: 2
Fore
SplineSet
266 369 m 1
 224 427 l 2
 214 434 204 437 193 437 c 0
 153 437 123 409 123 370 c 0
 123 334 151 313 198 277 c 0
 258 231 299 205 299 145 c 0
 299 58 225 -9 116 -9 c 0
 32 -9 -17 27 -17 79 c 0
 -17 110 4 130 35 130 c 0
 49 130 62 124 78 112 c 1
 60 62 l 1
 76 39 101 27 132 27 c 0
 189 27 223 59 223 112 c 0
 223 150 196 173 154 205 c 0
 97 248 59 275 59 331 c 0
 59 413 135 482 231 482 c 0
 288 482 324 455 324 420 c 0
 324 392 303 371 266 369 c 1
EndSplineSet
Substitution2: "'smcp' Lowercase to Small Capitals in Latin lookup 4 subtable" s.sc
EndChar

StartChar: t
Encoding: 116 116 85
Width: 333
GlyphClass: 2
Flags: MW
HStem: -7 56<99.5 198.5> 422 43<192 336 192 336 184 336>
VStem: 44 82<91 92>
AnchorPoint: "Anchor-2" 111 0 basechar 0
AnchorPoint: "Anchor-1" 175 579 basechar 0
LayerCount: 2
Fore
SplineSet
167 579 m 1
 213 579 l 1
 192 465 l 1
 336 465 l 1
 336 422 l 1
 184 422 l 1
 132 155 l 2
 129 137 126 122 126 111 c 0
 126 71 147 49 187 49 c 0
 210 49 242 56 282 69 c 1
 282 37 l 1
 215 8 163 -7 128 -7 c 0
 71 -7 44 23 44 84 c 0
 44 100 46 123 52 151 c 2
 106 422 l 1
 44 417 l 1
 44 447 l 1
 117 479 l 1
 167 579 l 1
EndSplineSet
Substitution2: "'smcp' Lowercase to Small Capitals in Latin lookup 4 subtable" t.sc
EndChar

StartChar: u
Encoding: 117 117 86
Width: 553
GlyphClass: 2
Flags: MW
HStem: -8 48<363.5 462.5> -8 57<169 171> 424 26<30 30> 463 20G<187 187>
VStem: 47 82<86.5 94.5> 324 80<34 89.5> 404 81<473 473>
AnchorPoint: "Anchor-3" 386 0 basechar 0
AnchorPoint: "Anchor-2" 208 0 basechar 0
AnchorPoint: "Anchor-1" 302 483 basechar 0
LayerCount: 2
Fore
SplineSet
187 483 m 1x7c
 203 469 l 1
 140 178 l 2
 133 144 129 119 129 104 c 0
 129 69 151 49 187 49 c 0
 222 49 273 68 329 112 c 1
 404 473 l 1
 485 473 l 1x7a
 414 147 l 2
 409 122 404 100 404 79 c 0
 404 58 424 40 456 40 c 0
 469 40 488 44 512 51 c 1
 512 23 l 1
 457 3 415 -8 384 -8 c 0xbc
 343 -8 324 12 324 56 c 0
 324 62 324 68 325 75 c 1
 258 19 198 -8 144 -8 c 0
 84 -8 47 27 47 86 c 0
 47 103 50 123 55 146 c 2
 113 409 l 1
 30 424 l 1
 30 450 l 1
 187 483 l 1x7c
EndSplineSet
Substitution2: "'smcp' Lowercase to Small Capitals in Latin lookup 4 subtable" u.sc
EndChar

StartChar: v
Encoding: 118 118 87
Width: 454
GlyphClass: 2
Flags: MW
HStem: 0 21G<112 160 112 112> 426 25<-8 -8> 464 20G
VStem: 331 103<392.5 464>
AnchorPoint: "Anchor-2" 136 0 basechar 0
AnchorPoint: "Anchor-1" 237 483 basechar 0
LayerCount: 2
Fore
SplineSet
93 484 m 1
 95 484 l 2
 152 484 163 449 171 369 c 2
 197 95 l 1
 273 192 324 273 350 342 c 1
 331 464 l 1
 347 477 364 484 381 484 c 0
 415 484 434 463 434 427 c 0
 434 358 346 210 160 0 c 1
 112 0 l 1
 122 19 126 41 126 65 c 0
 126 77 125 89 124 101 c 2
 99 335 l 2
 94 381 86 409 69 420 c 1
 -8 426 l 1
 -8 451 l 1
 93 484 l 1
EndSplineSet
Substitution2: "'smcp' Lowercase to Small Capitals in Latin lookup 4 subtable" v.sc
EndChar

StartChar: w
Encoding: 119 119 88
Width: 713
GlyphClass: 2
Flags: MW
HStem: 0 21G<93 158 93 93 373 431 373 373> 427 24<0 0> 465 21G
VStem: 585 103<389.5 461>
AnchorPoint: "Anchor-2" 262 0 basechar 0
AnchorPoint: "Anchor-1" 392 483 basechar 0
LayerCount: 2
Fore
SplineSet
115 485 m 1
 150 483 l 1
 172 89 l 1
 238 214 303 336 356 460 c 1
 416 467 l 1
 420 375 429 244 443 75 c 1
 526 186 582 274 605 344 c 1
 585 461 l 1
 598 477 615 484 636 484 c 0
 669 484 688 463 688 427 c 0
 688 352 596 217 431 0 c 1
 373 0 l 1
 349 349 l 1
 323 292 260 175 158 0 c 1
 93 0 l 1
 101 22 l 1
 74 418 l 1
 0 427 l 1
 0 451 l 1
 115 485 l 1
EndSplineSet
Substitution2: "'smcp' Lowercase to Small Capitals in Latin lookup 4 subtable" w.sc
EndChar

StartChar: x
Encoding: 120 120 89
Width: 477
GlyphClass: 2
Flags: MW
HStem: -6 49<287 386.5> 466 20G<138 169.5>
AnchorPoint: "Anchor-2" 185 0 basechar 0
AnchorPoint: "Anchor-1" 279 483 basechar 0
LayerCount: 2
Fore
SplineSet
129 485 m 2
 133 485 136 486 140 486 c 0
 199 486 211 420 246 284 c 1
 312 418 374 485 437 485 c 0
 469 485 494 460 494 429 c 0
 494 405 477 386 445 373 c 1
 402 412 l 1
 356 400 312 343 268 241 c 1
 307 106 321 43 381 43 c 0
 392 43 410 47 434 54 c 1
 434 23 l 1
 387 4 349 -6 322 -6 c 0
 252 -6 239 53 206 195 c 1
 141 59 81 -8 15 -8 c 0
 -23 -8 -47 14 -47 46 c 0
 -47 73 -29 91 2 97 c 1
 48 54 l 1
 93 78 146 142 187 241 c 1
 161 332 138 390 111 415 c 1
 28 426 l 1
 28 450 l 1
 129 485 l 2
EndSplineSet
Substitution2: "'smcp' Lowercase to Small Capitals in Latin lookup 4 subtable" x.sc
EndChar

StartChar: y
Encoding: 121 121 90
Width: 475
GlyphClass: 2
Flags: MW
HStem: -217 21G<-53.5 12.5> 431 22<-15 -15> 466 21G
AnchorPoint: "Anchor-2" -42 -218 basechar 0
AnchorPoint: "Anchor-1" 278 483 basechar 0
LayerCount: 2
Fore
SplineSet
83 485 m 2
 87 486 92 486 96 486 c 0
 160 486 167 417 196 271 c 2
 229 102 l 1
 271 209 323 335 386 482 c 1
 405 482 l 1
 484 456 l 1
 484 435 l 1
 433 405 l 1
 360 323 320 184 237 34 c 0
 145 -133 54 -217 -29 -217 c 0
 -78 -217 -113 -187 -113 -151 c 0
 -113 -124 -92 -101 -59 -96 c 1
 0 -155 l 1
 61 -151 116 -92 175 21 c 1
 172 19 l 1
 110 320 l 2
 101 366 88 400 70 424 c 1
 -15 431 l 1
 -15 453 l 1
 83 485 l 2
EndSplineSet
Substitution2: "'smcp' Lowercase to Small Capitals in Latin lookup 4 subtable" y.sc
EndChar

StartChar: z
Encoding: 122 122 91
Width: 440
GlyphClass: 2
Flags: MW
HStem: -11 21G<41 41> -2 67<278.5 289.5> 412 71<139.5 153.5>
AnchorPoint: "Anchor-2" 169 0 basechar 0
AnchorPoint: "Anchor-1" 263 483 basechar 0
LayerCount: 2
Fore
SplineSet
373 490 m 1xa0
 434 458 l 1
 89 73 l 1
 186 98 l 1
 235 76 269 65 288 65 c 0
 313 65 334 77 350 101 c 1
 295 162 l 1
 309 186 326 198 343 198 c 0
 371 198 392 174 392 138 c 0
 392 69 326 -2 253 -2 c 0x60
 196 -2 145 41 97 41 c 0
 86 41 76 38 65 32 c 1
 41 -11 l 1
 -14 19 l 1
 330 405 l 1
 231 383 l 1
 194 402 164 412 143 412 c 0
 117 412 95 401 80 380 c 1
 133 316 l 1
 121 295 106 284 86 284 c 0
 58 284 39 306 39 343 c 0
 39 413 105 483 174 483 c 0
 204 483 229 470 256 456 c 0
 282 443 303 433 324 433 c 0
 333 433 343 436 354 441 c 1
 373 490 l 1xa0
EndSplineSet
Substitution2: "'smcp' Lowercase to Small Capitals in Latin lookup 4 subtable" z.sc
EndChar

StartChar: braceleft
Encoding: 123 123 92
Width: 486
GlyphClass: 2
Flags: MW
HStem: -134 39<322 418 393 418> 268 43<87 88 65 136> 666 37<405 418>
VStem: 211 80<49 121>
LayerCount: 2
Fore
SplineSet
418 703 m 1
 418 666 l 1
 318 663 290 634 290 546 c 2
 290 465 l 2
 290 360 260 311 160 290 c 1
 254 269 291 221 291 121 c 2
 291 38 l 2
 291 -62 305 -93 418 -95 c 1
 418 -134 l 1
 393 -134 l 2
 251 -134 211 -90 211 49 c 2
 211 134 l 2
 211 233 180 268 88 268 c 2
 65 268 l 1
 65 312 l 1
 74 311 83 311 91 311 c 0
 181 311 210 347 210 440 c 2
 210 542 l 2
 210 656 268 703 405 703 c 2
 418 703 l 1
EndSplineSet
Substitution2: "'ss05' Style Set 5 lookup 18 subtable" braceleft.up
EndChar

StartChar: bar
Encoding: 124 124 93
Width: 500
GlyphClass: 2
Flags: MW
VStem: 219 62<-236 764 -236 764>
LayerCount: 2
Fore
SplineSet
219 764 m 1
 281 764 l 1
 281 -236 l 1
 219 -236 l 1
 219 764 l 1
EndSplineSet
EndChar

StartChar: braceright
Encoding: 125 125 94
Width: 486
GlyphClass: 2
Flags: MW
HStem: -134 39<64 88 64 64> 268 43<348 394 394 395 346 417> 666 37<64 77>
VStem: 191 80<38 49 49 121 121 134>
LayerCount: 2
Fore
SplineSet
64 703 m 1
 77 703 l 2
 214 703 272 656 272 542 c 2
 272 440 l 2
 272 347 301 311 391 311 c 0
 399 311 408 311 417 312 c 1
 417 268 l 1
 394 268 l 2
 302 268 271 233 271 134 c 2
 271 49 l 2
 271 -89 231 -134 88 -134 c 2
 64 -134 l 1
 64 -95 l 1
 177 -93 191 -62 191 38 c 2
 191 121 l 2
 191 221 228 269 322 290 c 1
 222 311 192 360 192 465 c 2
 192 546 l 2
 192 634 164 663 64 666 c 1
 64 703 l 1
EndSplineSet
Substitution2: "'ss05' Style Set 5 lookup 18 subtable" braceright.up
EndChar

StartChar: asciitilde
Encoding: 126 126 95
Width: 833
GlyphClass: 2
Flags: MW
HStem: 225 65<87 87> 236 58<543.5 588> 303 58<247 302 247 306> 306 64<747 747>
LayerCount: 2
Fore
SplineSet
747 370 m 1x50
 747 306 l 1
 681 259 618 236 558 236 c 0x50
 529 236 498 242 465 253 c 0
 396 276 337 303 275 303 c 0
 216 303 158 275 87 225 c 1
 87 290 l 1
 155 337 218 361 276 361 c 0xa0
 328 361 373 345 418 329 c 0
 466 312 509 294 559 294 c 0
 619 294 677 321 747 370 c 1x50
EndSplineSet
EndChar

StartChar: exclamdown
Encoding: 161 161 97
Width: 338
GlyphClass: 2
Flags: MW
HStem: -9 21G<90.5 132> 569 114<205 236 205 236.5>
VStem: 61 122<23.5 121> 163 114<610.5 641.5 610.5 642>
LayerCount: 2
Fore
SplineSet
221 683 m 0xd0
 251 683 277 657 277 626 c 0
 277 595 252 569 221 569 c 0
 189 569 163 594 163 626 c 0
 163 658 189 683 221 683 c 0xd0
179 503 m 1
 228 503 l 1
 183 121 l 2
 173 35 159 -9 105 -9 c 0
 76 -9 61 8 61 39 c 0xe0
 61 50 67 78 78 121 c 2
 179 503 l 1
EndSplineSet
Substitution2: "'ss05' Style Set 5 lookup 18 subtable" exclamdown.up
Substitution2: "'smcp' Lowercase to Small Capitals in Latin lookup 4 subtable" exclamdown.sc
EndChar

StartChar: cent
Encoding: 162 162 98
Width: 556
GlyphClass: 2
Flags: MW
HStem: 1 45<263 277 254 278.5> 367 113<417 491 417 491> 458 44<350 357>
VStem: 42 85<155.5 256.5 155.5 266> 190 45<-98 -98> 324 45<601 601> 373 53<139 139> 417 53<367 367>
LayerCount: 2
Fore
SplineSet
324 601 m 1xbe
 369 601 l 1
 350 502 l 1
 369 502 l 2xbe
 417 502 458 495 491 480 c 1
 470 367 l 1
 417 367 l 1xdd
 422 438 l 1
 399 451 372 458 342 458 c 1
 263 46 l 1
 294 46 324 52 351 65 c 1
 373 139 l 1
 426 139 l 1
 403 22 l 1
 362 8 321 1 277 1 c 2
 254 1 l 1
 235 -98 l 1
 190 -98 l 1
 209 3 l 1
 102 20 42 89 42 187 c 0
 42 345 146 474 305 500 c 1
 324 601 l 1xbe
296 454 m 1
 198 427 127 319 127 194 c 0
 127 117 161 64 218 48 c 1
 296 454 l 1
EndSplineSet
Substitution2: "'smcp' Lowercase to Small Capitals in Latin lookup 4 subtable" cent.sc
EndChar

StartChar: sterling
Encoding: 163 163 99
Width: 556
GlyphClass: 2
Flags: MW
HStem: 0 57<-21 448 -21 -21> 0 76<151 448 151 448> 305 46<72 142 72 150 234 418> 634 48<363.5 418 418 422>
LayerCount: 2
Fore
SplineSet
467 547 m 1xb0
 422 634 l 1
 418 634 l 2
 309 634 264 543 234 351 c 1
 418 351 l 1
 418 305 l 1
 225 305 l 1
 208 195 159 117 81 73 c 1
 82 71 l 1
 121 75 143 76 151 76 c 2
 448 76 l 1
 448 0 l 1x70
 -21 0 l 1
 -21 57 l 1
 87 79 117 152 142 305 c 1
 72 305 l 1
 72 351 l 1
 150 351 l 1
 172 568 272 682 421 682 c 0
 498 682 547 650 547 611 c 0
 547 576 520 556 467 547 c 1xb0
EndSplineSet
EndChar

StartChar: currency
Encoding: 164 164 100
Width: 606
GlyphClass: 2
Flags: MW
HStem: 229 50<279 327> 586 50<279.5 326.5 279.5 346.5>
VStem: 100 51<409 455> 457 50<409 455 409 475>
LayerCount: 2
Fore
SplineSet
77 693 m 1
 178 592 l 1
 216 621 256 636 303 636 c 0
 350 636 392 621 430 592 c 1
 530 693 l 1
 565 657 l 1
 465 557 l 1
 493 520 507 478 507 432 c 0
 507 386 493 344 465 307 c 1
 565 207 l 1
 530 171 l 1
 430 272 l 1
 393 243 351 229 303 229 c 0
 255 229 215 243 178 272 c 1
 77 171 l 1
 42 207 l 1
 143 307 l 1
 115 344 100 386 100 432 c 0
 100 478 115 520 143 557 c 1
 42 657 l 1
 77 693 l 1
304 586 m 0
 219 586 151 517 151 433 c 0
 151 348 219 279 304 279 c 0
 389 279 457 349 457 433 c 0
 457 517 389 586 304 586 c 0
EndSplineSet
EndChar

StartChar: yen
Encoding: 165 165 101
Width: 556
GlyphClass: 2
Flags: MW
HStem: 0 40<86 341 86 86> 236 41<2 213 2 221 298 520> 380 41<31 170 31 187 31 170 411 548> 624 40<56 271 56 271>
LayerCount: 2
Fore
SplineSet
56 664 m 1
 271 664 l 1
 271 624 l 1
 210 618 l 1
 199 607 l 1
 286 337 l 1
 487 599 l 1
 481 613 l 1
 433 624 l 1
 433 664 l 1
 616 664 l 1
 616 624 l 1
 556 612 l 1
 411 421 l 1
 548 421 l 1
 548 380 l 1
 375 380 l 1
 298 277 l 1
 520 277 l 1
 520 236 l 1
 293 236 l 1
 260 59 l 1
 274 45 l 1
 341 40 l 1
 341 0 l 1
 86 0 l 1
 86 40 l 1
 159 45 l 1
 180 59 l 1
 213 236 l 1
 2 236 l 1
 2 277 l 1
 221 277 l 1
 187 380 l 1
 31 380 l 1
 31 421 l 1
 170 421 l 1
 108 614 l 1
 56 624 l 1
 56 664 l 1
EndSplineSet
EndChar

StartChar: brokenbar
Encoding: 166 166 102
Width: 500
GlyphClass: 2
Flags: MW
VStem: 219 62<-171 199 -171 199 329 699>
LayerCount: 2
Fore
SplineSet
219 699 m 1
 281 699 l 1
 281 329 l 1
 219 329 l 1
 219 699 l 1
219 199 m 1
 281 199 l 1
 281 -171 l 1
 219 -171 l 1
 219 199 l 1
EndSplineSet
EndChar

StartChar: section
Encoding: 167 167 103
Width: 500
GlyphClass: 2
Flags: MW
HStem: -140 44<146.5 197 146.5 207> 676 42<287 334.5>
VStem: 26 49<20 20> 50 79<259.5 298> 123 79<553.5 599> 283 77<-10 30> 355 79<295 330> 406 44<566 566>
LayerCount: 2
Fore
SplineSet
475 695 m 1xc8
 450 566 l 1
 406 566 l 1xc9
 410 646 l 1
 378 666 349 676 320 676 c 0
 254 676 202 629 202 580 c 0
 202 527 251 514 328 472 c 0
 400 433 434 392 434 330 c 0xca
 434 260 376 182 278 144 c 1
 333 116 360 82 360 37 c 0
 360 -57 270 -140 144 -140 c 0
 98 -140 52 -130 4 -109 c 1
 26 20 l 1
 75 20 l 1xe4
 72 -70 l 1
 102 -88 131 -96 162 -96 c 0
 232 -96 283 -49 283 0 c 0
 283 60 226 79 139 125 c 0
 80 156 50 200 50 260 c 0xd4
 50 336 103 405 202 443 c 1
 148 473 123 503 123 550 c 0
 123 648 207 718 346 718 c 0
 390 718 432 710 475 695 c 1xc8
240 424 m 1
 167 394 129 345 129 289 c 0
 129 230 166 202 246 162 c 1
 319 204 355 251 355 305 c 0xd2
 355 355 317 393 240 424 c 1
EndSplineSet
EndChar

StartChar: dieresis
Encoding: 168 168 104
Width: 500
GlyphClass: 2
Flags: MW
HStem: 590 102<200 227 387 414>
VStem: 163 102<627 655 627 655.5> 349 102<627 655 627 655.5>
LayerCount: 2
Fore
SplineSet
213 692 m 0
 242 692 265 669 265 641 c 0
 265 613 241 590 213 590 c 0
 187 590 163 613 163 641 c 0
 163 670 186 692 213 692 c 0
400 692 m 0
 429 692 451 669 451 641 c 0
 451 613 428 590 400 590 c 0
 374 590 349 613 349 641 c 0
 349 670 373 692 400 692 c 0
EndSplineSet
EndChar

StartChar: copyright
Encoding: 169 169 105
Width: 900
GlyphClass: 2
Flags: MW
HStem: -46 42<406 498 406 500> 102 46<423 480 423 487.5> 528 46<425.5 487> 685 41<407.5 497>
VStem: 67 44<293 386 293 391> 221 87<284 394 284 408> 566 43<127 252> 793 44<295 386>
LayerCount: 2
Fore
SplineSet
453 726 m 0
 554 726 655 683 727 610 c 0
 797 539 837 440 837 336 c 0
 837 237 795 138 719 63 c 0
 647 -8 553 -46 447 -46 c 0
 349 -46 253 -6 180 67 c 0
 106 141 67 236 67 340 c 0
 67 442 106 537 179 611 c 0
 251 684 350 726 453 726 c 0
453 685 m 0
 362 685 275 648 211 583 c 0
 146 516 111 432 111 340 c 0
 111 246 145 163 211 97 c 0
 278 31 360 -4 452 -4 c 0
 544 -4 628 31 692 97 c 0
 757 164 793 250 793 340 c 0
 793 432 756 521 693 584 c 0
 629 648 541 685 453 685 c 0
609 551 m 1
 609 431 l 1
 566 431 l 1
 551 506 l 1
 526 521 501 528 473 528 c 0
 378 528 308 449 308 339 c 0
 308 229 378 148 468 148 c 0
 492 148 520 156 553 168 c 1
 566 252 l 1
 609 252 l 1
 609 127 l 1
 563 111 513 102 462 102 c 0
 320 102 221 199 221 338 c 0
 221 478 319 574 468 574 c 0
 510 574 558 567 609 551 c 1
EndSplineSet
EndChar

StartChar: ordfeminine
Encoding: 170 170 106
Width: 394
GlyphClass: 2
Flags: MW
HStem: 326 42<118.5 134> 642 27<188 227 227 235.5 188 238>
VStem: 13 62<424 471.5> 228 56<379 401 384 401>
LayerCount: 2
Fore
SplineSet
308 669 m 1
 347 669 l 1
 339 655 329 621 318 569 c 2
 291 445 l 2
 286 422 284 406 284 396 c 0
 284 374 296 364 324 364 c 0
 332 364 346 367 366 371 c 1
 366 350 l 1
 325 334 294 326 274 326 c 0
 242 326 228 343 228 379 c 2
 228 384 l 1
 188 345 152 326 116 326 c 0
 53 326 13 371 13 448 c 0
 13 495 26 538 52 578 c 0
 90 636 151 669 225 669 c 0
 246 669 269 664 293 654 c 1
 308 669 l 1
238 642 m 1
 227 642 l 2
 140 642 75 564 75 452 c 0
 75 396 97 368 140 368 c 0
 169 368 198 384 229 415 c 1
 268 599 l 1
 238 642 l 1
EndSplineSet
EndChar

StartChar: guillemotleft
Encoding: 171 171 107
Width: 442
GlyphClass: 2
Flags: W
LayerCount: 2
Fore
SplineSet
218 413 m 1
 205 347 l 1
 67 240 l 1
 164 132 l 1
 151 67 l 1
 13 200 l 1
 28 280 l 1
 218 413 l 1
415 413 m 1
 403 347 l 1
 265 240 l 1
 361 132 l 1
 349 67 l 1
 211 200 l 1
 226 280 l 1
 415 413 l 1
EndSplineSet
EndChar

StartChar: logicalnot
Encoding: 172 172 108
Width: 833
GlyphClass: 2
Flags: MW
HStem: 362 57<124 653 124 709>
VStem: 653 56<174 362 362 362>
LayerCount: 2
Fore
SplineSet
124 419 m 1
 709 419 l 1
 709 174 l 1
 653 174 l 1
 653 362 l 1
 124 362 l 1
 124 419 l 1
EndSplineSet
EndChar

StartChar: registered
Encoding: 174 174 109
Width: 900
GlyphClass: 2
Flags: MW
HStem: -46 42<406 498 406 500> 121 36<259 450 259 259> 316 38<411.5 443> 526 34<254 465> 685 41<407.5 497>
VStem: 67 44<293 386 293 391> 312 75<165 315 165 355 355 516 516 516> 540 87<423.5 464.5> 793 44<295 386>
LayerCount: 2
Fore
SplineSet
453 726 m 0
 554 726 655 683 727 610 c 0
 797 539 837 440 837 336 c 0
 837 237 795 138 719 63 c 0
 647 -8 553 -46 447 -46 c 0
 349 -46 253 -6 180 67 c 0
 106 141 67 236 67 340 c 0
 67 442 106 537 179 611 c 0
 251 684 350 726 453 726 c 0
453 685 m 0
 362 685 275 648 211 583 c 0
 146 516 111 432 111 340 c 0
 111 246 145 163 211 97 c 0
 278 31 360 -4 452 -4 c 0
 544 -4 628 31 692 97 c 0
 757 164 793 250 793 340 c 0
 793 432 756 521 693 584 c 0
 629 648 541 685 453 685 c 0
254 560 m 1
 465 560 l 2
 573 560 627 526 627 451 c 0
 627 396 585 355 506 338 c 1
 537 333 560 321 578 299 c 0
 601 271 604 239 614 215 c 0
 631 172 653 160 711 160 c 1
 711 124 l 1
 685 119 664 116 649 116 c 0
 618 116 593 125 570 145 c 0
 538 172 533 218 515 259 c 0
 495 304 470 316 416 316 c 0
 407 316 398 316 387 315 c 1
 387 165 l 1
 450 158 l 1
 450 121 l 1
 259 121 l 1
 259 157 l 1
 312 164 l 1
 312 516 l 1
 254 526 l 1
 254 560 l 1
387 522 m 1
 387 355 l 1
 396 354 404 354 412 354 c 0
 496 354 540 383 540 437 c 0
 540 492 496 524 413 524 c 0
 405 524 396 523 387 522 c 1
EndSplineSet
EndChar

StartChar: macron
Encoding: 175 175 110
Width: 500
GlyphClass: 2
Flags: MW
HStem: 615 51<164 456 155 465>
VStem: 155 310<615 666>
LayerCount: 2
Fore
SplineSet
164 666 m 1
 465 666 l 1
 456 615 l 1
 155 615 l 1
 164 666 l 1
EndSplineSet
EndChar

StartChar: degree
Encoding: 176 176 111
Width: 329
GlyphClass: 2
Flags: MW
HStem: 434 39<138 193 138 203> 670 40<138 192.5>
VStem: 27 39<544 599.5 544 611> 263 40<545 599>
LayerCount: 2
Fore
SplineSet
165 710 m 0
 241 710 303 648 303 572 c 0
 303 497 242 434 164 434 c 0
 87 434 27 495 27 572 c 0
 27 650 89 710 165 710 c 0
165 670 m 0
 111 670 66 627 66 572 c 0
 66 516 111 473 165 473 c 0
 221 473 263 518 263 572 c 0
 263 626 220 670 165 670 c 0
EndSplineSet
EndChar

StartChar: plusminus
Encoding: 177 177 112
Width: 833
GlyphClass: 2
Flags: MW
HStem: 20 57<124 709 124 709> 351 57<124 388 124 388 446 709>
VStem: 388 58<183 351 183 351 408 576>
LayerCount: 2
Fore
SplineSet
388 576 m 1
 446 576 l 1
 446 408 l 1
 709 408 l 1
 709 351 l 1
 446 351 l 1
 446 183 l 1
 388 183 l 1
 388 351 l 1
 124 351 l 1
 124 408 l 1
 388 408 l 1
 388 576 l 1
124 77 m 1
 709 77 l 1
 709 20 l 1
 124 20 l 1
 124 77 l 1
EndSplineSet
EndChar

StartChar: two.superior
Encoding: 178 178 113
Width: 373
GlyphClass: 2
Flags: MW
HStem: 268 49<61 262 61 295> 645 33<203.5 231>
VStem: 67 65<568 591> 280 67<544.5 601.5>
LayerCount: 2
Fore
SplineSet
61 317 m 1
 262 317 l 1
 285 367 l 1
 317 367 l 1
 295 268 l 1
 -15 268 l 1
 -7 308 l 1
 178 423 280 491 280 581 c 0
 280 622 254 645 208 645 c 0
 187 645 167 640 146 631 c 1
 132 568 l 1
 122 562 110 559 100 559 c 0
 80 559 67 569 67 583 c 0
 67 599 77 618 96 634 c 0
 129 660 178 678 229 678 c 0
 305 678 347 644 347 588 c 0
 347 501 247 430 61 317 c 1
EndSplineSet
Substitution2: "'subs' Subscript lookup 12 subtable" uni2082
Substitution2: "'numr' Numerators lookup 11 subtable" two.numerator
Substitution2: "'dnom' Denominators lookup 10 subtable" two.denominator
EndChar

StartChar: three.superior
Encoding: 179 179 114
Width: 377
GlyphClass: 2
Flags: MW
HStem: 261 30<119 144> 461 33<168 194.5 153.5 200> 649 29<195 229>
VStem: 1 62<308 356> 71 63<573 613.5> 255 66<384 417.5> 281 67<570.5 604.5>
LayerCount: 2
Fore
SplineSet
217 482 m 1xfa
 283 480 321 450 321 404 c 0
 321 364 294 323 248 294 c 0
 213 273 167 261 121 261 c 0
 49 261 1 290 1 326 c 0
 1 347 16 360 39 360 c 0
 46 360 54 359 63 356 c 1
 73 305 l 1
 90 295 109 291 129 291 c 0
 202 291 255 338 255 397 c 0xfc
 255 438 226 461 174 461 c 0
 162 461 149 460 135 459 c 1
 140 495 l 1
 146 494 151 494 156 494 c 0
 233 494 281 535 281 585 c 0
 281 624 252 649 206 649 c 0
 184 649 164 642 143 629 c 1
 134 573 l 1
 120 569 109 566 101 566 c 0
 84 566 71 577 71 594 c 0
 71 633 139 678 232 678 c 0
 305 678 348 645 348 596 c 0
 348 545 302 501 217 482 c 1xfa
EndSplineSet
Substitution2: "'subs' Subscript lookup 12 subtable" uni2083
Substitution2: "'numr' Numerators lookup 11 subtable" three.numerator
Substitution2: "'dnom' Denominators lookup 10 subtable" three.denominator
EndChar

StartChar: acute
Encoding: 180 180 115
Width: 500
GlyphClass: 2
Flags: MW
HStem: 546 190<253 485 253 485>
VStem: 253 232<546 736>
LayerCount: 2
Fore
SplineSet
386 736 m 1
 485 736 l 1
 302 546 l 1
 253 546 l 1
 386 736 l 1
EndSplineSet
EndChar

StartChar: mu
Encoding: 181 181 116
Width: 547
GlyphClass: 2
Flags: MW
HStem: -11 63<165.5 220>
VStem: 97 72<432 432> 326 51<90 95 95 95> 370 73<432 432> 479 52
LayerCount: 2
Fore
SplineSet
80 94 m 1xe8
 41 -105 57 -204 0 -204 c 0
 -24 -204 -39 -188 -39 -161 c 0
 -39 -120 4 -9 44 181 c 2
 97 432 l 1
 169 432 l 1
 118 192 l 2
 114 172 112 153 112 137 c 0
 112 83 141 52 190 52 c 0
 253 52 297 96 316 183 c 2
 370 432 l 1
 443 432 l 1xd8
 387 173 l 2
 381 144 377 123 377 106 c 0
 377 74 396 53 422 53 c 0
 444 53 465 65 479 87 c 0
 502 122 501 162 518 162 c 0
 526 162 531 155 531 144 c 0
 531 132 526 104 511 71 c 0
 487 18 450 -9 399 -9 c 0
 356 -9 326 25 326 84 c 2
 326 95 l 1
 296 24 251 -11 189 -11 c 0
 126 -11 89 25 80 94 c 1xe8
EndSplineSet
EndChar

StartChar: paragraph
Encoding: 182 182 117
Width: 484
GlyphClass: 2
Flags: MW
HStem: 630 41<271 347 271 271>
VStem: 26 245<409 544> 347 49<-79 625 -79 630 -79 630>
LayerCount: 2
Fore
SplineSet
262 671 m 2
 458 671 l 1
 458 635 l 1
 396 625 l 1
 396 -79 l 1
 347 -79 l 1
 347 630 l 1
 271 630 l 1
 271 281 l 1
 253 281 l 2
 100 281 26 344 26 474 c 0
 26 614 101 671 262 671 c 2
EndSplineSet
EndChar

StartChar: periodcentered
Encoding: 183 183 118
Width: 278
GlyphClass: 2
Flags: MW
HStem: 276 119<122 154.5>
VStem: 79 119<318.5 351.5>
LayerCount: 2
Fore
SplineSet
138 395 m 0
 171 395 198 368 198 335 c 0
 198 302 171 276 138 276 c 0
 106 276 79 302 79 335 c 0
 79 368 105 395 138 395 c 0
EndSplineSet
EndChar

StartChar: cedilla
Encoding: 184 184 119
Width: 500
GlyphClass: 2
Flags: MW
HStem: -223 38<118.5 149.5 115.5 170.5> -20 20G<158 194 194 194>
VStem: 158 36<0 0> 201 65<-145.5 -124.5>
LayerCount: 2
Fore
SplineSet
158 0 m 1
 194 0 l 1
 182 -61 l 1
 191 -60 199 -60 203 -60 c 0
 244 -60 266 -80 266 -116 c 0
 266 -175 212 -223 129 -223 c 0
 108 -223 85 -220 61 -213 c 1
 68 -177 l 1
 86 -182 105 -185 126 -185 c 0
 173 -185 201 -164 201 -133 c 0
 201 -116 185 -105 158 -105 c 0
 152 -105 145 -106 137 -107 c 1
 158 0 l 1
EndSplineSet
EndChar

StartChar: one.superior
Encoding: 185 185 120
Width: 367
GlyphClass: 2
Flags: MW
HStem: 268 27<55 251 55 55> 613 25<93 93> 658 20G<251 267 267 267>
VStem: 55 212
LayerCount: 2
Fore
SplineSet
251 678 m 1
 267 678 l 1
 188 306 l 1
 194 297 l 1
 251 294 l 1
 251 268 l 1
 55 268 l 1
 55 295 l 1
 119 298 l 1
 130 309 l 1
 196 618 l 1
 189 624 l 1
 93 613 l 1
 93 638 l 1
 251 678 l 1
EndSplineSet
Substitution2: "'subs' Subscript lookup 12 subtable" uni2081
Substitution2: "'numr' Numerators lookup 11 subtable" one.numerator
Substitution2: "'dnom' Denominators lookup 10 subtable" one.denominator
EndChar

StartChar: ordmasculine
Encoding: 186 186 121
Width: 377
GlyphClass: 2
Flags: MW
HStem: 326 28<130.5 170> 643 27<183.5 222.5>
VStem: 17 63<424.5 487> 273 64<505.5 571.5>
LayerCount: 2
Fore
SplineSet
209 670 m 0
 287 670 337 618 337 533 c 0
 337 478 315 424 276 382 c 0
 241 345 196 326 144 326 c 0
 67 326 17 377 17 459 c 0
 17 515 39 572 77 612 c 0
 113 650 158 670 209 670 c 0
200 643 m 0
 135 643 80 566 80 458 c 0
 80 391 108 354 153 354 c 0
 217 354 273 431 273 537 c 0
 273 606 245 643 200 643 c 0
EndSplineSet
EndChar

StartChar: guillemotright
Encoding: 187 187 122
Width: 442
GlyphClass: 2
Flags: W
LayerCount: 2
Fore
SplineSet
60 413 m 1
 199 280 l 1
 184 200 l 1
 -6 67 l 1
 6 132 l 1
 144 240 l 1
 48 347 l 1
 60 413 l 1
258 413 m 1
 396 280 l 1
 381 200 l 1
 191 67 l 1
 204 132 l 1
 342 240 l 1
 245 347 l 1
 258 413 l 1
EndSplineSet
EndChar

StartChar: onequarter
Encoding: 188 188 123
Width: 867
GlyphClass: 2
Flags: MW
HStem: 0 21G<124 185 124 124> 109 36<525 525 572 720 517 525 777 839> 295 24<51 240 51 51> 618 23<92 92> 657 21G
VStem: 124 61<0 0> 681 61<671 671> 692 49<-21 -21>
LayerCount: 2
Fore
SplineSet
239 677 m 1xfc
 254 677 l 1
 179 330 l 1
 185 321 l 1
 240 319 l 1
 240 295 l 1
 51 295 l 1
 51 319 l 1
 117 322 l 1
 127 332 l 1
 190 623 l 1
 183 628 l 1
 92 618 l 1
 92 641 l 1
 239 677 l 1xfc
681 671 m 1xfe
 742 671 l 1
 185 0 l 1
 124 0 l 1
 681 671 l 1xfe
790 379 m 1
 827 379 l 1
 777 145 l 1
 847 145 l 1
 839 109 l 1
 768 109 l 1
 741 -21 l 1
 692 -21 l 1xfd
 720 109 l 1
 517 109 l 1
 525 145 l 1
 790 379 l 1
765 318 m 1
 572 145 l 1
 728 145 l 1
 765 318 l 1
EndSplineSet
EndChar

StartChar: onehalf
Encoding: 189 189 124
Width: 867
GlyphClass: 2
Flags: MW
HStem: 0 44<575 765 575 795> 295 24<51 240 51 51> 354 28<708.5 734> 618 23<92 92> 657 21G
VStem: 124 61<0 0> 581 59<281 302.5> 681 61<671 671> 781 62<258 312.5>
LayerCount: 2
Fore
SplineSet
239 677 m 1
 254 677 l 1
 179 330 l 1
 185 321 l 1
 240 319 l 1
 240 295 l 1
 51 295 l 1
 51 319 l 1
 117 322 l 1
 127 332 l 1
 190 623 l 1
 183 628 l 1
 92 618 l 1
 92 641 l 1
 239 677 l 1
681 671 m 1
 742 671 l 1
 185 0 l 1
 124 0 l 1
 681 671 l 1
575 44 m 1
 765 44 l 1
 786 92 l 1
 814 92 l 1
 795 0 l 1
 503 0 l 1
 511 35 l 1
 685 143 781 208 781 293 c 0
 781 332 756 354 712 354 c 0
 693 354 674 349 653 340 c 1
 640 281 l 1
 630 275 620 272 610 272 c 0
 592 272 581 282 581 295 c 0
 581 310 589 326 608 342 c 0
 638 366 685 382 732 382 c 0
 803 382 843 351 843 298 c 0
 843 218 749 151 575 44 c 1
EndSplineSet
EndChar

StartChar: threequarters
Encoding: 190 190 125
Width: 868
GlyphClass: 2
Flags: MW
HStem: 0 21G<124 185 124 124> 109 36<525 525 572 720 517 525 777 839> 289 26<110 134.5> 476 29<155 179.5 141.5 185.5> 651 26<180.5 212.5>
VStem: 1 56<332.5 377> 65 57<579 617.5> 124 61<0 0> 238 59<403.5 434> 261 62<577 609.5> 681 61<671 671> 692 49<-21 -21>
LayerCount: 2
Fore
SplineSet
201 495 m 1xff40
 263 493 297 465 297 422 c 0
 297 385 273 346 230 320 c 0
 197 300 156 289 113 289 c 0
 46 289 1 316 1 349 c 0
 1 368 14 381 35 381 c 0
 42 381 49 380 57 377 c 1
 67 329 l 1
 83 320 100 315 120 315 c 0
 188 315 238 359 238 415 c 0xff80
 238 453 210 476 161 476 c 0
 149 476 137 475 123 474 c 1
 128 506 l 1
 134 505 139 505 144 505 c 0
 215 505 261 544 261 591 c 0
 261 628 234 651 191 651 c 0
 170 651 151 645 131 633 c 1
 122 579 l 1
 110 576 100 573 93 573 c 0
 77 573 65 583 65 599 c 0
 65 636 128 677 215 677 c 0
 283 677 323 647 323 601 c 0
 323 553 280 512 201 495 c 1xff40
681 671 m 1xff20
 742 671 l 1
 185 0 l 1
 124 0 l 1
 681 671 l 1xff20
790 379 m 1
 827 379 l 1
 777 145 l 1
 847 145 l 1
 839 109 l 1
 768 109 l 1
 741 -21 l 1
 692 -21 l 1xff10
 720 109 l 1
 517 109 l 1
 525 145 l 1
 790 379 l 1
765 318 m 1
 572 145 l 1
 728 145 l 1
 765 318 l 1
EndSplineSet
EndChar

StartChar: questiondown
Encoding: 191 191 126
Width: 486
GlyphClass: 2
Flags: MW
HStem: -9 46<238 241 238 254.5> 569 114<306.5 337 306.5 337.5>
VStem: 28 92<107.5 187.5> 265 114<610.5 641.5 610.5 642> 278 52<503 503>
LayerCount: 2
Fore
SplineSet
322 683 m 0xf0
 352 683 379 657 379 626 c 0
 379 595 353 569 322 569 c 0
 290 569 265 594 265 626 c 0
 265 658 291 683 322 683 c 0xf0
278 503 m 1xe8
 330 503 l 1
 302 357 l 1
 182 315 120 238 120 142 c 0
 120 73 161 37 238 37 c 2
 241 37 l 1
 301 136 l 1
 308 137 314 137 319 137 c 0
 353 137 370 123 370 98 c 0
 370 41 304 -9 205 -9 c 0
 93 -9 28 46 28 134 c 0
 28 241 105 327 256 386 c 1
 278 503 l 1xe8
EndSplineSet
Substitution2: "'ss05' Style Set 5 lookup 18 subtable" questiondown.up
Substitution2: "'smcp' Lowercase to Small Capitals in Latin lookup 4 subtable" questiondown.sc
EndChar

StartChar: Agrave
Encoding: 192 192 127
Width: 606
GlyphClass: 2
Flags: MW
HStem: 0 38<-79 119 -79 -79> 248 43<182 391 182 400 157 391> 657 20G<345 411 411 411>
LayerCount: 2
Fore
SplineSet
345 677 m 1
 411 677 l 1
 518 61 l 1
 535 43 l 1
 584 38 l 1
 584 0 l 1
 365 0 l 1
 365 38 l 1
 424 43 l 1
 431 57 l 1
 400 248 l 1
 157 248 l 1
 50 57 l 1
 58 43 l 1
 119 38 l 1
 119 0 l 1
 -79 0 l 1
 -79 38 l 1
 -24 44 l 1
 345 677 l 1
345 579 m 1
 182 291 l 1
 391 291 l 1
 345 579 l 1
261 928 m 1
 360 928 l 1
 420 738 l 1
 370 738 l 1
 261 928 l 1
EndSplineSet
Position2: "'cpsp' Capital Spacing in Latin lookup 2 subtable" dx=7 dy=0 dh=14 dv=0
EndChar

StartChar: Aacute
Encoding: 193 193 128
Width: 606
GlyphClass: 2
Flags: MW
HStem: 0 38<-79 119 -79 -79> 248 43<182 391 182 400 157 391> 657 20G<345 411 411 411>
LayerCount: 2
Fore
SplineSet
345 677 m 1
 411 677 l 1
 518 61 l 1
 535 43 l 1
 584 38 l 1
 584 0 l 1
 365 0 l 1
 365 38 l 1
 424 43 l 1
 431 57 l 1
 400 248 l 1
 157 248 l 1
 50 57 l 1
 58 43 l 1
 119 38 l 1
 119 0 l 1
 -79 0 l 1
 -79 38 l 1
 -24 44 l 1
 345 677 l 1
345 579 m 1
 182 291 l 1
 391 291 l 1
 345 579 l 1
466 928 m 1
 565 928 l 1
 382 738 l 1
 333 738 l 1
 466 928 l 1
EndSplineSet
Position2: "'cpsp' Capital Spacing in Latin lookup 2 subtable" dx=7 dy=0 dh=14 dv=0
EndChar

StartChar: Acircumflex
Encoding: 194 194 129
Width: 606
GlyphClass: 2
Flags: MW
HStem: 0 38<-79 119 -79 -79> 248 43<182 391 182 400 157 391> 657 20G<345 411 411 411>
VStem: 228 55<738 738>
LayerCount: 2
Fore
SplineSet
345 677 m 1
 411 677 l 1
 518 61 l 1
 535 43 l 1
 584 38 l 1
 584 0 l 1
 365 0 l 1
 365 38 l 1
 424 43 l 1
 431 57 l 1
 400 248 l 1
 157 248 l 1
 50 57 l 1
 58 43 l 1
 119 38 l 1
 119 0 l 1
 -79 0 l 1
 -79 38 l 1
 -24 44 l 1
 345 677 l 1
345 579 m 1
 182 291 l 1
 391 291 l 1
 345 579 l 1
374 928 m 1
 439 928 l 1
 513 738 l 1
 458 738 l 1
 397 879 l 1
 283 738 l 1
 228 738 l 1
 374 928 l 1
EndSplineSet
Position2: "'cpsp' Capital Spacing in Latin lookup 2 subtable" dx=7 dy=0 dh=14 dv=0
EndChar

StartChar: Atilde
Encoding: 195 195 130
Width: 606
GlyphClass: 2
Flags: MW
HStem: 0 38<-79 119 -79 -79> 248 43<182 391 182 400 157 391> 657 20G<345 411 411 411> 780 53<444 473.5> 830 55<302 327>
VStem: 223 43<765 765> 512 42<900 900>
LayerCount: 2
Fore
SplineSet
345 677 m 1xe6
 411 677 l 1
 518 61 l 1
 535 43 l 1
 584 38 l 1
 584 0 l 1
 365 0 l 1
 365 38 l 1
 424 43 l 1
 431 57 l 1
 400 248 l 1
 157 248 l 1
 50 57 l 1
 58 43 l 1
 119 38 l 1
 119 0 l 1
 -79 0 l 1
 -79 38 l 1
 -24 44 l 1
 345 677 l 1xe6
345 579 m 1
 182 291 l 1
 391 291 l 1
 345 579 l 1
512 900 m 1
 554 900 l 1
 545 825 499 780 448 780 c 0xf6
 389 780 341 830 313 830 c 0
 290 830 269 806 266 765 c 1
 223 765 l 1
 235 844 273 885 331 885 c 0xee
 384 885 427 833 461 833 c 0xf6
 488 833 505 855 512 900 c 1
EndSplineSet
Position2: "'cpsp' Capital Spacing in Latin lookup 2 subtable" dx=7 dy=0 dh=14 dv=0
EndChar

StartChar: Adieresis
Encoding: 196 196 131
Width: 606
GlyphClass: 2
Flags: MW
HStem: 0 38<-79 119 -79 -79> 248 43<182 391 182 400 157 391> 657 20G<345 411 411 411> 782 102<280 307 467 494>
VStem: 243 102<819 847> 429 102<819 847 819 847.5>
LayerCount: 2
Fore
SplineSet
345 677 m 1
 411 677 l 1
 518 61 l 1
 535 43 l 1
 584 38 l 1
 584 0 l 1
 365 0 l 1
 365 38 l 1
 424 43 l 1
 431 57 l 1
 400 248 l 1
 157 248 l 1
 50 57 l 1
 58 43 l 1
 119 38 l 1
 119 0 l 1
 -79 0 l 1
 -79 38 l 1
 -24 44 l 1
 345 677 l 1
345 579 m 1
 182 291 l 1
 391 291 l 1
 345 579 l 1
293 884 m 0
 322 884 345 861 345 833 c 0
 345 805 321 782 293 782 c 0
 267 782 243 805 243 833 c 0
 243 862 266 884 293 884 c 0
480 884 m 0
 509 884 531 861 531 833 c 0
 531 805 508 782 480 782 c 0
 454 782 429 805 429 833 c 0
 429 862 453 884 480 884 c 0
EndSplineSet
Position2: "'cpsp' Capital Spacing in Latin lookup 2 subtable" dx=7 dy=0 dh=14 dv=0
EndChar

StartChar: Aring
Encoding: 197 197 132
Width: 606
GlyphClass: 2
Flags: MW
HStem: 0 38<-79 119 -79 -79> 248 43<182 391 182 400 157 391> 657 20G<345 411 411 411> 741 45<373.5 415 373.5 427.5> 934 46<373.5 415>
VStem: 274 45<839.5 881 839.5 893.5> 469 44<839.5 881>
LayerCount: 2
Fore
SplineSet
393 980 m 0
 460 980 513 927 513 860 c 0
 513 793 461 741 394 741 c 0
 327 741 274 793 274 860 c 0
 274 927 327 980 393 980 c 0
394 934 m 0
 353 934 319 902 319 860 c 0
 319 819 353 786 394 786 c 0
 436 786 469 819 469 860 c 0
 469 902 436 934 394 934 c 0
345 677 m 1
 411 677 l 1
 518 61 l 1
 535 43 l 1
 584 38 l 1
 584 0 l 1
 365 0 l 1
 365 38 l 1
 424 43 l 1
 431 57 l 1
 400 248 l 1
 157 248 l 1
 50 57 l 1
 58 43 l 1
 119 38 l 1
 119 0 l 1
 -79 0 l 1
 -79 38 l 1
 -24 44 l 1
 345 677 l 1
345 579 m 1
 182 291 l 1
 391 291 l 1
 345 579 l 1
EndSplineSet
Substitution2: "'c2sc' Capitals to Small Capitals in Latin lookup 6 subtable" aring.sc
Position2: "'cpsp' Capital Spacing in Latin lookup 2 subtable" dx=7 dy=0 dh=14 dv=0
EndChar

StartChar: AE
Encoding: 198 198 133
Width: 873
GlyphClass: 2
Flags: MW
HStem: 0 38<-115 87 -115 -115> 0 46<465 720 465 786> 256 47<218 421 180 430> 325 47<528 672 519 680> 625 46<396 396 577 792 577 577>
VStem: 679 41<239 239> 720 43<459 459> 803 47<525 610>
AnchorPoint: "Anchor-2" 332 0 basechar 0
AnchorPoint: "Anchor-1" 517 682 basechar 0
LayerCount: 2
Fore
SplineSet
338 671 m 1xbb
 879 671 l 1
 850 525 l 1
 803 525 l 1
 803 610 l 1
 792 625 l 1
 577 625 l 1
 528 372 l 1
 680 372 l 1
 697 386 l 1
 720 459 l 1
 763 459 l 1xbb
 720 239 l 1
 679 239 l 1xbd
 683 311 l 1
 672 325 l 1
 519 325 l 1
 465 46 l 1
 720 46 l 1x7b
 737 62 l 1
 772 163 l 1
 818 163 l 1
 786 0 l 1
 303 0 l 1
 303 38 l 1
 366 44 l 1
 382 58 l 1
 421 256 l 1
 180 256 l 1
 21 61 l 1
 23 47 l 1
 87 38 l 1
 87 0 l 1
 -115 0 l 1
 -115 38 l 1
 -54 51 l 1
 402 610 l 1
 396 625 l 1
 338 631 l 1
 338 671 l 1xbb
494 641 m 1
 218 303 l 1
 430 303 l 1
 494 641 l 1
EndSplineSet
Substitution2: "'c2sc' Capitals to Small Capitals in Latin lookup 6 subtable" ae.sc
Position2: "'cpsp' Capital Spacing in Latin lookup 2 subtable" dx=7 dy=0 dh=14 dv=0
EndChar

StartChar: Ccedilla
Encoding: 199 199 134
Width: 604
GlyphClass: 2
Flags: MW
HStem: -223 38<238.5 269.5 235.5 290.5> -12 12<278 314 278 341> 636 47<405 456.5>
VStem: 41 95<184 318.5 184 330> 321 65<-145.5 -124.5> 552 42<495 591>
AnchorPoint: "Anchor-1" 440 682 basechar 0
LayerCount: 2
Fore
SplineSet
622 649 m 1
 594 495 l 1
 552 495 l 1
 552 591 l 1
 544 610 l 1
 510 628 475 636 438 636 c 0
 372 636 310 612 261 568 c 0
 183 498 136 384 136 253 c 0
 136 115 212 35 344 35 c 0
 372 35 401 40 430 49 c 1
 449 66 l 1
 493 181 l 1
 536 181 l 1
 509 23 l 1
 440 0 372 -12 310 -12 c 0
 145 -12 41 96 41 265 c 0
 41 395 98 516 196 597 c 0
 265 653 349 683 441 683 c 0
 497 683 557 672 622 649 c 1
278 0 m 1
 314 0 l 1
 302 -61 l 1
 311 -60 319 -60 323 -60 c 0
 364 -60 386 -80 386 -116 c 0
 386 -175 332 -223 249 -223 c 0
 228 -223 205 -220 181 -213 c 1
 188 -177 l 1
 206 -182 225 -185 246 -185 c 0
 293 -185 321 -164 321 -133 c 0
 321 -116 305 -105 278 -105 c 0
 272 -105 265 -106 257 -107 c 1
 278 0 l 1
EndSplineSet
Position2: "'cpsp' Capital Spacing in Latin lookup 2 subtable" dx=7 dy=0 dh=14 dv=0
EndChar

StartChar: Egrave
Encoding: 200 200 135
Width: 546
GlyphClass: 2
Flags: MW
HStem: 0 38<-24 460 -24 -24> 0 46<139 394 139 460> 325 47<202 346 193 354> 625 46<251 466 251 251> 633 38<88 553>
VStem: 354 41<239 239> 394 43<459 459> 477 48<525 610>
LayerCount: 2
Fore
SplineSet
88 671 m 1xab
 553 671 l 1xab
 525 525 l 1
 477 525 l 1
 477 610 l 1
 466 625 l 1
 251 625 l 1
 202 372 l 1
 354 372 l 1x35
 372 386 l 1
 394 459 l 1
 437 459 l 1x33
 395 239 l 1
 354 239 l 1x35
 358 311 l 1
 346 325 l 1
 193 325 l 1
 139 46 l 1
 394 46 l 1x73
 412 62 l 1
 446 163 l 1
 492 163 l 1
 460 0 l 1
 -24 0 l 1
 -24 38 l 1
 39 44 l 1
 56 58 l 1
 163 613 l 1
 152 628 l 1
 88 633 l 1
 88 671 l 1xab
231 928 m 1
 330 928 l 1
 390 738 l 1
 340 738 l 1
 231 928 l 1
EndSplineSet
Position2: "'cpsp' Capital Spacing in Latin lookup 2 subtable" dx=7 dy=0 dh=14 dv=0
EndChar

StartChar: Eacute
Encoding: 201 201 136
Width: 546
GlyphClass: 2
Flags: MW
HStem: 0 38<-24 460 -24 -24> 0 46<139 394 139 460> 325 47<202 346 193 354> 625 46<251 466 251 251> 633 38<88 553>
VStem: 354 41<239 239> 394 43<459 459> 477 48<525 610>
LayerCount: 2
Fore
SplineSet
88 671 m 1xab
 553 671 l 1xab
 525 525 l 1
 477 525 l 1
 477 610 l 1
 466 625 l 1
 251 625 l 1
 202 372 l 1
 354 372 l 1x35
 372 386 l 1
 394 459 l 1
 437 459 l 1x33
 395 239 l 1
 354 239 l 1x35
 358 311 l 1
 346 325 l 1
 193 325 l 1
 139 46 l 1
 394 46 l 1x73
 412 62 l 1
 446 163 l 1
 492 163 l 1
 460 0 l 1
 -24 0 l 1
 -24 38 l 1
 39 44 l 1
 56 58 l 1
 163 613 l 1
 152 628 l 1
 88 633 l 1
 88 671 l 1xab
436 928 m 1
 535 928 l 1
 352 738 l 1
 303 738 l 1
 436 928 l 1
EndSplineSet
Position2: "'cpsp' Capital Spacing in Latin lookup 2 subtable" dx=7 dy=0 dh=14 dv=0
EndChar

StartChar: Ecircumflex
Encoding: 202 202 137
Width: 546
GlyphClass: 2
Flags: MW
HStem: 0 38<-24 460 -24 -24> 0 46<139 394 139 460> 325 47<202 346 193 354> 625 46<251 466 251 251> 633 38<88 553>
VStem: 198 55<738 738> 354 41<239 239> 394 43<459 459> 477 48<525 610>
LayerCount: 2
Fore
SplineSet
88 671 m 1xad80
 553 671 l 1xad80
 525 525 l 1
 477 525 l 1
 477 610 l 1
 466 625 l 1
 251 625 l 1
 202 372 l 1
 354 372 l 1x3680
 372 386 l 1
 394 459 l 1
 437 459 l 1x3580
 395 239 l 1
 354 239 l 1x3680
 358 311 l 1
 346 325 l 1
 193 325 l 1
 139 46 l 1
 394 46 l 1x7580
 412 62 l 1
 446 163 l 1
 492 163 l 1
 460 0 l 1
 -24 0 l 1
 -24 38 l 1
 39 44 l 1
 56 58 l 1
 163 613 l 1
 152 628 l 1
 88 633 l 1
 88 671 l 1xad80
344 928 m 1
 409 928 l 1
 483 738 l 1
 428 738 l 1
 367 879 l 1
 253 738 l 1
 198 738 l 1
 344 928 l 1
EndSplineSet
Position2: "'cpsp' Capital Spacing in Latin lookup 2 subtable" dx=7 dy=0 dh=14 dv=0
EndChar

StartChar: Edieresis
Encoding: 203 203 138
Width: 546
GlyphClass: 2
Flags: MW
HStem: 0 38<-24 460 -24 -24> 0 46<139 394 139 460> 325 47<202 346 193 354> 625 46<251 466 251 251> 633 38<88 553> 782 102<250 277 437 464>
VStem: 213 102<819 847 819 847.5> 354 41<239 239> 394 43<459 459> 399 102<819 847 819 847.5> 477 48<525 610>
LayerCount: 2
Fore
SplineSet
88 671 m 1xae80
 553 671 l 1xae80
 525 525 l 1
 477 525 l 1
 477 610 l 1
 466 625 l 1
 251 625 l 1
 202 372 l 1
 354 372 l 1x3720
 372 386 l 1
 394 459 l 1
 437 459 l 1x3680
 395 239 l 1
 354 239 l 1x37
 358 311 l 1
 346 325 l 1
 193 325 l 1
 139 46 l 1
 394 46 l 1x7680
 412 62 l 1
 446 163 l 1
 492 163 l 1
 460 0 l 1
 -24 0 l 1
 -24 38 l 1
 39 44 l 1
 56 58 l 1
 163 613 l 1
 152 628 l 1
 88 633 l 1
 88 671 l 1xae80
263 884 m 0
 292 884 315 861 315 833 c 0
 315 805 291 782 263 782 c 0
 237 782 213 805 213 833 c 0
 213 862 236 884 263 884 c 0
450 884 m 0
 479 884 501 861 501 833 c 0
 501 805 478 782 450 782 c 0
 424 782 399 805 399 833 c 0x2640
 399 862 423 884 450 884 c 0
EndSplineSet
Position2: "'cpsp' Capital Spacing in Latin lookup 2 subtable" dx=7 dy=0 dh=14 dv=0
EndChar

StartChar: Igrave
Encoding: 204 204 139
Width: 312
GlyphClass: 2
Flags: MW
HStem: 0 38<-23 221 -23 -23> 633 38<89 333 89 333>
LayerCount: 2
Fore
SplineSet
89 671 m 1
 333 671 l 1
 333 633 l 1
 267 628 l 1
 251 613 l 1
 144 58 l 1
 156 44 l 1
 221 38 l 1
 221 0 l 1
 -23 0 l 1
 -23 38 l 1
 41 44 l 1
 57 58 l 1
 164 613 l 1
 153 628 l 1
 89 633 l 1
 89 671 l 1
114 928 m 1
 213 928 l 1
 273 738 l 1
 223 738 l 1
 114 928 l 1
EndSplineSet
Position2: "'cpsp' Capital Spacing in Latin lookup 2 subtable" dx=7 dy=0 dh=14 dv=0
EndChar

StartChar: Iacute
Encoding: 205 205 140
Width: 312
GlyphClass: 2
Flags: MW
HStem: 0 38<-23 221 -23 -23> 633 38<89 333 89 333>
LayerCount: 2
Fore
SplineSet
89 671 m 1
 333 671 l 1
 333 633 l 1
 267 628 l 1
 251 613 l 1
 144 58 l 1
 156 44 l 1
 221 38 l 1
 221 0 l 1
 -23 0 l 1
 -23 38 l 1
 41 44 l 1
 57 58 l 1
 164 613 l 1
 153 628 l 1
 89 633 l 1
 89 671 l 1
319 928 m 1
 418 928 l 1
 235 738 l 1
 186 738 l 1
 319 928 l 1
EndSplineSet
Position2: "'cpsp' Capital Spacing in Latin lookup 2 subtable" dx=7 dy=0 dh=14 dv=0
EndChar

StartChar: Icircumflex
Encoding: 206 206 141
Width: 312
GlyphClass: 2
Flags: MW
HStem: 0 38<-23 221 -23 -23> 633 38<89 333 89 333>
VStem: 81 55<738 738>
LayerCount: 2
Fore
SplineSet
89 671 m 1
 333 671 l 1
 333 633 l 1
 267 628 l 1
 251 613 l 1
 144 58 l 1
 156 44 l 1
 221 38 l 1
 221 0 l 1
 -23 0 l 1
 -23 38 l 1
 41 44 l 1
 57 58 l 1
 164 613 l 1
 153 628 l 1
 89 633 l 1
 89 671 l 1
227 928 m 1
 292 928 l 1
 366 738 l 1
 311 738 l 1
 250 879 l 1
 136 738 l 1
 81 738 l 1
 227 928 l 1
EndSplineSet
Position2: "'cpsp' Capital Spacing in Latin lookup 2 subtable" dx=7 dy=0 dh=14 dv=0
EndChar

StartChar: Idieresis
Encoding: 207 207 142
Width: 312
GlyphClass: 2
Flags: MW
HStem: 0 38<-23 221 -23 -23> 633 38<89 333 89 333> 782 102<133 160 320 347>
VStem: 96 102<819 847 819 847.5> 282 102<819 847 819 847.5>
LayerCount: 2
Fore
SplineSet
89 671 m 1
 333 671 l 1
 333 633 l 1
 267 628 l 1
 251 613 l 1
 144 58 l 1
 156 44 l 1
 221 38 l 1
 221 0 l 1
 -23 0 l 1
 -23 38 l 1
 41 44 l 1
 57 58 l 1
 164 613 l 1
 153 628 l 1
 89 633 l 1
 89 671 l 1
146 884 m 0
 175 884 198 861 198 833 c 0
 198 805 174 782 146 782 c 0
 120 782 96 805 96 833 c 0
 96 862 119 884 146 884 c 0
333 884 m 0
 362 884 384 861 384 833 c 0
 384 805 361 782 333 782 c 0
 307 782 282 805 282 833 c 0
 282 862 306 884 333 884 c 0
EndSplineSet
Position2: "'cpsp' Capital Spacing in Latin lookup 2 subtable" dx=7 dy=0 dh=14 dv=0
EndChar

StartChar: Eth
Encoding: 208 208 143
Width: 671
GlyphClass: 2
Flags: MW
HStem: 0 38<-28 183 -28 -28> 0 47<140 183> 331 46<24 105 19 114 202 343> 625 46<249 249 249 304> 633 38<85 312>
VStem: 526 97<374 493.5>
LayerCount: 2
Fore
SplineSet
85 671 m 1xac
 312 671 l 2
 517 671 623 581 623 416 c 0
 623 299 579 189 500 111 c 0
 421 33 320 0 183 0 c 2x74
 -28 0 l 1
 -28 38 l 1
 36 44 l 1
 52 58 l 1
 105 331 l 1
 19 331 l 1
 24 377 l 1
 114 377 l 1
 159 613 l 1
 149 628 l 1
 85 633 l 1
 85 671 l 1xac
249 625 m 1
 202 377 l 1
 352 377 l 1
 343 331 l 1
 192 331 l 1
 140 47 l 1
 195 47 l 2
 304 47 389 84 441 152 c 0
 492 219 526 322 526 426 c 0
 526 561 454 625 304 625 c 2
 249 625 l 1
EndSplineSet
Substitution2: "'c2sc' Capitals to Small Capitals in Latin lookup 6 subtable" eth.sc
Position2: "'cpsp' Capital Spacing in Latin lookup 2 subtable" dx=7 dy=0 dh=14 dv=0
EndChar

StartChar: Ntilde
Encoding: 209 209 144
Width: 683
GlyphClass: 2
Flags: MW
HStem: 0 38<-31 180 -31 -31> 633 38<81 253> 780 53<482 511.5> 830 55<340 365>
VStem: 261 43<765 765> 550 42<900 900>
LayerCount: 2
Fore
SplineSet
81 671 m 1xcc
 253 671 l 1
 253 646 l 1
 492 139 l 1
 584 613 l 1
 574 628 l 1
 510 633 l 1
 510 671 l 1
 720 671 l 1
 720 633 l 1
 656 628 l 1
 640 613 l 1
 523 0 l 1
 465 0 l 1
 202 556 l 1
 105 58 l 1
 116 44 l 1
 180 38 l 1
 180 0 l 1
 -31 0 l 1
 -31 38 l 1
 33 44 l 1
 49 58 l 1
 156 613 l 1
 146 628 l 1
 81 633 l 1
 81 671 l 1xcc
550 900 m 1
 592 900 l 1
 583 825 537 780 486 780 c 0xec
 427 780 379 830 351 830 c 0
 328 830 307 806 304 765 c 1
 261 765 l 1
 273 844 311 885 369 885 c 0xdc
 422 885 465 833 499 833 c 0xec
 526 833 543 855 550 900 c 1
EndSplineSet
Position2: "'cpsp' Capital Spacing in Latin lookup 2 subtable" dx=7 dy=0 dh=14 dv=0
EndChar

StartChar: Ograve
Encoding: 210 210 145
Width: 708
GlyphClass: 2
Flags: MW
HStem: -12 48<258.5 344.5 258.5 357> 636 46<364 436.5 354 450>
VStem: 41 96<186 302 186 311> 571 98<369.5 464 364 487>
LayerCount: 2
Fore
SplineSet
405 682 m 0
 468 682 522 665 562 636 c 0
 630 586 669 508 669 420 c 0
 669 308 636 206 577 129 c 0
 508 39 409 -12 305 -12 c 0
 150 -12 41 100 41 259 c 0
 41 363 74 461 135 541 c 0
 203 631 303 682 405 682 c 0
571 419 m 0
 571 555 502 636 398 636 c 0
 330 636 267 598 216 523 c 0
 167 451 137 351 137 253 c 0
 137 119 207 36 310 36 c 0
 379 36 441 74 492 149 c 0
 540 220 571 320 571 419 c 0
312 928 m 1
 411 928 l 1
 471 738 l 1
 421 738 l 1
 312 928 l 1
EndSplineSet
Position2: "'cpsp' Capital Spacing in Latin lookup 2 subtable" dx=7 dy=0 dh=14 dv=0
EndChar

StartChar: Oacute
Encoding: 211 211 146
Width: 708
GlyphClass: 2
Flags: MW
HStem: -12 48<258.5 344.5 258.5 357> 636 46<364 436.5 354 450>
VStem: 41 96<186 302 186 311> 571 98<369.5 464 364 487>
LayerCount: 2
Fore
SplineSet
405 682 m 0
 468 682 522 665 562 636 c 0
 630 586 669 508 669 420 c 0
 669 308 636 206 577 129 c 0
 508 39 409 -12 305 -12 c 0
 150 -12 41 100 41 259 c 0
 41 363 74 461 135 541 c 0
 203 631 303 682 405 682 c 0
571 419 m 0
 571 555 502 636 398 636 c 0
 330 636 267 598 216 523 c 0
 167 451 137 351 137 253 c 0
 137 119 207 36 310 36 c 0
 379 36 441 74 492 149 c 0
 540 220 571 320 571 419 c 0
517 928 m 1
 616 928 l 1
 433 738 l 1
 384 738 l 1
 517 928 l 1
EndSplineSet
Position2: "'cpsp' Capital Spacing in Latin lookup 2 subtable" dx=7 dy=0 dh=14 dv=0
EndChar

StartChar: Ocircumflex
Encoding: 212 212 147
Width: 708
GlyphClass: 2
Flags: MW
HStem: -12 48<258.5 344.5 258.5 357> 636 46<364 436.5 354 450>
VStem: 41 96<186 302 186 311> 279 55<738 738> 571 98<369.5 464 364 487>
LayerCount: 2
Fore
SplineSet
405 682 m 0
 468 682 522 665 562 636 c 0
 630 586 669 508 669 420 c 0
 669 308 636 206 577 129 c 0
 508 39 409 -12 305 -12 c 0
 150 -12 41 100 41 259 c 0
 41 363 74 461 135 541 c 0
 203 631 303 682 405 682 c 0
571 419 m 0
 571 555 502 636 398 636 c 0
 330 636 267 598 216 523 c 0
 167 451 137 351 137 253 c 0
 137 119 207 36 310 36 c 0
 379 36 441 74 492 149 c 0
 540 220 571 320 571 419 c 0
425 928 m 1
 490 928 l 1
 564 738 l 1
 509 738 l 1
 448 879 l 1
 334 738 l 1
 279 738 l 1
 425 928 l 1
EndSplineSet
Position2: "'cpsp' Capital Spacing in Latin lookup 2 subtable" dx=7 dy=0 dh=14 dv=0
EndChar

StartChar: Otilde
Encoding: 213 213 148
Width: 708
GlyphClass: 2
Flags: MW
HStem: -12 48<258.5 344.5 258.5 357> 636 46<364 436.5 354 450> 780 53<495 524.5> 830 55<353 378>
VStem: 41 96<186 302 186 311> 274 43<765 765> 563 42<900 900> 571 98<369.5 464 364 487>
LayerCount: 2
Fore
SplineSet
405 682 m 0xcd
 468 682 522 665 562 636 c 0
 630 586 669 508 669 420 c 0
 669 308 636 206 577 129 c 0
 508 39 409 -12 305 -12 c 0
 150 -12 41 100 41 259 c 0
 41 363 74 461 135 541 c 0
 203 631 303 682 405 682 c 0xcd
571 419 m 0
 571 555 502 636 398 636 c 0
 330 636 267 598 216 523 c 0
 167 451 137 351 137 253 c 0
 137 119 207 36 310 36 c 0
 379 36 441 74 492 149 c 0
 540 220 571 320 571 419 c 0
563 900 m 1xee
 605 900 l 1
 596 825 550 780 499 780 c 0xee
 440 780 392 830 364 830 c 0
 341 830 320 806 317 765 c 1
 274 765 l 1
 286 844 324 885 382 885 c 0xde
 435 885 478 833 512 833 c 0
 539 833 556 855 563 900 c 1xee
EndSplineSet
Position2: "'cpsp' Capital Spacing in Latin lookup 2 subtable" dx=7 dy=0 dh=14 dv=0
EndChar

StartChar: Odieresis
Encoding: 214 214 149
Width: 708
GlyphClass: 2
Flags: MW
HStem: -12 48<258.5 344.5 258.5 357> 636 46<364 436.5 354 450> 782 102<331 358 518 545>
VStem: 41 96<186 302 186 311> 294 102<819 847 819 847.5> 480 102<819 847 819 847.5> 571 98<369.5 464 364 487>
LayerCount: 2
Fore
SplineSet
405 682 m 0xfa
 468 682 522 665 562 636 c 0
 630 586 669 508 669 420 c 0
 669 308 636 206 577 129 c 0
 508 39 409 -12 305 -12 c 0
 150 -12 41 100 41 259 c 0
 41 363 74 461 135 541 c 0
 203 631 303 682 405 682 c 0xfa
571 419 m 0
 571 555 502 636 398 636 c 0
 330 636 267 598 216 523 c 0
 167 451 137 351 137 253 c 0
 137 119 207 36 310 36 c 0
 379 36 441 74 492 149 c 0
 540 220 571 320 571 419 c 0
344 884 m 0
 373 884 396 861 396 833 c 0
 396 805 372 782 344 782 c 0
 318 782 294 805 294 833 c 0
 294 862 317 884 344 884 c 0
531 884 m 0
 560 884 582 861 582 833 c 0
 582 805 559 782 531 782 c 0
 505 782 480 805 480 833 c 0xfc
 480 862 504 884 531 884 c 0
EndSplineSet
Position2: "'cpsp' Capital Spacing in Latin lookup 2 subtable" dx=7 dy=0 dh=14 dv=0
EndChar

StartChar: multiply
Encoding: 215 215 150
Width: 833
GlyphClass: 2
Flags: W
LayerCount: 2
Fore
SplineSet
186 571 m 1
 419 338 l 1
 651 571 l 1
 691 531 l 1
 459 298 l 1
 691 66 l 1
 651 26 l 1
 419 258 l 1
 186 26 l 1
 147 66 l 1
 379 298 l 1
 147 531 l 1
 186 571 l 1
EndSplineSet
EndChar

StartChar: Oslash
Encoding: 216 216 151
Width: 708
GlyphClass: 2
Flags: MW
HStem: -12 45<292 349.5 292 358> 636 46<360.5 416.5>
VStem: 42 89<229.5 304.5 229.5 314> 577 92<365.5 449>
LayerCount: 2
Fore
SplineSet
579 743 m 1
 616 720 l 1
 561 636 l 1
 632 582 669 507 669 420 c 0
 669 308 636 206 577 129 c 0
 508 39 410 -12 306 -12 c 0
 256 -12 208 0 162 25 c 1
 98 -74 l 1
 66 -50 l 1
 130 49 l 1
 73 96 42 169 42 263 c 0
 42 365 74 461 135 541 c 0
 204 631 303 682 409 682 c 0
 452 682 490 674 524 657 c 1
 579 743 l 1
493 610 m 1
 465 627 434 636 399 636 c 0
 322 636 262 600 210 524 c 0
 161 453 131 352 131 257 c 0
 131 202 143 154 168 110 c 1
 493 610 l 1
525 582 m 1
 198 79 l 1
 232 48 270 33 314 33 c 0
 385 33 447 71 498 146 c 0
 546 217 577 317 577 414 c 0
 577 484 560 540 525 582 c 1
EndSplineSet
Substitution2: "'c2sc' Capitals to Small Capitals in Latin lookup 6 subtable" oslash.sc
Position2: "'cpsp' Capital Spacing in Latin lookup 2 subtable" dx=7 dy=0 dh=14 dv=0
EndChar

StartChar: Ugrave
Encoding: 217 217 152
Width: 664
GlyphClass: 2
Flags: MW
HStem: -11 61<251 313.5> 633 38<73 316 73 316>
VStem: 64 91<134 163.5>
LayerCount: 2
Fore
SplineSet
73 671 m 1
 316 671 l 1
 316 633 l 1
 251 628 l 1
 235 613 l 1
 164 249 l 2
 158 218 155 192 155 174 c 0
 155 94 205 50 297 50 c 0
 421 50 475 114 501 249 c 2
 572 613 l 1
 560 628 l 1
 495 633 l 1
 495 671 l 1
 704 671 l 1
 704 633 l 1
 641 628 l 1
 624 613 l 1
 551 240 l 2
 538 174 527 116 477 64 c 0
 431 17 358 -11 269 -11 c 0
 136 -11 64 46 64 152 c 0
 64 175 69 204 76 240 c 2
 148 613 l 1
 137 628 l 1
 73 633 l 1
 73 671 l 1
290 928 m 1
 389 928 l 1
 449 738 l 1
 399 738 l 1
 290 928 l 1
EndSplineSet
Position2: "'cpsp' Capital Spacing in Latin lookup 2 subtable" dx=7 dy=0 dh=14 dv=0
EndChar

StartChar: Uacute
Encoding: 218 218 153
Width: 664
GlyphClass: 2
Flags: MW
HStem: -11 61<251 313.5> 633 38<73 316 73 316>
VStem: 64 91<134 163.5>
LayerCount: 2
Fore
SplineSet
73 671 m 1
 316 671 l 1
 316 633 l 1
 251 628 l 1
 235 613 l 1
 164 249 l 2
 158 218 155 192 155 174 c 0
 155 94 205 50 297 50 c 0
 421 50 475 114 501 249 c 2
 572 613 l 1
 560 628 l 1
 495 633 l 1
 495 671 l 1
 704 671 l 1
 704 633 l 1
 641 628 l 1
 624 613 l 1
 551 240 l 2
 538 174 527 116 477 64 c 0
 431 17 358 -11 269 -11 c 0
 136 -11 64 46 64 152 c 0
 64 175 69 204 76 240 c 2
 148 613 l 1
 137 628 l 1
 73 633 l 1
 73 671 l 1
495 928 m 1
 594 928 l 1
 411 738 l 1
 362 738 l 1
 495 928 l 1
EndSplineSet
Position2: "'cpsp' Capital Spacing in Latin lookup 2 subtable" dx=7 dy=0 dh=14 dv=0
EndChar

StartChar: Ucircumflex
Encoding: 219 219 154
Width: 664
GlyphClass: 2
Flags: MW
HStem: -11 61<251 313.5> 633 38<73 316 73 316>
VStem: 64 91<134 163.5> 257 55<738 738>
LayerCount: 2
Fore
SplineSet
73 671 m 1
 316 671 l 1
 316 633 l 1
 251 628 l 1
 235 613 l 1
 164 249 l 2
 158 218 155 192 155 174 c 0
 155 94 205 50 297 50 c 0
 421 50 475 114 501 249 c 2
 572 613 l 1
 560 628 l 1
 495 633 l 1
 495 671 l 1
 704 671 l 1
 704 633 l 1
 641 628 l 1
 624 613 l 1
 551 240 l 2
 538 174 527 116 477 64 c 0
 431 17 358 -11 269 -11 c 0
 136 -11 64 46 64 152 c 0
 64 175 69 204 76 240 c 2
 148 613 l 1
 137 628 l 1
 73 633 l 1
 73 671 l 1
403 928 m 1
 468 928 l 1
 542 738 l 1
 487 738 l 1
 426 879 l 1
 312 738 l 1
 257 738 l 1
 403 928 l 1
EndSplineSet
Position2: "'cpsp' Capital Spacing in Latin lookup 2 subtable" dx=7 dy=0 dh=14 dv=0
EndChar

StartChar: Udieresis
Encoding: 220 220 155
Width: 664
GlyphClass: 2
Flags: MW
HStem: -11 61<251 313.5> 633 38<73 316 73 316> 782 102<309 336 496 523>
VStem: 64 91<134 163.5> 272 102<819 847 819 847.5> 458 102<819 847>
LayerCount: 2
Fore
SplineSet
73 671 m 1
 316 671 l 1
 316 633 l 1
 251 628 l 1
 235 613 l 1
 164 249 l 2
 158 218 155 192 155 174 c 0
 155 94 205 50 297 50 c 0
 421 50 475 114 501 249 c 2
 572 613 l 1
 560 628 l 1
 495 633 l 1
 495 671 l 1
 704 671 l 1
 704 633 l 1
 641 628 l 1
 624 613 l 1
 551 240 l 2
 538 174 527 116 477 64 c 0
 431 17 358 -11 269 -11 c 0
 136 -11 64 46 64 152 c 0
 64 175 69 204 76 240 c 2
 148 613 l 1
 137 628 l 1
 73 633 l 1
 73 671 l 1
322 884 m 0
 351 884 374 861 374 833 c 0
 374 805 350 782 322 782 c 0
 296 782 272 805 272 833 c 0
 272 862 295 884 322 884 c 0
509 884 m 0
 538 884 560 861 560 833 c 0
 560 805 537 782 509 782 c 0
 483 782 458 805 458 833 c 0
 458 862 482 884 509 884 c 0
EndSplineSet
Position2: "'cpsp' Capital Spacing in Latin lookup 2 subtable" dx=7 dy=0 dh=14 dv=0
EndChar

StartChar: Yacute
Encoding: 221 221 156
Width: 562
GlyphClass: 2
Flags: MW
HStem: 0 38<97 340 97 97> 633 38<31 274 31 274>
LayerCount: 2
Fore
SplineSet
31 671 m 1
 274 671 l 1
 274 633 l 1
 209 628 l 1
 193 613 l 1
 283 330 l 1
 492 613 l 1
 482 628 l 1
 418 633 l 1
 418 671 l 1
 642 671 l 1
 642 633 l 1
 576 628 l 1
 560 613 l 1
 306 281 l 1
 262 58 l 1
 275 44 l 1
 340 38 l 1
 340 0 l 1
 97 0 l 1
 97 38 l 1
 160 44 l 1
 176 58 l 1
 218 272 l 1
 106 613 l 1
 96 628 l 1
 31 633 l 1
 31 671 l 1
444 928 m 1
 543 928 l 1
 360 738 l 1
 311 738 l 1
 444 928 l 1
EndSplineSet
Position2: "'cpsp' Capital Spacing in Latin lookup 2 subtable" dx=7 dy=0 dh=14 dv=0
EndChar

StartChar: Thorn
Encoding: 222 222 157
Width: 532
GlyphClass: 2
Flags: MW
HStem: 0 38<-29 207 -29 -29> 126 47<205.5 269 191 306.5> 500 45<223 271> 633 38<83 326 83 326>
VStem: 423 94<309.5 416.5>
LayerCount: 2
Fore
SplineSet
83 671 m 1
 326 671 l 1
 326 633 l 1
 261 628 l 1
 245 614 l 1
 232 545 l 1
 271 545 l 2
 437 545 517 498 517 382 c 0
 517 237 399 126 214 126 c 0
 197 126 175 127 150 128 c 1
 136 58 l 1
 143 44 l 1
 207 38 l 1
 207 0 l 1
 -29 0 l 1
 -29 38 l 1
 34 44 l 1
 50 58 l 1
 158 614 l 1
 146 628 l 1
 83 633 l 1
 83 671 l 1
223 500 m 1
 159 175 l 1
 172 174 185 173 197 173 c 0
 341 173 423 248 423 371 c 0
 423 462 372 502 263 502 c 0
 250 502 237 501 223 500 c 1
EndSplineSet
Substitution2: "'c2sc' Capitals to Small Capitals in Latin lookup 6 subtable" thorn.sc
Position2: "'cpsp' Capital Spacing in Latin lookup 2 subtable" dx=7 dy=0 dh=14 dv=0
EndChar

StartChar: germandbls
Encoding: 223 223 158
Width: 574
GlyphClass: 2
Flags: MW
HStem: -216 93<-129 -73> -9 36<326.5 370.5 326.5 380.5> 694 44<317.5 397>
VStem: 270 64<351.5 369.5> 434 75<101.5 131> 455 67<592.5 637>
LayerCount: 2
Fore
SplineSet
490 437 m 1xf4
 472 439 458 440 447 440 c 0
 374 440 334 411 334 368 c 0
 334 335 362 313 409 277 c 0
 469 231 509 205 509 145 c 0
 509 58 435 -9 326 -9 c 0
 242 -9 194 27 194 79 c 0
 194 110 215 130 246 130 c 0
 260 130 273 124 289 112 c 1
 271 62 l 1
 287 39 311 27 342 27 c 0
 399 27 434 59 434 112 c 0xf8
 434 150 407 173 365 205 c 0
 308 248 270 275 270 331 c 0
 270 408 333 473 432 481 c 1
 447 532 455 575 455 610 c 0
 455 664 425 694 369 694 c 0
 266 694 205 606 179 431 c 2
 134 126 l 2
 121 36 105 -39 59 -103 c 0
 6 -178 -49 -216 -97 -216 c 0
 -129 -216 -151 -195 -151 -163 c 0
 -151 -147 -143 -133 -129 -123 c 1
 -25 -150 l 1
 22 -101 39 -10 58 123 c 2
 100 410 l 2
 132 628 224 738 374 738 c 0
 468 738 522 688 522 607 c 0
 522 573 512 516 490 437 c 1xf4
EndSplineSet
Substitution2: "'smcp' Lowercase to Small Capitals in Latin lookup 4 subtable" germandbls.sc
Substitution2: "'ss01' Style Set 1 lookup 1 subtable" germandbls.ss01
EndChar

StartChar: agrave
Encoding: 224 224 159
Width: 525
GlyphClass: 2
Flags: MW
HStem: -9 61<158 179> 443 39<250.5 303 303 314 250.5 317> 716 20G<194 293 293 293>
VStem: 17 83<132 199.5>
LayerCount: 2
Fore
SplineSet
410 482 m 1
 462 482 l 1
 452 461 439 413 424 339 c 2
 388 162 l 2
 381 129 378 106 378 92 c 0
 378 60 395 46 432 46 c 0
 443 46 461 50 488 56 c 1
 488 26 l 1
 433 3 392 -9 365 -9 c 0
 323 -9 304 16 304 67 c 2
 304 75 l 1
 251 19 203 -9 155 -9 c 0
 70 -9 17 56 17 166 c 0
 17 233 35 295 69 351 c 0
 120 435 201 482 300 482 c 0
 328 482 359 475 390 460 c 1
 410 482 l 1
317 443 m 1
 303 443 l 2
 186 443 100 331 100 172 c 0
 100 92 129 52 187 52 c 0
 225 52 264 74 305 118 c 1
 357 382 l 1
 317 443 l 1
194 736 m 1
 293 736 l 1
 353 546 l 1
 303 546 l 1
 194 736 l 1
EndSplineSet
Substitution2: "'smcp' Lowercase to Small Capitals in Latin lookup 4 subtable" agrave.sc
EndChar

StartChar: aacute
Encoding: 225 225 160
Width: 525
GlyphClass: 2
Flags: MW
HStem: -9 61<158 179> 443 39<250.5 303 303 314 250.5 317> 716 20G<399 498 498 498>
VStem: 17 83<132 199.5>
LayerCount: 2
Fore
SplineSet
410 482 m 1
 462 482 l 1
 452 461 439 413 424 339 c 2
 388 162 l 2
 381 129 378 106 378 92 c 0
 378 60 395 46 432 46 c 0
 443 46 461 50 488 56 c 1
 488 26 l 1
 433 3 392 -9 365 -9 c 0
 323 -9 304 16 304 67 c 2
 304 75 l 1
 251 19 203 -9 155 -9 c 0
 70 -9 17 56 17 166 c 0
 17 233 35 295 69 351 c 0
 120 435 201 482 300 482 c 0
 328 482 359 475 390 460 c 1
 410 482 l 1
317 443 m 1
 303 443 l 2
 186 443 100 331 100 172 c 0
 100 92 129 52 187 52 c 0
 225 52 264 74 305 118 c 1
 357 382 l 1
 317 443 l 1
399 736 m 1
 498 736 l 1
 315 546 l 1
 266 546 l 1
 399 736 l 1
EndSplineSet
Substitution2: "'smcp' Lowercase to Small Capitals in Latin lookup 4 subtable" aacute.sc
EndChar

StartChar: acircumflex
Encoding: 226 226 161
Width: 525
GlyphClass: 2
Flags: MW
HStem: -9 61<158 179> 443 39<250.5 303 303 314 250.5 317> 716 20G<307 372 372 372>
VStem: 17 83<132 199.5> 161 55<546 546>
LayerCount: 2
Fore
SplineSet
410 482 m 1
 462 482 l 1
 452 461 439 413 424 339 c 2
 388 162 l 2
 381 129 378 106 378 92 c 0
 378 60 395 46 432 46 c 0
 443 46 461 50 488 56 c 1
 488 26 l 1
 433 3 392 -9 365 -9 c 0
 323 -9 304 16 304 67 c 2
 304 75 l 1
 251 19 203 -9 155 -9 c 0
 70 -9 17 56 17 166 c 0
 17 233 35 295 69 351 c 0
 120 435 201 482 300 482 c 0
 328 482 359 475 390 460 c 1
 410 482 l 1
317 443 m 1
 303 443 l 2
 186 443 100 331 100 172 c 0
 100 92 129 52 187 52 c 0
 225 52 264 74 305 118 c 1
 357 382 l 1
 317 443 l 1
307 736 m 1
 372 736 l 1
 446 546 l 1
 391 546 l 1
 330 687 l 1
 216 546 l 1
 161 546 l 1
 307 736 l 1
EndSplineSet
Substitution2: "'smcp' Lowercase to Small Capitals in Latin lookup 4 subtable" acircumflex.sc
EndChar

StartChar: atilde
Encoding: 227 227 162
Width: 525
GlyphClass: 2
Flags: MW
HStem: -9 61<158 179> 443 39<250.5 303 303 314 250.5 317> 588 53<377 406.5> 638 55<235 260>
VStem: 17 83<132 199.5> 156 43<573 573> 445 42<708 708>
LayerCount: 2
Fore
SplineSet
410 482 m 1xce
 462 482 l 1
 452 461 439 413 424 339 c 2
 388 162 l 2
 381 129 378 106 378 92 c 0
 378 60 395 46 432 46 c 0
 443 46 461 50 488 56 c 1
 488 26 l 1
 433 3 392 -9 365 -9 c 0
 323 -9 304 16 304 67 c 2
 304 75 l 1
 251 19 203 -9 155 -9 c 0
 70 -9 17 56 17 166 c 0
 17 233 35 295 69 351 c 0
 120 435 201 482 300 482 c 0
 328 482 359 475 390 460 c 1
 410 482 l 1xce
317 443 m 1
 303 443 l 2
 186 443 100 331 100 172 c 0
 100 92 129 52 187 52 c 0
 225 52 264 74 305 118 c 1
 357 382 l 1
 317 443 l 1
445 708 m 1
 487 708 l 1
 478 633 432 588 381 588 c 0xee
 322 588 274 638 246 638 c 0
 223 638 202 614 199 573 c 1
 156 573 l 1
 168 652 206 693 264 693 c 0xde
 317 693 360 641 394 641 c 0xee
 421 641 438 663 445 708 c 1
EndSplineSet
Substitution2: "'smcp' Lowercase to Small Capitals in Latin lookup 4 subtable" atilde.sc
EndChar

StartChar: adieresis
Encoding: 228 228 163
Width: 525
GlyphClass: 2
Flags: MW
HStem: -9 61<158 179> 443 39<250.5 303 303 314 250.5 317> 590 102<213 240 400 427>
VStem: 17 83<132 199.5> 176 102<627 655 627 655.5> 362 102<627 655 627 655.5>
LayerCount: 2
Fore
SplineSet
410 482 m 1
 462 482 l 1
 452 461 439 413 424 339 c 2
 388 162 l 2
 381 129 378 106 378 92 c 0
 378 60 395 46 432 46 c 0
 443 46 461 50 488 56 c 1
 488 26 l 1
 433 3 392 -9 365 -9 c 0
 323 -9 304 16 304 67 c 2
 304 75 l 1
 251 19 203 -9 155 -9 c 0
 70 -9 17 56 17 166 c 0
 17 233 35 295 69 351 c 0
 120 435 201 482 300 482 c 0
 328 482 359 475 390 460 c 1
 410 482 l 1
317 443 m 1
 303 443 l 2
 186 443 100 331 100 172 c 0
 100 92 129 52 187 52 c 0
 225 52 264 74 305 118 c 1
 357 382 l 1
 317 443 l 1
226 692 m 0
 255 692 278 669 278 641 c 0
 278 613 254 590 226 590 c 0
 200 590 176 613 176 641 c 0
 176 670 199 692 226 692 c 0
413 692 m 0
 442 692 464 669 464 641 c 0
 464 613 441 590 413 590 c 0
 387 590 362 613 362 641 c 0
 362 670 386 692 413 692 c 0
EndSplineSet
Substitution2: "'smcp' Lowercase to Small Capitals in Latin lookup 4 subtable" adieresis.sc
EndChar

StartChar: aring
Encoding: 229 229 164
Width: 525
GlyphClass: 2
Flags: MW
HStem: -9 61<158 179> 443 39<250.5 303 303 314 250.5 317> 546 41<299.5 336.5 299.5 348.5> 720 41<299.5 336.5>
VStem: 17 83<132 199.5> 210 41<634.5 672 634.5 683> 385 41<635 671.5>
LayerCount: 2
Fore
SplineSet
318 761 m 0
 378 761 426 713 426 653 c 0
 426 593 379 546 318 546 c 0
 258 546 210 593 210 653 c 0
 210 713 258 761 318 761 c 0
318 720 m 0
 281 720 251 691 251 653 c 0
 251 616 281 587 318 587 c 0
 355 587 385 617 385 653 c 0
 385 690 355 720 318 720 c 0
390 460 m 1
 410 482 l 1
 462 482 l 1
 452 461 439 413 424 339 c 2
 388 162 l 2
 381 129 378 106 378 92 c 0
 378 60 395 46 432 46 c 0
 443 46 461 50 488 56 c 1
 488 26 l 1
 433 3 392 -9 365 -9 c 0
 323 -9 304 16 304 67 c 2
 304 75 l 1
 251 19 203 -9 155 -9 c 0
 70 -9 17 56 17 166 c 0
 17 233 35 295 69 351 c 0
 120 435 201 482 300 482 c 0
 328 482 359 475 390 460 c 1
317 443 m 1
 303 443 l 2
 186 443 100 331 100 172 c 0
 100 92 129 52 187 52 c 0
 225 52 264 74 305 118 c 1
 357 382 l 1
 317 443 l 1
EndSplineSet
Substitution2: "'smcp' Lowercase to Small Capitals in Latin lookup 4 subtable" aring.sc
EndChar

StartChar: ae
Encoding: 230 230 165
Width: 671
GlyphClass: 2
Flags: MW
HStem: -8 60<71.5 177.5> 81 47<616 616> 439 43<228.5 260.5 500.5 518.5>
VStem: 2 90<95.5 142.5> 275 77<160 182> 556 72<354.5 401.5>
AnchorPoint: "Anchor-2" 291 0 basechar 0
LayerCount: 2
Fore
SplineSet
291 68 m 1
 221 18 158 -8 103 -8 c 0
 40 -8 2 33 2 93 c 0
 2 192 97 249 288 268 c 1
 300 329 l 2
 304 348 306 364 306 377 c 0
 306 417 282 439 239 439 c 0
 218 439 196 433 172 423 c 1
 156 341 l 1
 58 341 l 1
 58 422 146 482 268 482 c 0
 327 482 362 461 376 415 c 1
 430 459 476 482 525 482 c 0
 588 482 628 443 628 383 c 0
 628 298 533 234 355 222 c 1
 353 208 352 192 352 176 c 0
 352 95 392 46 456 46 c 0
 502 46 558 74 616 128 c 1
 616 81 l 1
 554 21 488 -8 422 -8 c 0
 362 -8 320 16 291 68 c 1
282 100 m 1
 278 124 275 148 275 172 c 0
 275 192 277 211 280 231 c 1
 153 215 92 181 92 116 c 0
 92 75 115 52 159 52 c 0
 196 52 237 68 282 100 c 1
360 256 m 1
 485 263 556 323 556 386 c 0
 556 417 533 439 504 439 c 0
 446 439 389 377 360 256 c 1
EndSplineSet
Substitution2: "'smcp' Lowercase to Small Capitals in Latin lookup 4 subtable" ae.sc
EndChar

StartChar: ccedilla
Encoding: 231 231 166
Width: 394
GlyphClass: 2
Flags: MW
HStem: -223 38<65.5 96.5 62.5 117.5> -20 20G<105 141 141 141> -10 60<163 192.5> 87 46<350 350> 436 49<203.5 304.5 246 249>
VStem: 15 79<142.5 216.5> 148 65<-145.5 -124.5>
AnchorPoint: "Anchor-1" 277 483 basechar 0
LayerCount: 2
Fore
SplineSet
307 360 m 1xbe
 249 436 l 1
 244 436 l 2
 163 436 94 335 94 186 c 0
 94 99 132 50 194 50 c 0
 240 50 296 78 350 133 c 1
 350 87 l 1
 288 22 222 -10 163 -10 c 0
 75 -10 15 59 15 172 c 0
 15 261 45 340 98 398 c 0
 149 454 215 485 277 485 c 0
 332 485 370 453 370 415 c 0
 370 384 345 361 307 360 c 1xbe
105 0 m 1xde
 141 0 l 1
 129 -61 l 1
 138 -60 146 -60 150 -60 c 0
 191 -60 213 -80 213 -116 c 0
 213 -175 159 -223 76 -223 c 0
 55 -223 32 -220 8 -213 c 1
 15 -177 l 1
 33 -182 52 -185 73 -185 c 0
 120 -185 148 -164 148 -133 c 0
 148 -116 132 -105 105 -105 c 0
 99 -105 92 -106 84 -107 c 1
 105 0 l 1xde
EndSplineSet
Substitution2: "'smcp' Lowercase to Small Capitals in Latin lookup 4 subtable" ccedilla.sc
EndChar

StartChar: egrave
Encoding: 232 232 167
Width: 424
GlyphClass: 2
Flags: MW
HStem: -9 55<174 205> 81 47<366 366> 440 42<250.5 268.5> 716 20G<156 255 255 255>
VStem: 21 81<135.5 184 135.5 215> 306 72<354.5 401.5>
LayerCount: 2
Fore
SplineSet
110 256 m 1
 235 263 306 323 306 386 c 0
 306 417 283 440 254 440 c 0
 196 440 139 377 110 256 c 1
105 222 m 1
 103 208 102 192 102 176 c 0
 102 95 142 46 206 46 c 0
 252 46 308 74 366 128 c 1
 366 81 l 1
 304 21 238 -9 172 -9 c 0
 78 -9 21 57 21 173 c 0
 21 257 54 341 110 400 c 0
 161 453 226 482 275 482 c 0
 338 482 378 443 378 383 c 0
 378 298 283 234 105 222 c 1
156 736 m 1
 255 736 l 1
 315 546 l 1
 265 546 l 1
 156 736 l 1
EndSplineSet
Substitution2: "'smcp' Lowercase to Small Capitals in Latin lookup 4 subtable" egrave.sc
EndChar

StartChar: eacute
Encoding: 233 233 168
Width: 424
GlyphClass: 2
Flags: MW
HStem: -9 55<174 205> 81 47<366 366> 440 42<250.5 268.5> 716 20G<361 460 460 460>
VStem: 21 81<135.5 184 135.5 215> 306 72<354.5 401.5>
LayerCount: 2
Fore
SplineSet
110 256 m 1
 235 263 306 323 306 386 c 0
 306 417 283 440 254 440 c 0
 196 440 139 377 110 256 c 1
105 222 m 1
 103 208 102 192 102 176 c 0
 102 95 142 46 206 46 c 0
 252 46 308 74 366 128 c 1
 366 81 l 1
 304 21 238 -9 172 -9 c 0
 78 -9 21 57 21 173 c 0
 21 257 54 341 110 400 c 0
 161 453 226 482 275 482 c 0
 338 482 378 443 378 383 c 0
 378 298 283 234 105 222 c 1
361 736 m 1
 460 736 l 1
 277 546 l 1
 228 546 l 1
 361 736 l 1
EndSplineSet
Substitution2: "'smcp' Lowercase to Small Capitals in Latin lookup 4 subtable" eacute.sc
EndChar

StartChar: ecircumflex
Encoding: 234 234 169
Width: 424
GlyphClass: 2
Flags: MW
HStem: -9 55<174 205> 81 47<366 366> 440 42<250.5 268.5> 716 20G<269 334 334 334>
VStem: 21 81<135.5 184 135.5 215> 123 55<546 546> 306 72<354.5 401.5>
LayerCount: 2
Fore
SplineSet
110 256 m 1
 235 263 306 323 306 386 c 0
 306 417 283 440 254 440 c 0
 196 440 139 377 110 256 c 1
105 222 m 1
 103 208 102 192 102 176 c 0
 102 95 142 46 206 46 c 0
 252 46 308 74 366 128 c 1
 366 81 l 1
 304 21 238 -9 172 -9 c 0
 78 -9 21 57 21 173 c 0
 21 257 54 341 110 400 c 0
 161 453 226 482 275 482 c 0
 338 482 378 443 378 383 c 0
 378 298 283 234 105 222 c 1
269 736 m 1
 334 736 l 1
 408 546 l 1
 353 546 l 1
 292 687 l 1
 178 546 l 1
 123 546 l 1
 269 736 l 1
EndSplineSet
Substitution2: "'smcp' Lowercase to Small Capitals in Latin lookup 4 subtable" ecircumflex.sc
EndChar

StartChar: edieresis
Encoding: 235 235 170
Width: 424
GlyphClass: 2
Flags: MW
HStem: -9 55<174 205> 81 47<366 366> 440 42<250.5 268.5> 590 102<175 202 362 389>
VStem: 21 81<135.5 184 135.5 215> 138 102<627 655 627 655.5> 306 72<354.5 401.5> 324 102<627 655 627 655.5>
LayerCount: 2
Fore
SplineSet
110 256 m 1xfe
 235 263 306 323 306 386 c 0
 306 417 283 440 254 440 c 0
 196 440 139 377 110 256 c 1xfe
105 222 m 1
 103 208 102 192 102 176 c 0
 102 95 142 46 206 46 c 0
 252 46 308 74 366 128 c 1
 366 81 l 1
 304 21 238 -9 172 -9 c 0
 78 -9 21 57 21 173 c 0
 21 257 54 341 110 400 c 0
 161 453 226 482 275 482 c 0
 338 482 378 443 378 383 c 0
 378 298 283 234 105 222 c 1
188 692 m 0
 217 692 240 669 240 641 c 0
 240 613 216 590 188 590 c 0
 162 590 138 613 138 641 c 0
 138 670 161 692 188 692 c 0
375 692 m 0
 404 692 426 669 426 641 c 0
 426 613 403 590 375 590 c 0
 349 590 324 613 324 641 c 0xfd
 324 670 348 692 375 692 c 0
EndSplineSet
Substitution2: "'smcp' Lowercase to Small Capitals in Latin lookup 4 subtable" edieresis.sc
EndChar

StartChar: igrave
Encoding: 236 236 171
Width: 287
GlyphClass: 2
Flags: MW
HStem: -7 51<91.5 189.5> 424 26<33 33> 462 20G<181 207 207 207> 716 20G<75 174 174 174>
VStem: 49 83<37 86>
LayerCount: 2
Fore
SplineSet
181 482 m 1
 207 482 l 1
 135 108 l 2
 133 97 132 89 132 83 c 0
 132 57 149 44 180 44 c 0
 199 44 223 49 254 59 c 1
 254 28 l 1
 199 5 151 -7 113 -7 c 0
 70 -7 49 15 49 59 c 0
 49 71 51 89 55 111 c 2
 114 409 l 1
 33 424 l 1
 33 450 l 1
 181 482 l 1
75 736 m 1
 174 736 l 1
 234 546 l 1
 184 546 l 1
 75 736 l 1
EndSplineSet
Substitution2: "'smcp' Lowercase to Small Capitals in Latin lookup 4 subtable" igrave.sc
EndChar

StartChar: iacute
Encoding: 237 237 172
Width: 287
GlyphClass: 2
Flags: MW
HStem: -7 51<91.5 189.5> 424 26<33 33> 462 20G<181 207 207 207> 716 20G<280 379 379 379>
VStem: 49 83<37 86>
LayerCount: 2
Fore
SplineSet
181 482 m 1
 207 482 l 1
 135 108 l 2
 133 97 132 89 132 83 c 0
 132 57 149 44 180 44 c 0
 199 44 223 49 254 59 c 1
 254 28 l 1
 199 5 151 -7 113 -7 c 0
 70 -7 49 15 49 59 c 0
 49 71 51 89 55 111 c 2
 114 409 l 1
 33 424 l 1
 33 450 l 1
 181 482 l 1
280 736 m 1
 379 736 l 1
 196 546 l 1
 147 546 l 1
 280 736 l 1
EndSplineSet
Substitution2: "'smcp' Lowercase to Small Capitals in Latin lookup 4 subtable" iacute.sc
EndChar

StartChar: icircumflex
Encoding: 238 238 173
Width: 287
GlyphClass: 2
Flags: MW
HStem: -7 51<91.5 189.5> 424 26<33 33> 462 20G<181 207 207 207> 716 20G<188 253 253 253>
VStem: 42 55<546 546> 49 83<37 86>
LayerCount: 2
Fore
SplineSet
181 482 m 1xf4
 207 482 l 1
 135 108 l 2
 133 97 132 89 132 83 c 0
 132 57 149 44 180 44 c 0
 199 44 223 49 254 59 c 1
 254 28 l 1
 199 5 151 -7 113 -7 c 0
 70 -7 49 15 49 59 c 0
 49 71 51 89 55 111 c 2
 114 409 l 1
 33 424 l 1
 33 450 l 1
 181 482 l 1xf4
188 736 m 1
 253 736 l 1
 327 546 l 1
 272 546 l 1
 211 687 l 1
 97 546 l 1
 42 546 l 1xf8
 188 736 l 1
EndSplineSet
Substitution2: "'smcp' Lowercase to Small Capitals in Latin lookup 4 subtable" icircumflex.sc
EndChar

StartChar: idieresis
Encoding: 239 239 174
Width: 287
GlyphClass: 2
Flags: MW
HStem: -7 51<91.5 189.5> 424 26<33 33> 462 20G<181 207 207 207> 590 102<94 121 281 308>
VStem: 49 83<37 86> 57 102<627 655 627 655.5> 243 102<627 655 627 655.5>
AnchorPoint: "Anchor-1" 204 672 basechar 0
LayerCount: 2
Fore
SplineSet
181 482 m 1xfa
 207 482 l 1
 135 108 l 2
 133 97 132 89 132 83 c 0
 132 57 149 44 180 44 c 0
 199 44 223 49 254 59 c 1
 254 28 l 1
 199 5 151 -7 113 -7 c 0
 70 -7 49 15 49 59 c 0
 49 71 51 89 55 111 c 2
 114 409 l 1
 33 424 l 1
 33 450 l 1
 181 482 l 1xfa
107 692 m 0
 136 692 159 669 159 641 c 0
 159 613 135 590 107 590 c 0
 81 590 57 613 57 641 c 0xf6
 57 670 80 692 107 692 c 0
294 692 m 0
 323 692 345 669 345 641 c 0
 345 613 322 590 294 590 c 0
 268 590 243 613 243 641 c 0
 243 670 267 692 294 692 c 0
EndSplineSet
Substitution2: "'smcp' Lowercase to Small Capitals in Latin lookup 4 subtable" idieresis.sc
EndChar

StartChar: eth
Encoding: 240 240 175
Width: 500
GlyphClass: 2
Flags: MW
HStem: -9 41<174.5 246.5 174.5 263.5> 444 37<238 279.5 238 291.5> 664 20G<449 449> 681 28<149 153>
VStem: 22 85<132 221> 361 82<212 315.5>
LayerCount: 2
Fore
SplineSet
330 476 m 1xec
 316 511 301 545 284 578 c 1
 145 522 l 1
 131 559 l 1
 262 610 l 1
 227 661 l 1
 149 681 l 1
 153 709 l 1xdc
 270 725 l 1
 331 638 l 1
 449 684 l 1
 464 649 l 1
 352 604 l 1
 411 493 443 394 443 298 c 0
 443 117 335 -9 192 -9 c 0
 89 -9 22 64 22 181 c 0
 22 261 52 344 104 404 c 0
 148 455 205 481 271 481 c 0
 288 481 308 480 330 476 c 1xec
340 437 m 1
 319 442 300 444 283 444 c 0
 178 444 107 338 107 180 c 0
 107 84 145 32 204 32 c 0
 289 32 361 134 361 290 c 0
 361 341 354 390 340 437 c 1
EndSplineSet
Substitution2: "'smcp' Lowercase to Small Capitals in Latin lookup 4 subtable" eth.sc
EndChar

StartChar: ntilde
Encoding: 241 241 176
Width: 556
GlyphClass: 2
Flags: MW
HStem: -6 49<369.5 466> 420 62 424 25<33 33> 588 53<375 404.5> 638 55<233 258>
VStem: 32 85<0 0> 154 43<573 573> 321 86<34 99.5> 381 85<350.5 426.5> 443 42<708 708>
LayerCount: 2
Fore
SplineSet
181 482 m 1xc680
 206 482 l 1
 188 386 l 1
 267 449 329 482 382 482 c 0
 434 482 466 451 466 402 c 0xc680
 466 377 460 349 452 313 c 2
 418 158 l 2
 412 129 407 107 407 92 c 0
 407 60 426 43 459 43 c 0
 473 43 491 46 514 52 c 1
 514 24 l 1
 462 4 422 -6 394 -6 c 0
 345 -6 321 14 321 54 c 0xc7
 321 67 324 86 329 108 c 2
 372 293 l 2
 379 322 381 344 381 357 c 0
 381 401 365 420 327 420 c 0xc680
 293 420 240 394 179 338 c 1
 117 0 l 1
 32 0 l 1
 115 409 l 1
 33 424 l 1
 33 449 l 1xa680
 181 482 l 1xc680
443 708 m 1x9640
 485 708 l 1
 476 633 430 588 379 588 c 0x9640
 320 588 272 638 244 638 c 0
 221 638 200 614 197 573 c 1
 154 573 l 1
 166 652 204 693 262 693 c 0x8e40
 315 693 358 641 392 641 c 0
 419 641 436 663 443 708 c 1x9640
EndSplineSet
Substitution2: "'smcp' Lowercase to Small Capitals in Latin lookup 4 subtable" ntilde.sc
EndChar

StartChar: ograve
Encoding: 242 242 177
Width: 502
GlyphClass: 2
Flags: MW
HStem: -9 41<174 226.5> 444 39<245 296.5> 716 20G<182 281 281 281>
VStem: 22 85<132 221.5> 364 85<247.5 342.5>
LayerCount: 2
Fore
SplineSet
279 483 m 0
 383 483 449 408 449 287 c 0
 449 208 420 132 368 72 c 0
 321 18 261 -9 192 -9 c 0
 89 -9 22 65 22 181 c 0
 22 262 52 343 102 400 c 0
 150 454 211 483 279 483 c 0
266 444 m 0
 180 444 107 335 107 180 c 0
 107 84 144 32 204 32 c 0
 289 32 364 141 364 293 c 0
 364 392 327 444 266 444 c 0
182 736 m 1
 281 736 l 1
 341 546 l 1
 291 546 l 1
 182 736 l 1
EndSplineSet
Substitution2: "'smcp' Lowercase to Small Capitals in Latin lookup 4 subtable" ograve.sc
EndChar

StartChar: oacute
Encoding: 243 243 178
Width: 502
GlyphClass: 2
Flags: MW
HStem: -9 41<174 226.5> 444 39<245 296.5> 716 20G<387 486 486 486>
VStem: 22 85<132 221.5> 364 85<247.5 342.5>
LayerCount: 2
Fore
SplineSet
279 483 m 0
 383 483 449 408 449 287 c 0
 449 208 420 132 368 72 c 0
 321 18 261 -9 192 -9 c 0
 89 -9 22 65 22 181 c 0
 22 262 52 343 102 400 c 0
 150 454 211 483 279 483 c 0
266 444 m 0
 180 444 107 335 107 180 c 0
 107 84 144 32 204 32 c 0
 289 32 364 141 364 293 c 0
 364 392 327 444 266 444 c 0
387 736 m 1
 486 736 l 1
 303 546 l 1
 254 546 l 1
 387 736 l 1
EndSplineSet
Substitution2: "'smcp' Lowercase to Small Capitals in Latin lookup 4 subtable" oacute.sc
EndChar

StartChar: ocircumflex
Encoding: 244 244 179
Width: 502
GlyphClass: 2
Flags: MW
HStem: -9 41<174 226.5> 444 39<245 296.5> 716 20G<295 360 360 360>
VStem: 22 85<132 221.5> 149 55<546 546> 364 85<247.5 342.5>
LayerCount: 2
Fore
SplineSet
279 483 m 0
 383 483 449 408 449 287 c 0
 449 208 420 132 368 72 c 0
 321 18 261 -9 192 -9 c 0
 89 -9 22 65 22 181 c 0
 22 262 52 343 102 400 c 0
 150 454 211 483 279 483 c 0
266 444 m 0
 180 444 107 335 107 180 c 0
 107 84 144 32 204 32 c 0
 289 32 364 141 364 293 c 0
 364 392 327 444 266 444 c 0
295 736 m 1
 360 736 l 1
 434 546 l 1
 379 546 l 1
 318 687 l 1
 204 546 l 1
 149 546 l 1
 295 736 l 1
EndSplineSet
EndChar

StartChar: otilde
Encoding: 245 245 180
Width: 502
GlyphClass: 2
Flags: MW
HStem: -9 41<174 226.5> 444 39<245 296.5> 588 53<365 394.5> 638 55<223 248>
VStem: 22 85<132 221.5> 144 43<573 573> 364 85<247.5 342.5> 433 42<708 708>
LayerCount: 2
Fore
SplineSet
279 483 m 0xce
 383 483 449 408 449 287 c 0
 449 208 420 132 368 72 c 0
 321 18 261 -9 192 -9 c 0
 89 -9 22 65 22 181 c 0
 22 262 52 343 102 400 c 0
 150 454 211 483 279 483 c 0xce
266 444 m 0
 180 444 107 335 107 180 c 0
 107 84 144 32 204 32 c 0
 289 32 364 141 364 293 c 0
 364 392 327 444 266 444 c 0
433 708 m 1xed
 475 708 l 1
 466 633 420 588 369 588 c 0xed
 310 588 262 638 234 638 c 0
 211 638 190 614 187 573 c 1
 144 573 l 1
 156 652 194 693 252 693 c 0xdd
 305 693 348 641 382 641 c 0
 409 641 426 663 433 708 c 1xed
EndSplineSet
Substitution2: "'smcp' Lowercase to Small Capitals in Latin lookup 4 subtable" otilde.sc
EndChar

StartChar: odieresis
Encoding: 246 246 181
Width: 502
GlyphClass: 2
Flags: MW
HStem: -9 41<174 226.5> 444 39<245 296.5> 590 102<201 228 388 415>
VStem: 22 85<132 221.5> 164 102<627 655 627 655.5> 350 102<627 655 627 655.5> 364 85<247.5 342.5>
LayerCount: 2
Fore
SplineSet
279 483 m 0xfa
 383 483 449 408 449 287 c 0
 449 208 420 132 368 72 c 0
 321 18 261 -9 192 -9 c 0
 89 -9 22 65 22 181 c 0
 22 262 52 343 102 400 c 0
 150 454 211 483 279 483 c 0xfa
266 444 m 0
 180 444 107 335 107 180 c 0
 107 84 144 32 204 32 c 0
 289 32 364 141 364 293 c 0
 364 392 327 444 266 444 c 0
214 692 m 0
 243 692 266 669 266 641 c 0
 266 613 242 590 214 590 c 0
 188 590 164 613 164 641 c 0
 164 670 187 692 214 692 c 0
401 692 m 0
 430 692 452 669 452 641 c 0
 452 613 429 590 401 590 c 0
 375 590 350 613 350 641 c 0xfc
 350 670 374 692 401 692 c 0
EndSplineSet
Substitution2: "'smcp' Lowercase to Small Capitals in Latin lookup 4 subtable" odieresis.sc
EndChar

StartChar: divide
Encoding: 247 247 182
Width: 833
GlyphClass: 2
Flags: MW
HStem: 66 112<402 432 402 433> 270 57<124 709 124 709> 418 112<402 432.5 402 433>
VStem: 361 112<107 137.5 107 138 459 489.5>
LayerCount: 2
Fore
SplineSet
417 530 m 0
 448 530 473 505 473 474 c 0
 473 444 449 418 417 418 c 0
 385 418 361 443 361 474 c 0
 361 505 387 530 417 530 c 0
124 327 m 1
 709 327 l 1
 709 270 l 1
 124 270 l 1
 124 327 l 1
417 178 m 0
 447 178 473 153 473 122 c 0
 473 92 449 66 417 66 c 0
 386 66 361 91 361 122 c 0
 361 154 387 178 417 178 c 0
EndSplineSet
EndChar

StartChar: oslash
Encoding: 248 248 183
Width: 502
GlyphClass: 2
Flags: MW
HStem: -9 41<192 226.5> 444 39<244.5 281.5>
VStem: 22 80<164 221.5> 371 78<248 311>
LayerCount: 2
Fore
SplineSet
414 547 m 1
 442 529 l 1
 388 445 l 1
 427 410 449 357 449 287 c 0
 449 209 420 132 368 72 c 0
 321 19 261 -9 192 -9 c 0
 169 -9 143 -4 116 7 c 1
 60 -80 l 1
 35 -63 l 1
 88 24 l 1
 44 62 22 113 22 181 c 0
 22 262 52 343 102 400 c 0
 150 454 210 483 279 483 c 0
 312 483 340 476 362 463 c 1
 414 547 l 1
334 416 m 1
 316 435 295 444 268 444 c 0
 179 444 102 331 102 182 c 0
 102 146 108 113 122 81 c 1
 334 416 l 1
353 386 m 1
 143 55 l 1
 159 39 180 32 204 32 c 0
 294 32 371 142 371 291 c 0
 371 331 365 363 353 386 c 1
EndSplineSet
Substitution2: "'smcp' Lowercase to Small Capitals in Latin lookup 4 subtable" oslash.sc
EndChar

StartChar: ugrave
Encoding: 249 249 184
Width: 553
GlyphClass: 2
Flags: MW
HStem: -8 48<363.5 462.5> -8 57<169 171> 424 26<30 30> 463 20G<187 187> 716 20G<186 285 285 285>
VStem: 47 82<86.5 94.5> 324 80<34 89.5> 404 81<473 473>
LayerCount: 2
Fore
SplineSet
187 483 m 1x7e
 203 469 l 1
 140 178 l 2
 133 144 129 119 129 104 c 0
 129 69 151 49 187 49 c 0
 222 49 273 68 329 112 c 1
 404 473 l 1
 485 473 l 1x7d
 414 147 l 2
 409 122 404 100 404 79 c 0
 404 58 424 40 456 40 c 0
 469 40 488 44 512 51 c 1
 512 23 l 1
 457 3 415 -8 384 -8 c 0xbe
 343 -8 324 12 324 56 c 0
 324 62 324 68 325 75 c 1
 258 19 198 -8 144 -8 c 0
 84 -8 47 27 47 86 c 0
 47 103 50 123 55 146 c 2
 113 409 l 1
 30 424 l 1
 30 450 l 1
 187 483 l 1x7e
186 736 m 1
 285 736 l 1
 345 546 l 1
 295 546 l 1
 186 736 l 1
EndSplineSet
Substitution2: "'smcp' Lowercase to Small Capitals in Latin lookup 4 subtable" ugrave.sc
EndChar

StartChar: uacute
Encoding: 250 250 185
Width: 553
GlyphClass: 2
Flags: MW
HStem: -8 48<363.5 462.5> -8 57<169 171> 424 26<30 30> 463 20G<187 187> 716 20G<391 490 490 490>
VStem: 47 82<86.5 94.5> 324 80<34 89.5> 404 81<473 473>
LayerCount: 2
Fore
SplineSet
187 483 m 1x7e
 203 469 l 1
 140 178 l 2
 133 144 129 119 129 104 c 0
 129 69 151 49 187 49 c 0
 222 49 273 68 329 112 c 1
 404 473 l 1
 485 473 l 1x7d
 414 147 l 2
 409 122 404 100 404 79 c 0
 404 58 424 40 456 40 c 0
 469 40 488 44 512 51 c 1
 512 23 l 1
 457 3 415 -8 384 -8 c 0xbe
 343 -8 324 12 324 56 c 0
 324 62 324 68 325 75 c 1
 258 19 198 -8 144 -8 c 0
 84 -8 47 27 47 86 c 0
 47 103 50 123 55 146 c 2
 113 409 l 1
 30 424 l 1
 30 450 l 1
 187 483 l 1x7e
391 736 m 1
 490 736 l 1
 307 546 l 1
 258 546 l 1
 391 736 l 1
EndSplineSet
Substitution2: "'smcp' Lowercase to Small Capitals in Latin lookup 4 subtable" uacute.sc
EndChar

StartChar: ucircumflex
Encoding: 251 251 186
Width: 553
GlyphClass: 2
Flags: MW
HStem: -8 48<363.5 462.5> -8 57<169 171> 424 26<30 30> 463 20G<187 187> 716 20G<299 364 364 364>
VStem: 47 82<86.5 94.5> 153 55<546 546> 324 80<34 89.5> 404 81<473 473>
LayerCount: 2
Fore
SplineSet
187 483 m 1x7f
 203 469 l 1
 140 178 l 2
 133 144 129 119 129 104 c 0
 129 69 151 49 187 49 c 0
 222 49 273 68 329 112 c 1
 404 473 l 1
 485 473 l 1x7e80
 414 147 l 2
 409 122 404 100 404 79 c 0
 404 58 424 40 456 40 c 0
 469 40 488 44 512 51 c 1
 512 23 l 1
 457 3 415 -8 384 -8 c 0xbf
 343 -8 324 12 324 56 c 0
 324 62 324 68 325 75 c 1
 258 19 198 -8 144 -8 c 0
 84 -8 47 27 47 86 c 0
 47 103 50 123 55 146 c 2
 113 409 l 1
 30 424 l 1
 30 450 l 1
 187 483 l 1x7f
299 736 m 1
 364 736 l 1
 438 546 l 1
 383 546 l 1
 322 687 l 1
 208 546 l 1
 153 546 l 1
 299 736 l 1
EndSplineSet
Substitution2: "'smcp' Lowercase to Small Capitals in Latin lookup 4 subtable" ucircumflex.sc
EndChar

StartChar: udieresis
Encoding: 252 252 187
Width: 553
GlyphClass: 2
Flags: MW
HStem: -8 48<363.5 462.5> -8 57<169 171> 424 26<30 30> 463 20G<187 187> 590 102<205 232 392 419>
VStem: 47 82<86.5 94.5> 168 102<627 655 627 655.5> 324 80<34 89.5> 354 102<627 655 627 655.5> 404 81<473 473>
LayerCount: 2
Fore
SplineSet
187 483 m 1x7f
 203 469 l 1
 140 178 l 2
 133 144 129 119 129 104 c 0
 129 69 151 49 187 49 c 0
 222 49 273 68 329 112 c 1
 404 473 l 1
 485 473 l 1x7e40
 414 147 l 2
 409 122 404 100 404 79 c 0x7f
 404 58 424 40 456 40 c 0
 469 40 488 44 512 51 c 1
 512 23 l 1
 457 3 415 -8 384 -8 c 0xbe80
 343 -8 324 12 324 56 c 0
 324 62 324 68 325 75 c 1
 258 19 198 -8 144 -8 c 0
 84 -8 47 27 47 86 c 0
 47 103 50 123 55 146 c 2
 113 409 l 1
 30 424 l 1
 30 450 l 1
 187 483 l 1x7f
218 692 m 0
 247 692 270 669 270 641 c 0
 270 613 246 590 218 590 c 0
 192 590 168 613 168 641 c 0
 168 670 191 692 218 692 c 0
405 692 m 0
 434 692 456 669 456 641 c 0
 456 613 433 590 405 590 c 0
 379 590 354 613 354 641 c 0x3e80
 354 670 378 692 405 692 c 0
EndSplineSet
Substitution2: "'smcp' Lowercase to Small Capitals in Latin lookup 4 subtable" udieresis.sc
EndChar

StartChar: yacute
Encoding: 253 253 188
Width: 475
GlyphClass: 2
Flags: MW
HStem: -217 21G<-53.5 12.5> 431 22<-15 -15> 466 21G 716 20G<374 473 473 473>
LayerCount: 2
Fore
SplineSet
83 485 m 2
 87 486 92 486 96 486 c 0
 160 486 167 417 196 271 c 2
 229 102 l 1
 271 209 323 335 386 482 c 1
 405 482 l 1
 484 456 l 1
 484 435 l 1
 433 405 l 1
 360 323 320 184 237 34 c 0
 145 -133 54 -217 -29 -217 c 0
 -78 -217 -113 -187 -113 -151 c 0
 -113 -124 -92 -101 -59 -96 c 1
 0 -155 l 1
 61 -151 116 -92 175 21 c 1
 172 19 l 1
 110 320 l 2
 101 366 88 400 70 424 c 1
 -15 431 l 1
 -15 453 l 1
 83 485 l 2
374 736 m 1
 473 736 l 1
 290 546 l 1
 241 546 l 1
 374 736 l 1
EndSplineSet
Substitution2: "'smcp' Lowercase to Small Capitals in Latin lookup 4 subtable" yacute.sc
EndChar

StartChar: thorn
Encoding: 254 254 189
Width: 516
GlyphClass: 2
Flags: MW
HStem: -218 30<-69 171 -69 -69> -4 44<191 220> 430 53<312.5 315> 680 26<60 60> 716 20G<212 239 239 239>
VStem: 378 83<266 345.5>
LayerCount: 2
Fore
SplineSet
212 736 m 1
 239 736 l 1
 233 703 229 681 227 671 c 2
 183 421 l 1
 241 462 291 483 334 483 c 0
 413 483 461 421 461 308 c 0
 461 221 433 148 376 85 c 0
 325 29 254 -4 186 -4 c 0
 160 -4 134 3 109 15 c 1
 76 -171 l 1
 171 -188 l 1
 171 -218 l 1
 -69 -218 l 1
 -69 -188 l 1
 -10 -176 l 1
 0 -165 l 1
 149 670 l 1
 60 680 l 1
 60 706 l 1
 212 736 l 1
119 67 m 1
 149 49 177 40 205 40 c 0
 249 40 286 60 317 101 c 0
 350 145 378 226 378 306 c 0
 378 385 342 430 288 430 c 0
 258 430 221 412 176 377 c 1
 119 67 l 1
EndSplineSet
Substitution2: "'smcp' Lowercase to Small Capitals in Latin lookup 4 subtable" thorn.sc
EndChar

StartChar: ydieresis
Encoding: 255 255 190
Width: 475
GlyphClass: 2
Flags: MW
HStem: -217 21G<-53.5 12.5> 431 22<-15 -15> 466 21G 590 102<188 215 375 402>
VStem: 151 102<627 655 627 655.5> 337 102<627 655 627 655.5>
LayerCount: 2
Fore
SplineSet
83 485 m 2
 87 486 92 486 96 486 c 0
 160 486 167 417 196 271 c 2
 229 102 l 1
 271 209 323 335 386 482 c 1
 405 482 l 1
 484 456 l 1
 484 435 l 1
 433 405 l 1
 360 323 320 184 237 34 c 0
 145 -133 54 -217 -29 -217 c 0
 -78 -217 -113 -187 -113 -151 c 0
 -113 -124 -92 -101 -59 -96 c 1
 0 -155 l 1
 61 -151 116 -92 175 21 c 1
 172 19 l 1
 110 320 l 2
 101 366 88 400 70 424 c 1
 -15 431 l 1
 -15 453 l 1
 83 485 l 2
201 692 m 0
 230 692 253 669 253 641 c 0
 253 613 229 590 201 590 c 0
 175 590 151 613 151 641 c 0
 151 670 174 692 201 692 c 0
388 692 m 0
 417 692 439 669 439 641 c 0
 439 613 416 590 388 590 c 0
 362 590 337 613 337 641 c 0
 337 670 361 692 388 692 c 0
EndSplineSet
Substitution2: "'smcp' Lowercase to Small Capitals in Latin lookup 4 subtable" ydieresis.sc
EndChar

StartChar: Amacron
Encoding: 256 256 191
Width: 606
GlyphClass: 2
Flags: MW
HStem: 0 38<-79 119 -79 -79> 248 43<182 391 182 400 157 391> 657 20G<345 411 411 411> 814 51<255 565 264 556>
VStem: 255 310<814 865>
LayerCount: 2
Fore
SplineSet
255 814 m 1
 264 865 l 1
 565 865 l 1
 556 814 l 1
 255 814 l 1
345 677 m 1
 411 677 l 1
 518 61 l 1
 535 43 l 1
 584 38 l 1
 584 0 l 1
 365 0 l 1
 365 38 l 1
 424 43 l 1
 431 57 l 1
 400 248 l 1
 157 248 l 1
 50 57 l 1
 58 43 l 1
 119 38 l 1
 119 0 l 1
 -79 0 l 1
 -79 38 l 1
 -24 44 l 1
 345 677 l 1
345 579 m 1
 182 291 l 1
 391 291 l 1
 345 579 l 1
EndSplineSet
EndChar

StartChar: amacron
Encoding: 257 257 192
Width: 525
GlyphClass: 2
Flags: MW
HStem: -9 61<158 179> 443 39<250.5 303 303 314 250.5 317> 615 51<175 485 184 476>
VStem: 17 83<132 199.5> 175 310<615 666>
LayerCount: 2
Fore
SplineSet
175 615 m 1
 184 666 l 1
 485 666 l 1
 476 615 l 1
 175 615 l 1
410 482 m 1
 462 482 l 1
 452 461 439 413 424 339 c 2
 388 162 l 2
 381 129 378 106 378 92 c 0
 378 60 395 46 432 46 c 0
 443 46 461 50 488 56 c 1
 488 26 l 1
 433 3 392 -9 365 -9 c 0
 323 -9 304 16 304 67 c 2
 304 75 l 1
 251 19 203 -9 155 -9 c 0
 70 -9 17 56 17 166 c 0
 17 233 35 295 69 351 c 0
 120 435 201 482 300 482 c 0
 328 482 359 475 390 460 c 1
 410 482 l 1
317 443 m 1
 303 443 l 2
 186 443 100 331 100 172 c 0
 100 92 129 52 187 52 c 0
 225 52 264 74 305 118 c 1
 357 382 l 1
 317 443 l 1
EndSplineSet
EndChar

StartChar: Abreve
Encoding: 258 258 193
Width: 606
GlyphClass: 2
Flags: MW
HStem: 0 38<-79 119 -79 -79> 248 43<182 391 182 400 157 391> 657 20G<345 411 411 411> 737 63<368.5 434.5 368.5 440>
VStem: 272 42<841 847> 519 39<879 879>
LayerCount: 2
Fore
SplineSet
275 879 m 1
 315 879 l 1
 314 873 314 868 314 863 c 0
 314 819 339 800 398 800 c 0
 471 800 504 816 519 879 c 1
 558 879 l 1
 539 781 489 737 391 737 c 0
 310 737 272 770 272 841 c 0
 272 853 273 865 275 879 c 1
345 677 m 1
 411 677 l 1
 518 61 l 1
 535 43 l 1
 584 38 l 1
 584 0 l 1
 365 0 l 1
 365 38 l 1
 424 43 l 1
 431 57 l 1
 400 248 l 1
 157 248 l 1
 50 57 l 1
 58 43 l 1
 119 38 l 1
 119 0 l 1
 -79 0 l 1
 -79 38 l 1
 -24 44 l 1
 345 677 l 1
345 579 m 1
 182 291 l 1
 391 291 l 1
 345 579 l 1
EndSplineSet
Substitution2: "'c2sc' Capitals to Small Capitals in Latin lookup 5 subtable" abreve.sc
EndChar

StartChar: abreve
Encoding: 259 259 194
Width: 525
GlyphClass: 2
Flags: MW
HStem: -9 61<158 179> 443 39<250.5 303 303 314 250.5 317> 567 63<303.5 369.5 303.5 375>
VStem: 17 83<132 199.5> 207 42<671 677> 454 39<709 709>
LayerCount: 2
Fore
SplineSet
210 709 m 1
 250 709 l 1
 249 703 249 698 249 693 c 0
 249 649 274 630 333 630 c 0
 406 630 439 646 454 709 c 1
 493 709 l 1
 474 611 424 567 326 567 c 0
 245 567 207 600 207 671 c 0
 207 683 208 695 210 709 c 1
410 482 m 1
 462 482 l 1
 452 461 439 413 424 339 c 2
 388 162 l 2
 381 129 378 106 378 92 c 0
 378 60 395 46 432 46 c 0
 443 46 461 50 488 56 c 1
 488 26 l 1
 433 3 392 -9 365 -9 c 0
 323 -9 304 16 304 67 c 2
 304 75 l 1
 251 19 203 -9 155 -9 c 0
 70 -9 17 56 17 166 c 0
 17 233 35 295 69 351 c 0
 120 435 201 482 300 482 c 0
 328 482 359 475 390 460 c 1
 410 482 l 1
317 443 m 1
 303 443 l 2
 186 443 100 331 100 172 c 0
 100 92 129 52 187 52 c 0
 225 52 264 74 305 118 c 1
 357 382 l 1
 317 443 l 1
EndSplineSet
Substitution2: "'smcp' Lowercase to Small Capitals in Latin lookup 3 subtable" abreve.sc
EndChar

StartChar: Aogonek
Encoding: 260 260 195
Width: 606
GlyphClass: 2
Flags: MW
HStem: -216 53<456 514.5> 0 38<-79 119 -79 -79> 248 43<182 391 182 400 157 391> 657 20G<345 411 411 411>
VStem: 401 63<-134.5 -128.5>
LayerCount: 2
Fore
SplineSet
345 579 m 1
 182 291 l 1
 391 291 l 1
 345 579 l 1
345 677 m 1
 411 677 l 1
 518 61 l 1
 535 43 l 1
 584 38 l 1
 584 0 l 1
 539 0 l 1
 489 -37 464 -84 464 -122 c 0
 464 -147 481 -163 511 -163 c 0
 518 -163 529 -161 545 -159 c 1
 535 -209 l 1
 517 -214 500 -216 483 -216 c 0
 429 -216 401 -193 401 -154 c 0
 401 -103 434 -42 496 0 c 1
 365 0 l 1
 365 38 l 1
 424 43 l 1
 431 57 l 1
 400 248 l 1
 157 248 l 1
 50 57 l 1
 58 43 l 1
 119 38 l 1
 119 0 l 1
 -79 0 l 1
 -79 38 l 1
 -24 44 l 1
 345 677 l 1
EndSplineSet
Substitution2: "'c2sc' Capitals to Small Capitals in Latin lookup 5 subtable" aogonek.sc
EndChar

StartChar: aogonek
Encoding: 261 261 196
Width: 525
GlyphClass: 2
Flags: MW
HStem: -216 53<336 394.5> -9 61<158 179> 443 39<250.5 303 303 314 250.5 317>
VStem: 17 83<132 199.5> 281 63<-134.5 -130.5> 304 74<67 99 75 99>
LayerCount: 2
Fore
SplineSet
317 443 m 1xf0
 303 443 l 2
 186 443 100 331 100 172 c 0
 100 92 129 52 187 52 c 0
 225 52 264 74 305 118 c 1
 357 382 l 1
 317 443 l 1xf0
410 482 m 1
 462 482 l 1
 452 461 439 413 424 339 c 2
 388 162 l 2
 381 129 378 106 378 92 c 0xf4
 378 60 395 46 432 46 c 0
 443 46 461 50 488 56 c 1
 488 26 l 1
 461 15 437 6 416 0 c 1
 419 0 l 1
 369 -37 344 -84 344 -122 c 0
 344 -147 361 -163 391 -163 c 0
 398 -163 409 -161 425 -159 c 1
 415 -209 l 1
 397 -214 380 -216 363 -216 c 0
 309 -216 281 -193 281 -154 c 0xf8
 281 -107 310 -50 364 -9 c 1
 323 -8 304 17 304 67 c 2
 304 75 l 1xf4
 251 19 203 -9 155 -9 c 0
 70 -9 17 56 17 166 c 0
 17 233 35 295 69 351 c 0
 120 435 201 482 300 482 c 0
 328 482 359 475 390 460 c 1
 410 482 l 1
EndSplineSet
Substitution2: "'smcp' Lowercase to Small Capitals in Latin lookup 3 subtable" aogonek.sc
EndChar

StartChar: Cacute
Encoding: 262 262 197
Width: 604
GlyphClass: 2
Flags: MW
HStem: -12 47<278 341> 636 47<405 456.5>
VStem: 41 95<184 318.5 184 330> 552 42<495 591>
LayerCount: 2
Fore
SplineSet
516 936 m 1
 615 936 l 1
 432 746 l 1
 383 746 l 1
 516 936 l 1
622 649 m 1
 594 495 l 1
 552 495 l 1
 552 591 l 1
 544 610 l 1
 510 628 475 636 438 636 c 0
 372 636 310 612 261 568 c 0
 183 498 136 384 136 253 c 0
 136 115 212 35 344 35 c 0
 372 35 401 40 430 49 c 1
 449 66 l 1
 493 181 l 1
 536 181 l 1
 509 23 l 1
 440 0 372 -12 310 -12 c 0
 145 -12 41 96 41 265 c 0
 41 395 98 516 196 597 c 0
 265 653 349 683 441 683 c 0
 497 683 557 672 622 649 c 1
EndSplineSet
Substitution2: "'c2sc' Capitals to Small Capitals in Latin lookup 5 subtable" cacute.sc
EndChar

StartChar: cacute
Encoding: 263 263 198
Width: 394
GlyphClass: 2
Flags: MW
HStem: -10 60<163 192.5> 87 46<350 350> 436 49<203.5 304.5 246 249> 716 20G<296 395 395 395>
VStem: 15 79<142.5 216.5>
LayerCount: 2
Fore
SplineSet
296 736 m 1
 395 736 l 1
 212 546 l 1
 163 546 l 1
 296 736 l 1
307 360 m 1
 249 436 l 1
 244 436 l 2
 163 436 94 335 94 186 c 0
 94 99 132 50 194 50 c 0
 240 50 296 78 350 133 c 1
 350 87 l 1
 288 22 222 -10 163 -10 c 0
 75 -10 15 59 15 172 c 0
 15 261 45 340 98 398 c 0
 149 454 215 485 277 485 c 0
 332 485 370 453 370 415 c 0
 370 384 345 361 307 360 c 1
EndSplineSet
Substitution2: "'smcp' Lowercase to Small Capitals in Latin lookup 3 subtable" cacute.sc
EndChar

StartChar: Ccircumflex
Encoding: 264 264 199
Width: 604
GlyphClass: 2
Flags: MW
HStem: -12 47<278 341> 636 47<405 456.5> 738 190<308 519 308 519 454 538 454 593>
VStem: 41 95<184 318.5 184 330> 308 55<738 738> 552 42<495 591>
LayerCount: 2
Fore
SplineSet
308 738 m 1
 454 928 l 1
 519 928 l 1
 593 738 l 1
 538 738 l 1
 477 879 l 1
 363 738 l 1
 308 738 l 1
622 649 m 1
 594 495 l 1
 552 495 l 1
 552 591 l 1
 544 610 l 1
 510 628 475 636 438 636 c 0
 372 636 310 612 261 568 c 0
 183 498 136 384 136 253 c 0
 136 115 212 35 344 35 c 0
 372 35 401 40 430 49 c 1
 449 66 l 1
 493 181 l 1
 536 181 l 1
 509 23 l 1
 440 0 372 -12 310 -12 c 0
 145 -12 41 96 41 265 c 0
 41 395 98 516 196 597 c 0
 265 653 349 683 441 683 c 0
 497 683 557 672 622 649 c 1
EndSplineSet
EndChar

StartChar: ccircumflex
Encoding: 265 265 200
Width: 394
GlyphClass: 2
Flags: MW
HStem: -10 60<163 192.5> 87 46<350 350> 436 49<203.5 304.5 246 249> 545 190<146 357 146 357 292 431 292 376>
VStem: 15 79<142.5 216.5> 146 55<545 545>
LayerCount: 2
Fore
SplineSet
292 735 m 1
 357 735 l 1
 431 545 l 1
 376 545 l 1
 315 686 l 1
 201 545 l 1
 146 545 l 1
 292 735 l 1
307 360 m 1
 249 436 l 1
 244 436 l 2
 163 436 94 335 94 186 c 0
 94 99 132 50 194 50 c 0
 240 50 296 78 350 133 c 1
 350 87 l 1
 288 22 222 -10 163 -10 c 0
 75 -10 15 59 15 172 c 0
 15 261 45 340 98 398 c 0
 149 454 215 485 277 485 c 0
 332 485 370 453 370 415 c 0
 370 384 345 361 307 360 c 1
EndSplineSet
EndChar

StartChar: Cdotaccent
Encoding: 266 266 201
Width: 604
GlyphClass: 2
Flags: MW
HStem: -12 47<278 341> 636 47<405 456.5> 777 112<453 482.5>
VStem: 41 95<184 318.5 184 330> 413 112<817.5 848.5> 552 42<495 591>
LayerCount: 2
Fore
SplineSet
413 833 m 0
 413 864 437 889 467 889 c 0
 499 889 525 864 525 833 c 0
 525 802 498 777 467 777 c 0
 439 777 413 802 413 833 c 0
622 649 m 1
 594 495 l 1
 552 495 l 1
 552 591 l 1
 544 610 l 1
 510 628 475 636 438 636 c 0
 372 636 310 612 261 568 c 0
 183 498 136 384 136 253 c 0
 136 115 212 35 344 35 c 0
 372 35 401 40 430 49 c 1
 449 66 l 1
 493 181 l 1
 536 181 l 1
 509 23 l 1
 440 0 372 -12 310 -12 c 0
 145 -12 41 96 41 265 c 0
 41 395 98 516 196 597 c 0
 265 653 349 683 441 683 c 0
 497 683 557 672 622 649 c 1
EndSplineSet
EndChar

StartChar: cdotaccent
Encoding: 267 267 202
Width: 394
GlyphClass: 2
Flags: MW
HStem: -10 60<163 192.5> 87 46<350 350> 436 49<203.5 304.5 246 249> 545 112<284 313.5>
VStem: 15 79<142.5 216.5> 244 112<585.5 616.5>
LayerCount: 2
Fore
SplineSet
298 657 m 0
 330 657 356 632 356 601 c 0
 356 570 329 545 298 545 c 0
 270 545 244 570 244 601 c 0
 244 632 268 657 298 657 c 0
307 360 m 1
 249 436 l 1
 244 436 l 2
 163 436 94 335 94 186 c 0
 94 99 132 50 194 50 c 0
 240 50 296 78 350 133 c 1
 350 87 l 1
 288 22 222 -10 163 -10 c 0
 75 -10 15 59 15 172 c 0
 15 261 45 340 98 398 c 0
 149 454 215 485 277 485 c 0
 332 485 370 453 370 415 c 0
 370 384 345 361 307 360 c 1
EndSplineSet
EndChar

StartChar: Ccaron
Encoding: 268 268 203
Width: 604
GlyphClass: 2
Flags: MW
HStem: -12 47<278 341> 636 47<405 456.5>
VStem: 41 95<184 318.5 184 330> 552 42<495 591> 560 54<928 928>
LayerCount: 2
Fore
SplineSet
329 928 m 1xe8
 385 928 l 1
 445 787 l 1
 560 928 l 1
 614 928 l 1
 468 738 l 1
 403 738 l 1
 329 928 l 1xe8
622 649 m 1
 594 495 l 1
 552 495 l 1
 552 591 l 1xf0
 544 610 l 1
 510 628 475 636 438 636 c 0
 372 636 310 612 261 568 c 0
 183 498 136 384 136 253 c 0
 136 115 212 35 344 35 c 0
 372 35 401 40 430 49 c 1
 449 66 l 1
 493 181 l 1
 536 181 l 1
 509 23 l 1
 440 0 372 -12 310 -12 c 0
 145 -12 41 96 41 265 c 0
 41 395 98 516 196 597 c 0
 265 653 349 683 441 683 c 0
 497 683 557 672 622 649 c 1
EndSplineSet
Substitution2: "'c2sc' Capitals to Small Capitals in Latin lookup 5 subtable" ccaron.sc
EndChar

StartChar: ccaron
Encoding: 269 269 204
Width: 394
GlyphClass: 2
Flags: MW
HStem: -10 60<163 192.5> 87 46<350 350> 436 49<203.5 304.5 246 249> 716 20G<154 210 210 210 385 439 439 439>
VStem: 15 79<142.5 216.5> 385 54<736 736>
LayerCount: 2
Fore
SplineSet
154 736 m 1
 210 736 l 1
 270 595 l 1
 385 736 l 1
 439 736 l 1
 293 546 l 1
 228 546 l 1
 154 736 l 1
307 360 m 1
 249 436 l 1
 244 436 l 2
 163 436 94 335 94 186 c 0
 94 99 132 50 194 50 c 0
 240 50 296 78 350 133 c 1
 350 87 l 1
 288 22 222 -10 163 -10 c 0
 75 -10 15 59 15 172 c 0
 15 261 45 340 98 398 c 0
 149 454 215 485 277 485 c 0
 332 485 370 453 370 415 c 0
 370 384 345 361 307 360 c 1
EndSplineSet
Substitution2: "'smcp' Lowercase to Small Capitals in Latin lookup 3 subtable" ccaron.sc
EndChar

StartChar: Dcaron
Encoding: 270 270 205
Width: 671
GlyphClass: 2
Flags: MW
HStem: 0 38<-28 183 -28 -28> 0 47<140 183> 625 46<249 249 249 303> 633 38<84 311>
VStem: 500 54<928 928> 526 97<374 493.5>
LayerCount: 2
Fore
SplineSet
269 928 m 1x08
 325 928 l 1
 385 787 l 1
 500 928 l 1
 554 928 l 1
 408 738 l 1
 343 738 l 1
 269 928 l 1x08
84 671 m 1x94
 311 671 l 2
 516 671 623 581 623 416 c 0
 623 299 578 189 499 111 c 0
 420 33 320 0 183 0 c 2x64
 -28 0 l 1
 -28 38 l 1
 36 44 l 1
 52 58 l 1
 159 613 l 1
 149 628 l 1
 84 633 l 1
 84 671 l 1x94
249 625 m 1
 140 47 l 1
 195 47 l 2
 304 47 388 84 440 152 c 0
 491 219 526 322 526 426 c 0
 526 561 453 625 303 625 c 2
 249 625 l 1
EndSplineSet
Substitution2: "'c2sc' Capitals to Small Capitals in Latin lookup 5 subtable" dcaron.sc
EndChar

StartChar: dcaron
Encoding: 271 271 206
Width: 523
GlyphClass: 2
Flags: MW
HStem: -9 57<162 178.5> -7 48<351 438.5> 447 39<253.5 292.5> 619 94<563 583 519 602.5> 679 28<322 322> 716 20G<475 501 501 501>
VStem: 21 81<131.5 204> 307 81<39.5 89.5> 583 64<616 619 619 619>
LayerCount: 2
Fore
SplineSet
514 442 m 1x3780
 471 442 l 1
 549 513 583 568 583 615 c 2
 583 619 l 1
 519 619 l 1
 514 628 512 636 512 645 c 0
 512 680 543 713 583 713 c 0
 622 713 647 687 647 647 c 0
 647 585 603 514 514 442 c 1x3780
475 736 m 1
 501 736 l 1
 394 137 l 2
 390 115 388 96 388 83 c 0
 388 55 402 41 432 41 c 0
 445 41 467 45 497 52 c 1
 497 22 l 1
 442 2 400 -7 374 -7 c 0x6f80
 328 -7 307 15 307 64 c 0
 307 70 307 77 308 84 c 1
 259 22 205 -9 152 -9 c 0
 72 -9 21 56 21 170 c 0
 21 238 38 300 70 351 c 0
 124 436 212 486 295 486 c 0
 322 486 348 481 375 469 c 1
 410 669 l 1
 322 679 l 1
 322 707 l 1xaf80
 475 736 l 1
313 444 m 1
 304 445 296 447 289 447 c 0
 199 447 102 338 102 171 c 0
 102 92 136 48 188 48 c 0xa780
 225 48 271 76 316 133 c 1
 361 387 l 1
 313 444 l 1
EndSplineSet
Substitution2: "'smcp' Lowercase to Small Capitals in Latin lookup 3 subtable" dcaron.sc
EndChar

StartChar: Dcroat
Encoding: 272 272 207
Width: 671
GlyphClass: 2
Flags: MW
HStem: 0 38<-28 183 -28 -28> 0 47<140 183> 331 46<24 105 19 114 202 343> 625 46<249 249 249 304> 633 38<85 312>
VStem: 526 97<374 493.5>
LayerCount: 2
Fore
SplineSet
85 671 m 1xac
 312 671 l 2
 517 671 623 581 623 416 c 0
 623 299 579 189 500 111 c 0
 421 33 320 0 183 0 c 2x74
 -28 0 l 1
 -28 38 l 1
 36 44 l 1
 52 58 l 1
 105 331 l 1
 19 331 l 1
 24 377 l 1
 114 377 l 1
 159 613 l 1
 149 628 l 1
 85 633 l 1
 85 671 l 1xac
249 625 m 1
 202 377 l 1
 352 377 l 1
 343 331 l 1
 192 331 l 1
 140 47 l 1
 195 47 l 2
 304 47 389 84 441 152 c 0
 492 219 526 322 526 426 c 0
 526 561 454 625 304 625 c 2
 249 625 l 1
EndSplineSet
EndChar

StartChar: dcroat
Encoding: 273 273 208
Width: 523
GlyphClass: 2
Flags: MW
HStem: -9 57<162 178.5> -7 48<351 438.5> 447 39<253.5 292.5> 547 67<296 389 283 400 479 507> 679 28<322 322> 716 20G<475 501 501 501>
VStem: 21 81<131.5 204> 307 81<39.5 89.5>
LayerCount: 2
Fore
SplineSet
313 444 m 1xbf
 304 445 296 447 289 447 c 0
 199 447 102 338 102 171 c 0
 102 92 136 48 188 48 c 0
 225 48 271 76 316 133 c 1
 361 387 l 1
 313 444 l 1xbf
475 736 m 1
 501 736 l 1
 479 614 l 1
 520 614 l 1
 507 547 l 1
 467 547 l 1
 394 137 l 2
 390 115 388 96 388 83 c 0
 388 55 402 41 432 41 c 0
 445 41 467 45 497 52 c 1
 497 22 l 1
 442 2 400 -7 374 -7 c 0x7f
 328 -7 307 15 307 64 c 0
 307 70 307 77 308 84 c 1
 259 22 205 -9 152 -9 c 0
 72 -9 21 56 21 170 c 0
 21 238 38 300 70 351 c 0
 124 436 212 486 295 486 c 0
 322 486 348 481 375 469 c 1
 389 547 l 1
 283 547 l 1
 296 614 l 1
 400 614 l 1
 410 669 l 1
 322 679 l 1
 322 707 l 1
 475 736 l 1
EndSplineSet
Substitution2: "'smcp' Lowercase to Small Capitals in Latin lookup 4 subtable" eth.sc
EndChar

StartChar: Emacron
Encoding: 274 274 209
Width: 546
GlyphClass: 2
Flags: MW
HStem: 0 38<-24 460 -24 -24> 0 46<139 394 139 460> 325 47<202 346 193 354> 625 46<251 466 251 251> 633 38<88 553> 814 51<218 528 227 519>
VStem: 218 310<814 865> 354 41<239 239> 394 43<459 459> 477 48<525 610>
LayerCount: 2
Fore
SplineSet
218 814 m 1x06
 227 865 l 1
 528 865 l 1
 519 814 l 1
 218 814 l 1x06
88 671 m 1xa8c0
 553 671 l 1xa8c0
 525 525 l 1
 477 525 l 1
 477 610 l 1
 466 625 l 1
 251 625 l 1
 202 372 l 1
 354 372 l 1x3140
 372 386 l 1
 394 459 l 1
 437 459 l 1x30c0
 395 239 l 1
 354 239 l 1x3140
 358 311 l 1
 346 325 l 1
 193 325 l 1
 139 46 l 1
 394 46 l 1x70c0
 412 62 l 1
 446 163 l 1
 492 163 l 1
 460 0 l 1
 -24 0 l 1
 -24 38 l 1
 39 44 l 1
 56 58 l 1
 163 613 l 1
 152 628 l 1
 88 633 l 1
 88 671 l 1xa8c0
EndSplineSet
EndChar

StartChar: emacron
Encoding: 275 275 210
Width: 424
GlyphClass: 2
Flags: MW
HStem: -9 55<174 205> 81 47<366 366> 440 42<250.5 268.5> 615 51<151 461 160 452>
VStem: 21 81<135.5 184 135.5 215> 151 310<615 666> 306 72<354.5 401.5>
LayerCount: 2
Fore
SplineSet
151 615 m 1x14
 160 666 l 1
 461 666 l 1
 452 615 l 1
 151 615 l 1x14
110 256 m 1xea
 235 263 306 323 306 386 c 0
 306 417 283 440 254 440 c 0
 196 440 139 377 110 256 c 1xea
105 222 m 1
 103 208 102 192 102 176 c 0
 102 95 142 46 206 46 c 0
 252 46 308 74 366 128 c 1
 366 81 l 1
 304 21 238 -9 172 -9 c 0
 78 -9 21 57 21 173 c 0
 21 257 54 341 110 400 c 0
 161 453 226 482 275 482 c 0
 338 482 378 443 378 383 c 0
 378 298 283 234 105 222 c 1
EndSplineSet
EndChar

StartChar: Ebreve
Encoding: 276 276 211
Width: 546
GlyphClass: 2
Flags: MW
HStem: 0 38<-24 460 -24 -24> 0 46<139 394 139 460> 325 47<202 346 193 354> 625 46<251 466 251 251> 633 38<88 553> 759 63<336.5 402.5 336.5 408>
VStem: 240 42<863 869> 354 41<239 239> 394 43<459 459> 477 48<525 610> 487 39<901 901>
LayerCount: 2
Fore
SplineSet
240 863 m 0x0620
 240 875 241 887 243 901 c 1
 283 901 l 1
 282 895 282 890 282 885 c 0
 282 841 307 822 366 822 c 0
 439 822 472 838 487 901 c 1
 526 901 l 1
 507 803 457 759 359 759 c 0
 278 759 240 792 240 863 c 0x0620
88 671 m 1xa8c0
 553 671 l 1xa8c0
 525 525 l 1
 477 525 l 1
 477 610 l 1
 466 625 l 1
 251 625 l 1
 202 372 l 1
 354 372 l 1x3140
 372 386 l 1
 394 459 l 1
 437 459 l 1x30c0
 395 239 l 1
 354 239 l 1x3140
 358 311 l 1
 346 325 l 1
 193 325 l 1
 139 46 l 1
 394 46 l 1x70c0
 412 62 l 1
 446 163 l 1
 492 163 l 1
 460 0 l 1
 -24 0 l 1
 -24 38 l 1
 39 44 l 1
 56 58 l 1
 163 613 l 1
 152 628 l 1
 88 633 l 1
 88 671 l 1xa8c0
EndSplineSet
EndChar

StartChar: ebreve
Encoding: 277 277 212
Width: 424
GlyphClass: 2
Flags: MW
HStem: -9 55<174 205> 81 47<366 366> 440 42<250.5 268.5> 543 63<266.5 332.5 266.5 338>
VStem: 21 81<135.5 184 135.5 215> 170 42<647 653> 306 72<354.5 401.5> 417 39<685 685>
LayerCount: 2
Fore
SplineSet
173 685 m 1
 213 685 l 1
 212 679 212 674 212 669 c 0
 212 625 237 606 296 606 c 0
 369 606 402 622 417 685 c 1
 456 685 l 1
 437 587 387 543 289 543 c 0
 208 543 170 576 170 647 c 0
 170 659 171 671 173 685 c 1
110 256 m 1
 235 263 306 323 306 386 c 0
 306 417 283 440 254 440 c 0
 196 440 139 377 110 256 c 1
105 222 m 1
 103 208 102 192 102 176 c 0
 102 95 142 46 206 46 c 0
 252 46 308 74 366 128 c 1
 366 81 l 1
 304 21 238 -9 172 -9 c 0
 78 -9 21 57 21 173 c 0
 21 257 54 341 110 400 c 0
 161 453 226 482 275 482 c 0
 338 482 378 443 378 383 c 0
 378 298 283 234 105 222 c 1
EndSplineSet
EndChar

StartChar: Edotaccent
Encoding: 278 278 213
Width: 546
GlyphClass: 2
Flags: MW
HStem: 0 38<-24 460 -24 -24> 0 46<139 394 139 460> 325 47<202 346 193 354> 625 46<251 466 251 251> 633 38<88 553> 777 112<355 384.5>
VStem: 315 112<817.5 848.5> 354 41<239 239> 394 43<459 459> 477 48<525 610>
LayerCount: 2
Fore
SplineSet
315 833 m 0x06
 315 864 339 889 369 889 c 0
 401 889 427 864 427 833 c 0
 427 802 400 777 369 777 c 0
 341 777 315 802 315 833 c 0x06
88 671 m 1xa8c0
 553 671 l 1xa8c0
 525 525 l 1
 477 525 l 1
 477 610 l 1
 466 625 l 1
 251 625 l 1
 202 372 l 1
 354 372 l 1x3140
 372 386 l 1
 394 459 l 1
 437 459 l 1x30c0
 395 239 l 1
 354 239 l 1x3140
 358 311 l 1
 346 325 l 1
 193 325 l 1
 139 46 l 1
 394 46 l 1x70c0
 412 62 l 1
 446 163 l 1
 492 163 l 1
 460 0 l 1
 -24 0 l 1
 -24 38 l 1
 39 44 l 1
 56 58 l 1
 163 613 l 1
 152 628 l 1
 88 633 l 1
 88 671 l 1xa8c0
EndSplineSet
EndChar

StartChar: edotaccent
Encoding: 279 279 214
Width: 424
GlyphClass: 2
Flags: MW
HStem: -9 55<174 205> 81 47<366 366> 440 42<250.5 268.5> 543 112<282 311.5>
VStem: 21 81<135.5 184 135.5 215> 242 112<583.5 614.5> 306 72<354.5 401.5>
LayerCount: 2
Fore
SplineSet
296 655 m 0x10
 328 655 354 630 354 599 c 0
 354 568 327 543 296 543 c 0
 268 543 242 568 242 599 c 0
 242 630 266 655 296 655 c 0x10
110 256 m 1xea
 235 263 306 323 306 386 c 0
 306 417 283 440 254 440 c 0
 196 440 139 377 110 256 c 1xea
105 222 m 1
 103 208 102 192 102 176 c 0
 102 95 142 46 206 46 c 0
 252 46 308 74 366 128 c 1
 366 81 l 1
 304 21 238 -9 172 -9 c 0
 78 -9 21 57 21 173 c 0
 21 257 54 341 110 400 c 0
 161 453 226 482 275 482 c 0
 338 482 378 443 378 383 c 0
 378 298 283 234 105 222 c 1
EndSplineSet
EndChar

StartChar: Eogonek
Encoding: 280 280 215
Width: 546
GlyphClass: 2
Flags: MW
HStem: -216 53<346 404.5> 0 38<-24 386 -24 -24> 0 46<139 386 139 460 139 429> 325 47<202 346 193 354> 625 46<251 466 251 251> 633 38<88 553>
VStem: 291 63<-134.5 -128.5> 354 41<239 239> 394 43<459 459> 477 48<525 610>
LayerCount: 2
Fore
SplineSet
88 671 m 1xd6c0
 553 671 l 1xd6c0
 525 525 l 1
 477 525 l 1
 477 610 l 1
 466 625 l 1
 251 625 l 1
 202 372 l 1
 354 372 l 1x9940
 372 386 l 1
 394 459 l 1
 437 459 l 1x98c0
 395 239 l 1
 354 239 l 1x9940
 358 311 l 1
 346 325 l 1
 193 325 l 1
 139 46 l 1
 394 46 l 1xb8c0
 412 62 l 1
 446 163 l 1
 492 163 l 1
 460 0 l 1
 429 0 l 1xd0c0
 379 -37 354 -84 354 -122 c 0
 354 -147 371 -163 401 -163 c 0
 408 -163 419 -161 435 -159 c 1
 425 -209 l 1
 407 -214 390 -216 373 -216 c 0
 319 -216 291 -193 291 -154 c 0
 291 -103 324 -42 386 0 c 1xb2c0
 -24 0 l 1
 -24 38 l 1
 39 44 l 1
 56 58 l 1
 163 613 l 1
 152 628 l 1
 88 633 l 1
 88 671 l 1xd6c0
EndSplineSet
EndChar

StartChar: eogonek
Encoding: 281 281 216
Width: 424
GlyphClass: 2
Flags: MW
HStem: -216 53<146 204.5> -9 55<125 229 172 229> 440 42<250.5 268.5>
VStem: 21 81<135.5 184 135.5 215> 91 63<-134.5 -130.5> 306 72<354.5 401.5>
LayerCount: 2
Fore
SplineSet
105 222 m 1xf4
 103 208 102 192 102 176 c 0xf4
 102 95 142 46 206 46 c 0
 252 46 308 74 366 128 c 1
 366 81 l 1
 321 37 274 10 226 -2 c 1
 178 -39 154 -85 154 -122 c 0
 154 -147 171 -163 201 -163 c 0
 208 -163 219 -161 235 -159 c 1
 225 -209 l 1
 207 -214 190 -216 173 -216 c 0
 119 -216 91 -193 91 -154 c 0xec
 91 -107 120 -50 174 -9 c 1
 172 -9 l 2
 78 -9 21 57 21 173 c 0
 21 257 54 341 110 400 c 0
 161 453 226 482 275 482 c 0
 338 482 378 443 378 383 c 0
 378 298 283 234 105 222 c 1xf4
110 256 m 1
 235 263 306 323 306 386 c 0
 306 417 283 440 254 440 c 0
 196 440 139 377 110 256 c 1
EndSplineSet
Substitution2: "'smcp' Lowercase to Small Capitals in Latin lookup 3 subtable" eogonek.sc
EndChar

StartChar: Ecaron
Encoding: 282 282 217
Width: 546
GlyphClass: 2
Flags: MW
HStem: 0 38<-24 460 -24 -24> 0 46<139 394 139 460> 325 47<202 346 193 354> 625 46<251 466 251 251> 633 38<88 553>
VStem: 354 41<239 239> 394 43<459 459> 470 54<928 928> 477 48<525 610>
LayerCount: 2
Fore
SplineSet
239 928 m 1x21
 295 928 l 1
 355 787 l 1
 470 928 l 1
 524 928 l 1
 378 738 l 1
 313 738 l 1
 239 928 l 1x21
88 671 m 1xaa
 553 671 l 1xaa
 525 525 l 1
 477 525 l 1
 477 610 l 1
 466 625 l 1
 251 625 l 1
 202 372 l 1
 354 372 l 1x3480
 372 386 l 1
 394 459 l 1
 437 459 l 1x32
 395 239 l 1
 354 239 l 1x34
 358 311 l 1
 346 325 l 1
 193 325 l 1
 139 46 l 1
 394 46 l 1x72
 412 62 l 1
 446 163 l 1
 492 163 l 1
 460 0 l 1
 -24 0 l 1
 -24 38 l 1
 39 44 l 1
 56 58 l 1
 163 613 l 1
 152 628 l 1
 88 633 l 1
 88 671 l 1xaa
EndSplineSet
Substitution2: "'c2sc' Capitals to Small Capitals in Latin lookup 5 subtable" ecaron.sc
EndChar

StartChar: ecaron
Encoding: 283 283 218
Width: 424
GlyphClass: 2
Flags: MW
HStem: -9 55<174 205> 81 47<366 366> 440 42<250.5 268.5> 716 20G<164 220 220 220 395 449 449 449>
VStem: 21 81<135.5 184 135.5 215> 306 72<354.5 401.5> 395 54<736 736>
LayerCount: 2
Fore
SplineSet
164 736 m 1
 220 736 l 1
 280 595 l 1
 395 736 l 1
 449 736 l 1
 303 546 l 1
 238 546 l 1
 164 736 l 1
110 256 m 1
 235 263 306 323 306 386 c 0
 306 417 283 440 254 440 c 0
 196 440 139 377 110 256 c 1
105 222 m 1
 103 208 102 192 102 176 c 0
 102 95 142 46 206 46 c 0
 252 46 308 74 366 128 c 1
 366 81 l 1
 304 21 238 -9 172 -9 c 0
 78 -9 21 57 21 173 c 0
 21 257 54 341 110 400 c 0
 161 453 226 482 275 482 c 0
 338 482 378 443 378 383 c 0
 378 298 283 234 105 222 c 1
EndSplineSet
Substitution2: "'smcp' Lowercase to Small Capitals in Latin lookup 3 subtable" ecaron.sc
EndChar

StartChar: Gcircumflex
Encoding: 284 284 219
Width: 664
GlyphClass: 2
Flags: MW
HStem: -12 49<277 339.5> 283 39<404 650 404 650> 635 49<417 467.5> 738 190<326 537 326 537 472 556 472 611>
VStem: 39 97<187.5 317.5 187.5 330.5> 326 55<738 738> 557 53<495 495>
LayerCount: 2
Fore
SplineSet
326 738 m 1
 472 928 l 1
 537 928 l 1
 611 738 l 1
 556 738 l 1
 495 879 l 1
 381 738 l 1
 326 738 l 1
639 654 m 1
 610 495 l 1
 557 495 l 1
 560 589 l 1
 551 610 l 1
 519 626 485 635 450 635 c 0
 384 635 320 610 267 565 c 0
 186 496 136 383 136 252 c 0
 136 123 218 37 336 37 c 0
 363 37 398 42 441 51 c 1
 479 264 l 1
 469 278 l 1
 404 283 l 1
 404 322 l 1
 650 322 l 1
 650 283 l 1
 586 278 l 1
 570 264 l 1
 523 23 l 1
 438 -1 367 -12 312 -12 c 0
 147 -12 39 99 39 266 c 0
 39 395 98 516 201 596 c 0
 275 653 363 684 459 684 c 0
 532 684 593 672 639 654 c 1
EndSplineSet
EndChar

StartChar: gcircumflex
Encoding: 285 285 220
Width: 481
GlyphClass: 2
Flags: MW
HStem: -218 42<142 225.5 142 227> 160 34<197 223.5 174.5 249.5> 415 43<377 480 377 377> 446 37<214 260 189.5 264.5> 543 190<113 324 113 324 259 398 259 343>
VStem: -31 78<-97 -53> 49 79<262.5 325 251 343.5> 101 61<68 108> 113 55<543 543> 311 79<309.5 359.5 294 384.5> 322 77<-106 -76>
LayerCount: 2
Fore
SplineSet
259 733 m 1x08
 324 733 l 1
 398 543 l 1
 343 543 l 1
 282 684 l 1
 168 543 l 1
 113 543 l 1
 259 733 l 1x08
337 458 m 1xe6
 480 458 l 1
 480 415 l 1
 377 415 l 1
 386 392 390 370 390 349 c 0xe640
 390 239 301 160 198 160 c 0
 196 160 188 160 175 161 c 1
 166 144 162 127 162 108 c 2
 162 102 l 1
 321 30 l 2
 373 6 399 -26 399 -69 c 0
 399 -143 296 -218 158 -218 c 0
 41 -218 -31 -165 -31 -85 c 0
 -31 -21 12 19 102 54 c 1
 101 60 101 65 101 71 c 0xe520
 101 104 114 134 141 168 c 1
 81 192 49 236 49 289 c 0
 49 398 135 483 244 483 c 0xd6
 276 483 306 474 337 458 c 1xe6
311 355 m 0
 311 414 286 446 243 446 c 0xd640
 185 446 128 372 128 278 c 0
 128 224 154 194 195 194 c 0
 252 194 311 264 311 355 c 0
139 34 m 1
 79 20 47 -14 47 -65 c 0
 47 -129 102 -176 182 -176 c 0
 269 -176 322 -134 322 -89 c 0xc420
 322 -63 304 -42 266 -25 c 2
 139 34 l 1
EndSplineSet
EndChar

StartChar: Gbreve
Encoding: 286 286 221
Width: 664
GlyphClass: 2
Flags: MW
HStem: -12 49<277 339.5> 283 39<404 650 404 650> 635 49<417 467.5> 737 63<428.5 494.5 428.5 500>
VStem: 39 97<187.5 317.5 187.5 330.5> 332 42<841 847> 557 53<495 495> 579 39<879 879>
LayerCount: 2
Fore
SplineSet
335 879 m 1xfd
 375 879 l 1
 374 873 374 868 374 863 c 0
 374 819 399 800 458 800 c 0
 531 800 564 816 579 879 c 1
 618 879 l 1
 599 781 549 737 451 737 c 0
 370 737 332 770 332 841 c 0
 332 853 333 865 335 879 c 1xfd
639 654 m 1
 610 495 l 1
 557 495 l 1xfe
 560 589 l 1
 551 610 l 1
 519 626 485 635 450 635 c 0
 384 635 320 610 267 565 c 0
 186 496 136 383 136 252 c 0
 136 123 218 37 336 37 c 0
 363 37 398 42 441 51 c 1
 479 264 l 1
 469 278 l 1
 404 283 l 1
 404 322 l 1
 650 322 l 1
 650 283 l 1
 586 278 l 1
 570 264 l 1
 523 23 l 1
 438 -1 367 -12 312 -12 c 0
 147 -12 39 99 39 266 c 0
 39 395 98 516 201 596 c 0
 275 653 363 684 459 684 c 0
 532 684 593 672 639 654 c 1
EndSplineSet
Substitution2: "'c2sc' Capitals to Small Capitals in Latin lookup 5 subtable" gbreve.sc
EndChar

StartChar: gbreve
Encoding: 287 287 222
Width: 481
GlyphClass: 2
Flags: MW
HStem: -218 42<142 225.5 142 227> 160 34<197 223.5 174.5 249.5> 415 43<377 480 377 377> 446 37<214 260 189.5 264.5> 567 63<243.5 309.5 243.5 315>
VStem: -31 78<-97 -53> 49 79<262.5 325 251 343.5> 101 61<68 108> 147 42<671 677> 311 79<309.5 359.5 294 384.5> 322 77<-106 -76> 394 39<709 709>
LayerCount: 2
Fore
SplineSet
150 709 m 1xcc90
 190 709 l 1
 189 703 189 698 189 693 c 0
 189 649 214 630 273 630 c 0
 346 630 379 646 394 709 c 1
 433 709 l 1
 414 611 364 567 266 567 c 0
 185 567 147 600 147 671 c 0
 147 683 148 695 150 709 c 1xcc90
337 458 m 1xee
 480 458 l 1
 480 415 l 1
 377 415 l 1
 386 392 390 370 390 349 c 0xee40
 390 239 301 160 198 160 c 0
 196 160 188 160 175 161 c 1
 166 144 162 127 162 108 c 2
 162 102 l 1
 321 30 l 2
 373 6 399 -26 399 -69 c 0
 399 -143 296 -218 158 -218 c 0
 41 -218 -31 -165 -31 -85 c 0
 -31 -21 12 19 102 54 c 1
 101 60 101 65 101 71 c 0xed20
 101 104 114 134 141 168 c 1
 81 192 49 236 49 289 c 0
 49 398 135 483 244 483 c 0xde
 276 483 306 474 337 458 c 1xee
311 355 m 0
 311 414 286 446 243 446 c 0xde40
 185 446 128 372 128 278 c 0
 128 224 154 194 195 194 c 0
 252 194 311 264 311 355 c 0
139 34 m 1
 79 20 47 -14 47 -65 c 0
 47 -129 102 -176 182 -176 c 0
 269 -176 322 -134 322 -89 c 0xcc20
 322 -63 304 -42 266 -25 c 2
 139 34 l 1
EndSplineSet
Substitution2: "'smcp' Lowercase to Small Capitals in Latin lookup 3 subtable" gbreve.sc
EndChar

StartChar: Gdotaccent
Encoding: 288 288 223
Width: 664
GlyphClass: 2
Flags: MW
HStem: -12 49<277 339.5> 283 39<404 650 404 650> 635 49<417 467.5> 777 112<471 500.5>
VStem: 39 97<187.5 317.5 187.5 330.5> 431 112<817.5 848.5> 557 53<495 495>
LayerCount: 2
Fore
SplineSet
431 833 m 0
 431 864 455 889 485 889 c 0
 517 889 543 864 543 833 c 0
 543 802 516 777 485 777 c 0
 457 777 431 802 431 833 c 0
639 654 m 1
 610 495 l 1
 557 495 l 1
 560 589 l 1
 551 610 l 1
 519 626 485 635 450 635 c 0
 384 635 320 610 267 565 c 0
 186 496 136 383 136 252 c 0
 136 123 218 37 336 37 c 0
 363 37 398 42 441 51 c 1
 479 264 l 1
 469 278 l 1
 404 283 l 1
 404 322 l 1
 650 322 l 1
 650 283 l 1
 586 278 l 1
 570 264 l 1
 523 23 l 1
 438 -1 367 -12 312 -12 c 0
 147 -12 39 99 39 266 c 0
 39 395 98 516 201 596 c 0
 275 653 363 684 459 684 c 0
 532 684 593 672 639 654 c 1
EndSplineSet
EndChar

StartChar: gdotaccent
Encoding: 289 289 224
Width: 481
GlyphClass: 2
Flags: MW
HStem: -218 42<142 225.5 142 227> 160 34<197 223.5 174.5 249.5> 415 43<377 480 377 377> 446 37<214 260 189.5 264.5> 543 112<251 280.5>
VStem: -31 78<-97 -53> 49 79<262.5 325 251 343.5> 101 61<68 108> 211 112<583.5 614.5> 311 79<309.5 359.5 294 384.5> 322 77<-106 -76>
LayerCount: 2
Fore
SplineSet
265 655 m 0x08
 297 655 323 630 323 599 c 0
 323 568 296 543 265 543 c 0
 237 543 211 568 211 599 c 0
 211 630 235 655 265 655 c 0x08
337 458 m 1xe6
 480 458 l 1
 480 415 l 1
 377 415 l 1
 386 392 390 370 390 349 c 0xe640
 390 239 301 160 198 160 c 0
 196 160 188 160 175 161 c 1
 166 144 162 127 162 108 c 2
 162 102 l 1
 321 30 l 2
 373 6 399 -26 399 -69 c 0
 399 -143 296 -218 158 -218 c 0
 41 -218 -31 -165 -31 -85 c 0
 -31 -21 12 19 102 54 c 1
 101 60 101 65 101 71 c 0xe520
 101 104 114 134 141 168 c 1
 81 192 49 236 49 289 c 0
 49 398 135 483 244 483 c 0xd6
 276 483 306 474 337 458 c 1xe6
311 355 m 0
 311 414 286 446 243 446 c 0xd640
 185 446 128 372 128 278 c 0
 128 224 154 194 195 194 c 0
 252 194 311 264 311 355 c 0
139 34 m 1
 79 20 47 -14 47 -65 c 0
 47 -129 102 -176 182 -176 c 0
 269 -176 322 -134 322 -89 c 0xc420
 322 -63 304 -42 266 -25 c 2
 139 34 l 1
EndSplineSet
EndChar

StartChar: uni0122
Encoding: 290 290 225
Width: 664
GlyphClass: 2
Flags: MW
HStem: -347 33<165 171> -171 99<286 308 244 326.5> -12 49<277 339.5> 283 39<404 650 404 650> 635 49<417 467.5>
VStem: 39 97<187.5 317.5 187.5 330.5> 235 135<-147.5 -121.5> 557 53<495 495>
LayerCount: 2
Fore
SplineSet
165 -347 m 1
 171 -314 l 1
 251 -299 297 -250 308 -171 c 1
 244 -171 l 1
 238 -162 235 -153 235 -142 c 0
 235 -101 266 -72 306 -72 c 0
 347 -72 370 -97 370 -140 c 0
 370 -233 287 -332 165 -347 c 1
639 654 m 1
 610 495 l 1
 557 495 l 1
 560 589 l 1
 551 610 l 1
 519 626 485 635 450 635 c 0
 384 635 320 610 267 565 c 0
 186 496 136 383 136 252 c 0
 136 123 218 37 336 37 c 0
 363 37 398 42 441 51 c 1
 479 264 l 1
 469 278 l 1
 404 283 l 1
 404 322 l 1
 650 322 l 1
 650 283 l 1
 586 278 l 1
 570 264 l 1
 523 23 l 1
 438 -1 367 -12 312 -12 c 0
 147 -12 39 99 39 266 c 0
 39 395 98 516 201 596 c 0
 275 653 363 684 459 684 c 0
 532 684 593 672 639 654 c 1
EndSplineSet
EndChar

StartChar: Hcircumflex
Encoding: 292 292 226
Width: 712
GlyphClass: 2
Flags: MW
HStem: 0 38<-28 215 -28 -28> 328 46<200 516 191 526> 633 38<84 328 84 328> 738 190<290 501 290 501 436 520 436 575>
VStem: 290 55<738 738>
LayerCount: 2
Fore
SplineSet
290 738 m 1
 436 928 l 1
 501 928 l 1
 575 738 l 1
 520 738 l 1
 459 879 l 1
 345 738 l 1
 290 738 l 1
84 671 m 1
 328 671 l 1
 328 633 l 1
 262 628 l 1
 247 613 l 1
 200 374 l 1
 526 374 l 1
 573 613 l 1
 561 628 l 1
 497 633 l 1
 497 671 l 1
 741 671 l 1
 741 633 l 1
 675 628 l 1
 659 613 l 1
 553 58 l 1
 563 44 l 1
 627 38 l 1
 627 0 l 1
 385 0 l 1
 385 38 l 1
 450 44 l 1
 465 58 l 1
 516 328 l 1
 191 328 l 1
 139 58 l 1
 151 44 l 1
 215 38 l 1
 215 0 l 1
 -28 0 l 1
 -28 38 l 1
 36 44 l 1
 52 58 l 1
 159 613 l 1
 149 628 l 1
 84 633 l 1
 84 671 l 1
EndSplineSet
EndChar

StartChar: hcircumflex
Encoding: 293 293 227
Width: 551
GlyphClass: 2
Flags: MW
HStem: -6 49<360 456> 421 62<301.5 399> 678 25<66 66> 716 20G<223 254 254 254> 796 190<227 438 227 438 373 512 373 457>
VStem: 23 85<0 0> 227 55<796 796> 312 86<34 101.5> 372 85<350.5 427.5>
LayerCount: 2
Fore
SplineSet
373 986 m 1x08
 438 986 l 1
 512 796 l 1
 457 796 l 1
 396 937 l 1
 282 796 l 1
 227 796 l 1
 373 986 l 1x08
223 736 m 1xf480
 254 736 l 1
 241 688 228 629 214 559 c 2
 181 388 l 1
 259 451 321 483 373 483 c 0
 425 483 457 452 457 403 c 0xf480
 457 378 451 349 443 313 c 2
 408 158 l 2
 402 131 398 110 398 93 c 0
 398 61 416 43 449 43 c 0
 463 43 482 46 505 52 c 1
 505 25 l 1
 452 4 411 -6 385 -6 c 0
 335 -6 312 13 312 55 c 0xf5
 312 68 314 86 319 108 c 2
 362 293 l 2
 369 322 372 344 372 357 c 0
 372 400 356 421 318 421 c 0
 285 421 232 395 170 339 c 1
 108 0 l 1
 23 0 l 1
 160 670 l 1
 66 678 l 1
 66 703 l 1
 223 736 l 1xf480
EndSplineSet
EndChar

StartChar: Itilde
Encoding: 296 296 228
Width: 312
GlyphClass: 2
Flags: MW
HStem: 0 38<-23 221 -23 -23> 633 38<89 333 89 333> 780 53<306 335.5> 830 55<164 189>
VStem: 85 43<765 765> 374 42<900 900>
LayerCount: 2
Fore
SplineSet
85 765 m 1x1c
 97 844 135 885 193 885 c 0x1c
 246 885 289 833 323 833 c 0
 350 833 367 855 374 900 c 1
 416 900 l 1
 407 825 361 780 310 780 c 0x2c
 251 780 203 830 175 830 c 0
 152 830 131 806 128 765 c 1
 85 765 l 1x1c
89 671 m 1xc0
 333 671 l 1
 333 633 l 1
 267 628 l 1
 251 613 l 1
 144 58 l 1
 156 44 l 1
 221 38 l 1
 221 0 l 1
 -23 0 l 1
 -23 38 l 1
 41 44 l 1
 57 58 l 1
 164 613 l 1
 153 628 l 1
 89 633 l 1
 89 671 l 1xc0
EndSplineSet
EndChar

StartChar: itilde
Encoding: 297 297 229
Width: 287
GlyphClass: 2
Flags: MW
HStem: -7 51<91.5 189.5> 424 26<33 33> 462 20G<181 207 207 207> 558 53<221 250.5> 608 55<79 104>
VStem: 0 43<543 543> 49 83<37 86> 289 42<678 678>
LayerCount: 2
Fore
SplineSet
289 678 m 1x11
 331 678 l 1
 322 603 276 558 225 558 c 0x11
 166 558 118 608 90 608 c 0
 67 608 46 584 43 543 c 1
 0 543 l 1
 12 622 50 663 108 663 c 0x09
 161 663 204 611 238 611 c 0
 265 611 282 633 289 678 c 1x11
181 482 m 1xe2
 207 482 l 1
 135 108 l 2
 133 97 132 89 132 83 c 0
 132 57 149 44 180 44 c 0
 199 44 223 49 254 59 c 1
 254 28 l 1
 199 5 151 -7 113 -7 c 0
 70 -7 49 15 49 59 c 0
 49 71 51 89 55 111 c 2
 114 409 l 1
 33 424 l 1
 33 450 l 1
 181 482 l 1xe2
EndSplineSet
EndChar

StartChar: Imacron
Encoding: 298 298 230
Width: 312
GlyphClass: 2
Flags: MW
HStem: 0 38<-23 221 -23 -23> 633 38<89 333 89 333> 814 51<97 407 106 398>
VStem: 97 310<814 865>
LayerCount: 2
Fore
SplineSet
97 814 m 1
 106 865 l 1
 407 865 l 1
 398 814 l 1
 97 814 l 1
89 671 m 1
 333 671 l 1
 333 633 l 1
 267 628 l 1
 251 613 l 1
 144 58 l 1
 156 44 l 1
 221 38 l 1
 221 0 l 1
 -23 0 l 1
 -23 38 l 1
 41 44 l 1
 57 58 l 1
 164 613 l 1
 153 628 l 1
 89 633 l 1
 89 671 l 1
EndSplineSet
EndChar

StartChar: imacron
Encoding: 299 299 231
Width: 287
GlyphClass: 2
Flags: MW
HStem: -7 51<91.5 189.5> 424 26<33 33> 462 20G<181 207 207 207> 615 51<43 353 52 344>
VStem: 43 310<615 666> 49 83<37 86>
LayerCount: 2
Fore
SplineSet
43 615 m 1x18
 52 666 l 1
 353 666 l 1
 344 615 l 1
 43 615 l 1x18
181 482 m 1xe4
 207 482 l 1
 135 108 l 2
 133 97 132 89 132 83 c 0
 132 57 149 44 180 44 c 0
 199 44 223 49 254 59 c 1
 254 28 l 1
 199 5 151 -7 113 -7 c 0
 70 -7 49 15 49 59 c 0
 49 71 51 89 55 111 c 2
 114 409 l 1
 33 424 l 1
 33 450 l 1
 181 482 l 1xe4
EndSplineSet
EndChar

StartChar: Ibreve
Encoding: 300 300 232
Width: 312
GlyphClass: 2
Flags: MW
HStem: 0 38<-23 221 -23 -23> 633 38<89 333 89 333> 759 63<215.5 281.5 215.5 287>
VStem: 119 42<863 869> 366 39<901 901>
LayerCount: 2
Fore
SplineSet
119 863 m 0
 119 875 120 887 122 901 c 1
 162 901 l 1
 161 895 161 890 161 885 c 0
 161 841 186 822 245 822 c 0
 318 822 351 838 366 901 c 1
 405 901 l 1
 386 803 336 759 238 759 c 0
 157 759 119 792 119 863 c 0
89 671 m 1
 333 671 l 1
 333 633 l 1
 267 628 l 1
 251 613 l 1
 144 58 l 1
 156 44 l 1
 221 38 l 1
 221 0 l 1
 -23 0 l 1
 -23 38 l 1
 41 44 l 1
 57 58 l 1
 164 613 l 1
 153 628 l 1
 89 633 l 1
 89 671 l 1
EndSplineSet
EndChar

StartChar: ibreve
Encoding: 301 301 233
Width: 287
GlyphClass: 2
Flags: MW
HStem: -7 51<91.5 189.5> 424 26<33 33> 462 20G<181 207 207 207> 543 63<131.5 197.5 131.5 203>
VStem: 35 42<647 653> 49 83<37 86> 282 39<685 685>
LayerCount: 2
Fore
SplineSet
38 685 m 1x12
 78 685 l 1
 77 679 77 674 77 669 c 0
 77 625 102 606 161 606 c 0
 234 606 267 622 282 685 c 1
 321 685 l 1
 302 587 252 543 154 543 c 0
 73 543 35 576 35 647 c 0
 35 659 36 671 38 685 c 1x12
181 482 m 1xe4
 207 482 l 1
 135 108 l 2
 133 97 132 89 132 83 c 0
 132 57 149 44 180 44 c 0
 199 44 223 49 254 59 c 1
 254 28 l 1
 199 5 151 -7 113 -7 c 0
 70 -7 49 15 49 59 c 0
 49 71 51 89 55 111 c 2
 114 409 l 1
 33 424 l 1
 33 450 l 1
 181 482 l 1xe4
EndSplineSet
EndChar

StartChar: Iogonek
Encoding: 302 302 234
Width: 312
GlyphClass: 2
Flags: MW
HStem: -209 53<-1 57.5> -13 20G<39 82 82 82> 0 38<-23 221 -23 -23> 633 38<89 333 89 333>
VStem: -56 63<-127.5 -121.5> 39 43<7 7>
LayerCount: 2
Fore
SplineSet
82 7 m 1xc0
 32 -30 7 -77 7 -115 c 0
 7 -140 24 -156 54 -156 c 0
 61 -156 72 -154 88 -152 c 1
 78 -202 l 1
 60 -207 43 -209 26 -209 c 0
 -28 -209 -56 -186 -56 -147 c 0
 -56 -96 -23 -35 39 7 c 1
 82 7 l 1xc0
89 671 m 1x30
 333 671 l 1
 333 633 l 1
 267 628 l 1
 251 613 l 1
 144 58 l 1
 156 44 l 1
 221 38 l 1
 221 0 l 1
 -23 0 l 1
 -23 38 l 1
 41 44 l 1
 57 58 l 1
 164 613 l 1
 153 628 l 1
 89 633 l 1
 89 671 l 1x30
EndSplineSet
EndChar

StartChar: iogonek
Encoding: 303 303 235
Width: 287
GlyphClass: 2
Flags: MW
HStem: -216 53<13 71.5> -20 20G<53 96 96 96> -7 51<91.5 189.5> 424 26<33 33> 462 20G<181 207 207 207> 596 108<186 215.5>
VStem: -42 63<-134.5 -128.5> 49 83<37 86> 53 43<0 0> 147 108<635 664.5 635 665>
LayerCount: 2
Fore
SplineSet
96 0 m 1xc0
 46 -37 21 -84 21 -122 c 0
 21 -147 38 -163 68 -163 c 0
 75 -163 86 -161 102 -159 c 1
 92 -209 l 1
 74 -214 57 -216 40 -216 c 0
 -14 -216 -42 -193 -42 -154 c 0
 -42 -103 -9 -42 53 0 c 1
 96 0 l 1xc0
201 704 m 0x3d40
 230 704 255 679 255 650 c 0
 255 620 230 596 201 596 c 0
 171 596 147 619 147 650 c 0
 147 680 171 704 201 704 c 0x3d40
181 482 m 1
 207 482 l 1
 135 108 l 2
 133 97 132 89 132 83 c 0
 132 57 149 44 180 44 c 0
 199 44 223 49 254 59 c 1
 254 28 l 1
 199 5 151 -7 113 -7 c 0
 70 -7 49 15 49 59 c 0
 49 71 51 89 55 111 c 2
 114 409 l 1
 33 424 l 1
 33 450 l 1
 181 482 l 1
EndSplineSet
EndChar

StartChar: Idotaccent
Encoding: 304 304 236
Width: 312
GlyphClass: 2
Flags: MW
HStem: 0 38<-23 221 -23 -23> 633 38<89 333 89 333> 745 112<226 255.5>
VStem: 186 112<785.5 816.5>
LayerCount: 2
Fore
SplineSet
240 857 m 0
 272 857 298 832 298 801 c 0
 298 770 271 745 240 745 c 0
 212 745 186 770 186 801 c 0
 186 832 210 857 240 857 c 0
89 671 m 1
 333 671 l 1
 333 633 l 1
 267 628 l 1
 251 613 l 1
 144 58 l 1
 156 44 l 1
 221 38 l 1
 221 0 l 1
 -23 0 l 1
 -23 38 l 1
 41 44 l 1
 57 58 l 1
 164 613 l 1
 153 628 l 1
 89 633 l 1
 89 671 l 1
EndSplineSet
EndChar

StartChar: dotlessi
Encoding: 305 305 237
Width: 287
GlyphClass: 2
Flags: MW
HStem: -7 51<91.5 189.5> 424 26<33 33> 462 20G<181 207 207 207>
VStem: 49 83<37 86>
AnchorPoint: "Anchor-2" 73 0 basechar 0
AnchorPoint: "Anchor-1" 167 483 basechar 0
LayerCount: 2
Fore
SplineSet
181 482 m 1
 207 482 l 1
 135 108 l 2
 133 97 132 89 132 83 c 0
 132 57 149 44 180 44 c 0
 199 44 223 49 254 59 c 1
 254 28 l 1
 199 5 151 -7 113 -7 c 0
 70 -7 49 15 49 59 c 0
 49 71 51 89 55 111 c 2
 114 409 l 1
 33 424 l 1
 33 450 l 1
 181 482 l 1
EndSplineSet
Substitution2: "'smcp' Lowercase to Small Capitals in Latin lookup 3 subtable" i.sc
EndChar

StartChar: IJ
Encoding: 306 306 238
Width: 748
GlyphClass: 2
Flags: MW
HStem: -12 48<387.5 438.5 387.5 461> 0 38<-23 221 -23 -23> 633 38<89 333 89 333>
VStem: 295 50<53 180>
LayerCount: 2
Fore
SplineSet
89 671 m 1x70
 333 671 l 1
 333 633 l 1
 267 628 l 1
 251 613 l 1
 144 58 l 1
 156 44 l 1
 221 38 l 1
 221 0 l 1
 -23 0 l 1
 -23 38 l 1
 41 44 l 1
 57 58 l 1
 164 613 l 1
 153 628 l 1
 89 633 l 1
 89 671 l 1x70
532 671 m 1
 775 671 l 1
 775 633 l 1
 710 628 l 1
 694 613 l 1
 627 256 l 2
 592 69 537 -12 385 -12 c 0
 337 -12 296 -4 262 12 c 1
 295 180 l 1
 345 180 l 1
 345 53 l 1
 357 40 l 1
 371 37 383 36 392 36 c 0xb0
 485 36 509 108 537 252 c 2
 607 613 l 1
 596 628 l 1
 532 633 l 1
 532 671 l 1
EndSplineSet
Substitution2: "'c2sc' Capitals to Small Capitals in Latin lookup 6 subtable" ij.sc
EndChar

StartChar: ij
Encoding: 307 307 239
Width: 556
GlyphClass: 2
Flags: MW
HStem: -216 93<181 235.5> -7 51<91.5 189.5> 430 23<312 312> 462 20G<181 207 207 207 464 500 500 500> 593 108<467 496.5>
VStem: 49 83<37 86> 147 108<635 664.5 635 665> 428 108<632 662>
LayerCount: 2
Fore
SplineSet
482 701 m 0
 511 701 536 677 536 647 c 0
 536 617 511 593 482 593 c 0
 452 593 428 617 428 647 c 0
 428 677 452 701 482 701 c 0
464 482 m 1
 500 482 l 1
 444 126 l 2
 431 42 418 -34 368 -104 c 0
 315 -179 259 -216 212 -216 c 0
 180 -216 159 -195 159 -163 c 0
 159 -147 167 -133 181 -123 c 1
 284 -150 l 1
 334 -96 348 -4 368 123 c 2
 413 418 l 1
 312 430 l 1
 312 453 l 1
 464 482 l 1
201 704 m 0
 230 704 255 679 255 650 c 0
 255 620 230 596 201 596 c 0
 171 596 147 619 147 650 c 0
 147 680 171 704 201 704 c 0
181 482 m 1
 207 482 l 1
 135 108 l 2
 133 97 132 89 132 83 c 0
 132 57 149 44 180 44 c 0
 199 44 223 49 254 59 c 1
 254 28 l 1
 199 5 151 -7 113 -7 c 0
 70 -7 49 15 49 59 c 0
 49 71 51 89 55 111 c 2
 114 409 l 1
 33 424 l 1
 33 450 l 1
 181 482 l 1
EndSplineSet
Substitution2: "'smcp' Lowercase to Small Capitals in Latin lookup 4 subtable" ij.sc
Substitution2: "'smcp' Lowercase to Small Capitals in Latin lookup 3 subtable" ij.sc
EndChar

StartChar: Jcircumflex
Encoding: 308 308 240
Width: 447
GlyphClass: 2
Flags: MW
HStem: -12 48<83.5 134.5 83.5 157> 633 38<228 471 228 471> 738 190<228 439 228 439 374 458 374 513>
VStem: -9 50<53 180> 228 55<738 738>
LayerCount: 2
Fore
SplineSet
228 738 m 1
 374 928 l 1
 439 928 l 1
 513 738 l 1
 458 738 l 1
 397 879 l 1
 283 738 l 1
 228 738 l 1
228 671 m 1
 471 671 l 1
 471 633 l 1
 406 628 l 1
 390 613 l 1
 323 256 l 2
 288 69 233 -12 81 -12 c 0
 33 -12 -8 -4 -42 12 c 1
 -9 180 l 1
 41 180 l 1
 41 53 l 1
 53 40 l 1
 67 37 79 36 88 36 c 0
 181 36 205 108 233 252 c 2
 303 613 l 1
 292 628 l 1
 228 633 l 1
 228 671 l 1
EndSplineSet
EndChar

StartChar: jcircumflex
Encoding: 309 309 241
Width: 269
GlyphClass: 2
Flags: MW
HStem: -216 93<-106 -51.5> 430 23<25 25> 462 20G<177 213 213 213> 543 190<15 226 15 226 161 300 161 245>
VStem: 15 55<543 543>
LayerCount: 2
Fore
SplineSet
161 733 m 1
 226 733 l 1
 300 543 l 1
 245 543 l 1
 184 684 l 1
 70 543 l 1
 15 543 l 1
 161 733 l 1
177 482 m 1
 213 482 l 1
 157 126 l 2
 144 42 131 -34 81 -104 c 0
 28 -179 -28 -216 -75 -216 c 0
 -107 -216 -128 -195 -128 -163 c 0
 -128 -147 -120 -133 -106 -123 c 1
 -3 -150 l 1
 47 -96 61 -4 81 123 c 2
 126 418 l 1
 25 430 l 1
 25 453 l 1
 177 482 l 1
EndSplineSet
EndChar

StartChar: uni0136
Encoding: 310 310 242
Width: 625
GlyphClass: 2
Flags: MW
HStem: -339 33<337 343> -163 99<458 480 416 498.5> 0 38<-30 214 -30 -30> 298 42<190 219 190 252 182 219> 633 38<82 325 82 325>
VStem: 407 135<-139.5 -113.5>
LayerCount: 2
Fore
SplineSet
337 -339 m 1
 343 -306 l 1
 423 -291 469 -242 480 -163 c 1
 416 -163 l 1
 410 -154 407 -145 407 -134 c 0
 407 -93 438 -64 478 -64 c 0
 519 -64 542 -89 542 -132 c 0
 542 -225 459 -324 337 -339 c 1
82 671 m 1
 325 671 l 1
 325 633 l 1
 260 628 l 1
 244 613 l 1
 190 340 l 1
 219 340 l 1
 494 611 l 1
 488 627 l 1
 418 632 l 1
 418 671 l 1
 660 671 l 1
 660 631 l 1
 577 625 l 1
 314 368 l 1
 456 92 l 2
 477 51 494 38 554 38 c 2
 574 38 l 1
 574 0 l 1
 528 -3 497 -4 484 -4 c 0
 413 -4 398 10 368 69 c 2
 252 298 l 1
 182 298 l 1
 136 58 l 1
 149 44 l 1
 214 38 l 1
 214 0 l 1
 -30 0 l 1
 -30 38 l 1
 34 44 l 1
 50 58 l 1
 157 613 l 1
 146 628 l 1
 82 633 l 1
 82 671 l 1
EndSplineSet
EndChar

StartChar: uni0137
Encoding: 311 311 243
Width: 514
GlyphClass: 2
Flags: MW
HStem: -340 33<229 235> -164 99<350 372 308 390.5> -5 48<356 448.5> 462 20G<407 435.5> 679 28<68 68> 716 20G<225 253 253 253>
VStem: 25 83<0 0> 299 135<-140.5 -114.5>
LayerCount: 2
Fore
SplineSet
229 -340 m 1
 235 -307 l 1
 315 -292 361 -243 372 -164 c 1
 308 -164 l 1
 302 -155 299 -146 299 -135 c 0
 299 -94 330 -65 370 -65 c 0
 411 -65 434 -90 434 -133 c 0
 434 -226 351 -325 229 -340 c 1
225 736 m 1
 253 736 l 1
 146 238 l 1
 331 429 l 2
 366 465 395 482 419 482 c 0
 452 482 476 460 476 431 c 0
 476 405 458 384 421 369 c 1
 385 408 l 1
 342 377 300 340 256 300 c 1
 332 128 372 43 441 43 c 0
 456 43 473 46 493 50 c 1
 493 22 l 1
 435 3 395 -5 376 -5 c 0
 336 -5 308 20 282 72 c 2
 197 244 l 1
 140 192 l 1
 108 0 l 1
 25 0 l 1
 160 674 l 1
 68 679 l 1
 68 707 l 1
 225 736 l 1
EndSplineSet
EndChar

StartChar: Lacute
Encoding: 313 313 244
Width: 498
GlyphClass: 2
Flags: MW
HStem: 0 38<-28 418 -28 -28> 0 46<136 348 136 418> 633 38<84 327 84 327>
VStem: 405 48<182 182>
LayerCount: 2
Fore
SplineSet
316 936 m 1x30
 415 936 l 1
 232 746 l 1
 183 746 l 1
 316 936 l 1x30
84 671 m 1
 327 671 l 1
 327 633 l 1
 262 628 l 1
 246 613 l 1
 136 46 l 1
 348 46 l 1x70
 366 62 l 1
 405 182 l 1
 453 182 l 1
 418 0 l 1
 -28 0 l 1
 -28 38 l 1xb0
 36 43 l 1
 52 58 l 1
 159 613 l 1
 149 628 l 1
 84 633 l 1
 84 671 l 1
EndSplineSet
Substitution2: "'c2sc' Capitals to Small Capitals in Latin lookup 5 subtable" lacute.sc
EndChar

StartChar: lacute
Encoding: 314 314 245
Width: 275
GlyphClass: 2
Flags: MW
HStem: -9 49<83.5 178.5> 680 26<60 60> 716 20G<212 239 239 239>
VStem: 35 80<71.5 72>
LayerCount: 2
Fore
SplineSet
246 956 m 1
 345 956 l 1
 162 766 l 1
 113 766 l 1
 246 956 l 1
212 736 m 1
 239 736 l 1
 232 699 228 677 227 671 c 2
 126 168 l 2
 118 128 115 101 115 87 c 0
 115 56 134 40 170 40 c 0
 187 40 211 46 241 56 c 1
 241 25 l 1
 184 1 139 -9 108 -9 c 0
 59 -9 35 15 35 65 c 0
 35 79 41 118 53 180 c 2
 149 670 l 1
 60 680 l 1
 60 706 l 1
 212 736 l 1
EndSplineSet
Substitution2: "'smcp' Lowercase to Small Capitals in Latin lookup 3 subtable" lacute.sc
EndChar

StartChar: uni013B
Encoding: 315 315 246
Width: 498
GlyphClass: 2
Flags: MW
HStem: -335 33<48 54> -159 99<169 191 127 209.5> 0 38<-28 418 -28 -28> 0 46<136 348 136 418> 633 38<84 327 84 327>
VStem: 118 135<-135.5 -109.5> 405 48<182 182>
LayerCount: 2
Fore
SplineSet
48 -335 m 1xc4
 54 -302 l 1
 134 -287 180 -238 191 -159 c 1
 127 -159 l 1
 121 -150 118 -141 118 -130 c 0
 118 -89 149 -60 189 -60 c 0
 230 -60 253 -85 253 -128 c 0
 253 -221 170 -320 48 -335 c 1xc4
84 671 m 1x2a
 327 671 l 1
 327 633 l 1
 262 628 l 1
 246 613 l 1
 136 46 l 1
 348 46 l 1x1a
 366 62 l 1
 405 182 l 1
 453 182 l 1
 418 0 l 1
 -28 0 l 1
 -28 38 l 1
 36 43 l 1
 52 58 l 1
 159 613 l 1
 149 628 l 1
 84 633 l 1
 84 671 l 1x2a
EndSplineSet
EndChar

StartChar: uni013C
Encoding: 316 316 247
Width: 275
GlyphClass: 2
Flags: MW
HStem: -344 33<-39 -33> -168 99<82 104 40 122.5> -9 49<83.5 178.5> 680 26<60 60> 716 20G<212 239 239 239>
VStem: 31 135<-144.5 -118.5> 35 80<71.5 72>
LayerCount: 2
Fore
SplineSet
-39 -344 m 1xc4
 -33 -311 l 1
 47 -296 93 -247 104 -168 c 1
 40 -168 l 1
 34 -159 31 -150 31 -139 c 0
 31 -98 62 -69 102 -69 c 0
 143 -69 166 -94 166 -137 c 0
 166 -230 83 -329 -39 -344 c 1xc4
212 736 m 1x3a
 239 736 l 1
 232 699 228 677 227 671 c 2
 126 168 l 2
 118 128 115 101 115 87 c 0
 115 56 134 40 170 40 c 0
 187 40 211 46 241 56 c 1
 241 25 l 1
 184 1 139 -9 108 -9 c 0
 59 -9 35 15 35 65 c 0
 35 79 41 118 53 180 c 2
 149 670 l 1
 60 680 l 1
 60 706 l 1
 212 736 l 1x3a
EndSplineSet
EndChar

StartChar: Lcaron
Encoding: 317 317 248
Width: 498
GlyphClass: 2
Flags: MW
HStem: 0 38<-28 418 -28 -28> 0 46<136 348 136 418> 619 94<433 453 389 472.5> 633 38<84 327 84 327>
VStem: 405 48<182 182> 453 64<616 619 619 619>
LayerCount: 2
Fore
SplineSet
384 442 m 1x24
 341 442 l 1
 419 513 453 568 453 615 c 2
 453 619 l 1
 389 619 l 1
 384 628 382 636 382 645 c 0
 382 680 413 713 453 713 c 0
 492 713 517 687 517 647 c 0
 517 585 473 514 384 442 c 1x24
84 671 m 1x98
 327 671 l 1
 327 633 l 1
 262 628 l 1
 246 613 l 1
 136 46 l 1
 348 46 l 1x58
 366 62 l 1
 405 182 l 1
 453 182 l 1
 418 0 l 1
 -28 0 l 1
 -28 38 l 1
 36 43 l 1
 52 58 l 1
 159 613 l 1
 149 628 l 1
 84 633 l 1
 84 671 l 1x98
EndSplineSet
Substitution2: "'c2sc' Capitals to Small Capitals in Latin lookup 5 subtable" lcaron.sc
EndChar

StartChar: lcaron
Encoding: 318 318 249
Width: 275
GlyphClass: 2
Flags: MW
HStem: -9 49<83.5 178.5> 619 94<303 323 259 342.5> 680 26<60 60> 716 20G<212 239 239 239>
VStem: 35 80<71.5 72> 323 64<616 619 619 619>
LayerCount: 2
Fore
SplineSet
254 442 m 1xdc
 211 442 l 1
 289 513 323 568 323 615 c 2
 323 619 l 1
 259 619 l 1
 254 628 252 636 252 645 c 0
 252 680 283 713 323 713 c 0
 362 713 387 687 387 647 c 0
 387 585 343 514 254 442 c 1xdc
212 736 m 1
 239 736 l 1
 232 699 228 677 227 671 c 2
 126 168 l 2
 118 128 115 101 115 87 c 0
 115 56 134 40 170 40 c 0
 187 40 211 46 241 56 c 1
 241 25 l 1
 184 1 139 -9 108 -9 c 0
 59 -9 35 15 35 65 c 0
 35 79 41 118 53 180 c 2
 149 670 l 1
 60 680 l 1
 60 706 l 1xbc
 212 736 l 1
EndSplineSet
Substitution2: "'smcp' Lowercase to Small Capitals in Latin lookup 3 subtable" lcaron.sc
EndChar

StartChar: Ldot
Encoding: 319 319 250
Width: 498
GlyphClass: 2
Flags: MW
HStem: 0 38<-28 418 -28 -28> 0 46<136 348 136 418> 282 119 633 38<84 327 84 327>
VStem: 192 119<324 357> 405 48<182 182>
LayerCount: 2
Fore
SplineSet
251 400 m 0x20
 284 400 311 374 311 340 c 0
 311 308 284 282 251 282 c 0
 219 282 192 308 192 340 c 0
 192 374 218 400 251 400 c 0x20
84 671 m 1x94
 327 671 l 1
 327 633 l 1
 262 628 l 1
 246 613 l 1
 136 46 l 1
 348 46 l 1x54
 366 62 l 1
 405 182 l 1
 453 182 l 1
 418 0 l 1
 -28 0 l 1
 -28 38 l 1
 36 43 l 1
 52 58 l 1
 159 613 l 1
 149 628 l 1
 84 633 l 1
 84 671 l 1x94
EndSplineSet
EndChar

StartChar: ldot
Encoding: 320 320 251
Width: 553
GlyphClass: 2
Flags: MW
HStem: -9 49<83.5 178.5> 276 119<397 429.5> 680 26<60 60> 716 20G<212 239 239 239>
VStem: 35 80<71.5 72> 354 119<318.5 351.5>
LayerCount: 2
Fore
SplineSet
413 395 m 0
 446 395 473 368 473 335 c 0
 473 302 446 276 413 276 c 0
 381 276 354 302 354 335 c 0
 354 368 380 395 413 395 c 0
212 736 m 1
 239 736 l 1
 232 699 228 677 227 671 c 2
 126 168 l 2
 118 128 115 101 115 87 c 0
 115 56 134 40 170 40 c 0
 187 40 211 46 241 56 c 1
 241 25 l 1
 184 1 139 -9 108 -9 c 0
 59 -9 35 15 35 65 c 0
 35 79 41 118 53 180 c 2
 149 670 l 1
 60 680 l 1
 60 706 l 1
 212 736 l 1
EndSplineSet
EndChar

StartChar: Lslash
Encoding: 321 321 252
Width: 498
GlyphClass: 2
Flags: MW
HStem: 0 38<-28 418 -28 -28> 0 46<136 348 136 418> 633 38<84 327 84 327>
VStem: 405 48<182 182>
LayerCount: 2
Fore
SplineSet
84 671 m 1xb0
 327 671 l 1
 327 633 l 1
 262 628 l 1
 246 613 l 1
 206 409 l 1
 307 464 l 1
 330 423 l 1
 196 352 l 1
 136 46 l 1
 348 46 l 1x70
 366 62 l 1
 405 182 l 1
 453 182 l 1
 418 0 l 1
 -28 0 l 1
 -28 38 l 1
 36 43 l 1
 52 58 l 1
 97 295 l 1
 27 256 l 1
 6 298 l 1
 109 355 l 1
 159 613 l 1
 149 628 l 1
 84 633 l 1
 84 671 l 1xb0
EndSplineSet
Substitution2: "'c2sc' Capitals to Small Capitals in Latin lookup 6 subtable" lslash.sc
Position2: "'cpsp' Capital Spacing in Latin lookup 2 subtable" dx=7 dy=0 dh=14 dv=0
EndChar

